<svg width="209" height="56" viewBox="0 0 209 56" fill="none" xmlns="http://www.w3.org/2000/svg">
<path d="M175.186 44.2948C175.201 43.5382 175.062 42.7866 174.779 42.0863C174.495 41.386 174.073 40.7518 173.537 40.2229C173.014 39.6803 172.388 39.2491 171.697 38.9547C171.006 38.6603 170.264 38.5086 169.514 38.5086C168.765 38.5086 168.022 38.6603 167.332 38.9547C166.641 39.2491 166.015 39.6803 165.491 40.2229C164.959 40.7536 164.539 41.3883 164.258 42.0884C163.976 42.7884 163.838 43.5391 163.852 44.2948C163.838 45.0574 163.976 45.8152 164.257 46.5229C164.539 47.2306 164.959 47.8738 165.491 48.4139C166.564 49.4821 168.009 50.0808 169.514 50.0808C171.02 50.0808 172.465 49.4821 173.537 48.4139C174.071 47.8757 174.492 47.2344 174.775 46.5284C175.058 45.8224 175.198 45.066 175.186 44.3042M147.086 44.3042C147.098 43.5702 146.953 42.8423 146.66 42.1705C146.367 41.4987 145.934 40.8989 145.39 40.4123C144.867 39.8772 144.24 39.4571 143.548 39.1785C142.857 38.8999 142.116 38.7686 141.372 38.793C140.64 38.7734 139.912 38.9072 139.233 39.1858C138.554 39.4645 137.94 39.8821 137.429 40.4123C136.908 40.912 136.496 41.5165 136.22 42.1868C135.944 42.8571 135.81 43.5784 135.827 44.3042C135.815 45.0365 135.95 45.7636 136.226 46.441C136.501 47.1183 136.91 47.7317 137.429 48.2435C137.949 48.7584 138.566 49.1628 139.243 49.4328C139.92 49.7028 140.644 49.8329 141.372 49.8154C142.112 49.8372 142.848 49.7093 143.538 49.4394C144.228 49.1695 144.858 48.7629 145.39 48.2435C145.932 47.7446 146.362 47.1359 146.654 46.457C146.947 45.7781 147.094 45.0445 147.086 44.3042ZM119.079 44.3042C119.089 43.5705 118.943 42.8432 118.651 42.1716C118.358 41.5001 117.926 40.9001 117.384 40.4123C116.86 39.8772 116.233 39.4571 115.542 39.1785C114.85 38.8999 114.109 38.7686 113.366 38.793C112.633 38.7734 111.905 38.9072 111.226 39.1858C110.548 39.4645 109.933 39.8821 109.422 40.4123C108.901 40.912 108.489 41.5165 108.214 42.1868C107.938 42.8571 107.804 43.5784 107.82 44.3042C107.808 45.0365 107.944 45.7636 108.219 46.441C108.495 47.1183 108.904 47.7317 109.422 48.2435C109.942 48.7584 110.559 49.1628 111.236 49.4328C111.914 49.7028 112.638 49.8329 113.366 49.8154C114.105 49.8372 114.842 49.7093 115.532 49.4394C116.222 49.1695 116.851 48.7629 117.384 48.2435C117.924 47.7435 118.353 47.1345 118.645 46.4559C118.937 45.7773 119.085 45.0443 119.079 44.3042ZM209 49.7775V55.2887C208.087 55.5476 207.137 55.6501 206.19 55.5918C202.34 55.5918 200.429 53.4896 200.429 49.2946V42.7323C200.429 40.1472 199.09 38.5752 196.542 38.5752C195.975 38.56 195.412 38.6636 194.886 38.8797C194.361 39.0958 193.886 39.4196 193.491 39.8307C193.096 40.2418 192.789 40.7312 192.59 41.2681C192.392 41.805 192.305 42.3777 192.337 42.9501V55.3172H185.855V41.113C185.844 40.7693 185.766 40.4312 185.625 40.1182C185.484 39.8052 185.284 39.5235 185.034 39.2893C184.785 39.0551 184.493 38.8731 184.174 38.7538C183.855 38.6345 183.516 38.5802 183.176 38.5942C182.667 38.6376 182.183 38.8353 181.787 39.1614C181.391 39.4874 181.101 39.9267 180.956 40.4218C181.389 41.6723 181.608 42.9886 181.602 44.3137C181.632 45.8745 181.332 47.4238 180.721 48.8577C180.11 50.2916 179.204 51.577 178.062 52.6278C175.714 54.7971 172.648 56 169.468 56C166.287 56 163.221 54.7971 160.874 52.6278L160.593 52.3248C159.835 53.3662 158.85 54.2165 157.714 54.8093C156.577 55.4022 155.321 55.7217 154.042 55.7428C152.764 55.7639 151.498 55.486 150.343 54.9309C149.189 54.3758 148.176 53.5584 147.386 52.5426C145.952 54.6922 143.573 55.7433 140.154 55.7433C138.719 55.7757 137.292 55.5044 135.966 54.9467C134.64 54.389 133.444 53.5572 132.455 52.5047C131.683 53.5178 130.693 54.3393 129.559 54.9067C128.426 55.4741 127.179 55.7723 125.914 55.7787C124.649 55.7851 123.4 55.4995 122.261 54.9436C121.122 54.3877 120.123 53.5762 119.341 52.571C117.918 54.7206 115.539 55.7717 112.12 55.7717C110.673 55.8048 109.235 55.5293 107.9 54.9631C106.566 54.3969 105.364 53.5528 104.373 52.4858C104.224 52.3248 104.092 52.1544 103.952 51.9839V52.0407C102.725 54.5312 99.8961 55.7717 97.3015 55.7717C96.1896 55.7706 95.0933 55.5072 94.0998 55.0026C93.1063 54.4979 92.243 53.7658 91.5784 52.8646C90.7797 53.7809 89.7966 54.5143 88.695 55.0156C87.5933 55.517 86.3984 55.7747 85.1903 55.7717C80.7879 55.7717 78.6898 53.1676 78.6898 49.8628V42.7323C78.6898 40.1472 77.3504 38.5752 74.9431 38.5752C72.5358 38.5752 70.9154 40.3649 70.9154 42.9501V55.3172H64.6397V28.4619C64.6397 28.1605 64.5213 27.8715 64.3105 27.6584C64.0997 27.4453 63.8138 27.3256 63.5157 27.3256C63.2577 27.3259 63.0075 27.4153 62.8065 27.5789C62.6056 27.7424 62.4658 27.9704 62.4104 28.2252L54.2988 55.3172H48.6787L43.2367 37.2116L37.7665 55.3172H32.1464L24.9621 31.2838L24.1472 28.5282C23.9805 28.0113 23.6558 27.5613 23.2198 27.243C22.7837 26.9247 22.259 26.7547 21.7212 26.7574H21V21.3977C21 21.3977 22.3113 21.142 22.7422 21.1042C23.1957 21.0426 23.6523 21.0079 24.1098 21C27.9501 21 29.0273 22.9791 30.3667 27.2782L35.3124 42.1925L40.6702 23.6041H45.8219L51.1984 42.1925C51.1984 42.1925 55.3104 30.0528 56.0691 27.5812C57.2868 23.4905 59.6472 20.2898 65.2298 21.142C69.0514 21.7291 71.0559 25.2991 71.0559 29.1721V35.9427C71.927 34.0489 74.2593 32.7894 77.163 32.7894C82.3054 32.7894 85.2559 36.1984 85.2559 41.9369V47.5522C85.2559 48.2228 85.5194 48.8659 85.9884 49.34C86.4574 49.8142 87.0935 50.0806 87.7568 50.0806C88.4201 50.0806 89.0562 49.8142 89.5252 49.34C89.9942 48.8659 90.2577 48.2228 90.2577 47.5522V34.2098H96.7114V47.5522C96.7102 47.8846 96.774 48.2139 96.8993 48.5213C97.0245 48.8286 97.2087 49.1078 97.4412 49.3428C97.6736 49.5779 97.9498 49.764 98.2538 49.8907C98.5578 50.0173 98.8836 50.0818 99.2123 50.0806C99.8284 50.1228 100.439 49.9408 100.934 49.5673C101.429 49.1939 101.775 48.6538 101.91 48.0446V48.092C101.535 46.8654 101.349 45.5879 101.357 44.3042C101.295 41.295 102.409 38.3822 104.458 36.1984C105.442 35.1207 106.642 34.2669 107.977 33.6939C109.313 33.1208 110.754 32.8416 112.204 32.8746C115.492 32.8746 118.049 34.2288 118.695 36.1605V24.7972H125.14V47.5238C125.138 48.1294 125.351 48.7156 125.74 49.1757C126.13 49.6358 126.669 49.9394 127.262 50.0311C127.854 50.1229 128.459 49.9967 128.967 49.6756C129.474 49.3545 129.851 48.8597 130.029 48.2814C129.601 46.9775 129.386 45.6118 129.392 44.2379C129.339 41.2555 130.442 38.3703 132.464 36.1984C133.448 35.1207 134.648 34.2669 135.984 33.6939C137.319 33.1208 138.76 32.8416 140.211 32.8746C143.498 32.8746 146.055 34.2288 146.702 36.1605V24.7972H153.155V47.5238C153.149 48.1366 153.364 48.7308 153.759 49.1958C154.153 49.6608 154.702 49.965 155.302 50.0518C155.902 50.1387 156.513 50.0022 157.021 49.6678C157.529 49.3335 157.899 48.8239 158.064 48.234V48.2814C157.599 46.995 157.365 45.6356 157.37 44.2663C157.341 42.716 157.638 41.1771 158.242 39.7517C158.846 38.3264 159.743 37.0473 160.874 35.9995C163.188 33.828 166.223 32.6118 169.38 32.5907C172.538 32.5697 175.588 33.7454 177.93 35.8859C178.815 34.903 179.894 34.1193 181.098 33.5858C182.302 33.0523 183.604 32.781 184.918 32.7894C186.311 32.7865 187.691 33.0715 188.971 33.6267C190.252 34.182 191.406 34.9959 192.365 36.0185C193.301 34.1246 195.699 32.7894 198.631 32.7894C203.867 32.7894 206.902 36.1984 206.902 41.9369V47.467C206.902 49.181 207.248 49.787 208.326 49.787H208.756L209 49.7775ZM89.78 27.7138C89.767 26.9751 89.9718 26.2492 90.3683 25.6285C90.7648 25.0079 91.335 24.5206 92.0064 24.2287C92.6778 23.9369 93.4199 23.8536 94.1383 23.9897C94.8566 24.1257 95.5186 24.4748 96.04 24.9925C96.5614 25.5102 96.9186 26.1731 97.066 26.8968C97.2135 27.6204 97.1445 28.3721 96.8679 29.0559C96.5913 29.7398 96.1196 30.325 95.5129 30.7369C94.9062 31.1489 94.192 31.3689 93.4612 31.369C92.9807 31.3727 92.5041 31.2806 92.0589 31.0979C91.6137 30.9151 91.2085 30.6454 90.8665 30.3041C90.5246 29.9628 90.2526 29.5567 90.0661 29.1089C89.8797 28.6612 89.7825 28.1807 89.78 27.6949" fill="#4EC0AD"/>
<path d="M2.01875 8.704H3.71075C5.12675 8.704 5.67875 8.056 5.67875 7.024C5.67875 5.944 5.12675 5.32 3.71075 5.32H2.01875V8.704ZM6.54275 7.024C6.54275 8.38 5.67875 9.424 3.71075 9.424H2.01875V13H1.17875V4.612H3.71075C5.65475 4.612 6.54275 5.644 6.54275 7.024ZM14.1202 9.724C14.1202 11.8 12.6682 13.096 10.8202 13.096C8.97219 13.096 7.56819 11.8 7.56819 9.724C7.56819 7.636 9.00819 6.352 10.8442 6.352C12.6922 6.352 14.1202 7.636 14.1202 9.724ZM8.42019 9.724C8.42019 11.524 9.57219 12.364 10.8202 12.364C12.0562 12.364 13.2562 11.524 13.2562 9.724C13.2562 7.924 12.0802 7.084 10.8322 7.084C9.58419 7.084 8.42019 7.924 8.42019 9.724ZM16.9234 13L14.8714 6.448H15.7234L17.3554 12.148L19.1914 6.448H20.0314L21.8434 12.16L23.4634 6.448H24.2914L22.2394 13H21.3994L19.5874 7.504L17.7754 13H16.9234ZM28.2326 7.072C27.0446 7.072 26.0006 7.84 25.9046 9.364H30.5126C30.5486 7.84 29.4446 7.072 28.2326 7.072ZM31.2686 10.924C30.9686 12.16 29.9126 13.096 28.2686 13.096C26.4086 13.096 25.0526 11.8 25.0526 9.724C25.0526 7.636 26.3846 6.352 28.2686 6.352C30.1886 6.352 31.3646 7.72 31.3646 9.388C31.3646 9.652 31.3646 9.82 31.3406 10.048H25.9046C25.9766 11.584 27.0446 12.388 28.2686 12.388C29.3846 12.388 30.1406 11.8 30.3806 10.924H31.2686ZM33.7414 9.34V13H32.9014V6.448H33.7414V7.612C34.1014 6.808 34.8574 6.328 35.9854 6.328V7.204H35.7574C34.6654 7.204 33.7414 7.696 33.7414 9.34ZM40.0451 7.072C38.8571 7.072 37.8131 7.84 37.7171 9.364H42.3251C42.3611 7.84 41.2571 7.072 40.0451 7.072ZM43.0811 10.924C42.7811 12.16 41.7251 13.096 40.0811 13.096C38.2211 13.096 36.8651 11.8 36.8651 9.724C36.8651 7.636 38.1971 6.352 40.0811 6.352C42.0011 6.352 43.1771 7.72 43.1771 9.388C43.1771 9.652 43.1771 9.82 43.1531 10.048H37.7171C37.7891 11.584 38.8571 12.388 40.0811 12.388C41.1971 12.388 41.9531 11.8 42.1931 10.924H43.0811ZM44.3299 9.712C44.3299 7.66 45.6619 6.352 47.4739 6.352C48.6499 6.352 49.6339 7 50.0539 7.864V4.12H50.8939V13H50.0539V11.536C49.6699 12.4 48.7579 13.096 47.4619 13.096C45.6619 13.096 44.3299 11.764 44.3299 9.712ZM50.0539 9.724C50.0539 8.092 48.9619 7.084 47.6179 7.084C46.2379 7.084 45.1819 8.044 45.1819 9.712C45.1819 11.368 46.2379 12.364 47.6179 12.364C48.9619 12.364 50.0539 11.356 50.0539 9.724ZM56.9325 7.9C57.3405 7.036 58.2525 6.352 59.5365 6.352C61.3365 6.352 62.6565 7.66 62.6565 9.712C62.6565 11.764 61.3245 13.096 59.5365 13.096C58.2285 13.096 57.3285 12.412 56.9325 11.56V13H56.1045V4.12H56.9325V7.9ZM61.8045 9.712C61.8045 8.044 60.7485 7.084 59.3685 7.084C58.0365 7.084 56.9325 8.092 56.9325 9.724C56.9325 11.356 58.0365 12.364 59.3685 12.364C60.7485 12.364 61.8045 11.368 61.8045 9.712ZM66.5782 12.04L68.7382 6.448H69.6022L65.7142 16.084H64.8382L66.1102 12.964L63.4222 6.448H64.3462L66.5782 12.04Z" fill="black"/>
</svg>
