<?xml version="1.0" encoding="UTF-8"?>
<svg version="1.1" xmlns="http://www.w3.org/2000/svg" width="200" height="200">
<path d="M0 0 C0.7528125 0.14824219 1.505625 0.29648437 2.28125 0.44921875 C5.34226561 1.6402125 6.52307374 2.63648815 8.5 5.3125 C9.11196046 8.60364693 9.05330495 11.86620671 9.0300293 15.20581055 C9.04312637 16.71120392 9.04312637 16.71120392 9.05648804 18.24700928 C9.08088868 21.56459365 9.07745195 24.88155599 9.07421875 28.19921875 C9.08665808 30.5004025 9.10099067 32.80157673 9.11714172 35.10273743 C9.15521286 41.16043045 9.1703645 47.21795982 9.17993164 53.27575684 C9.19965953 62.98346713 9.25636431 72.69105231 9.30869484 82.39863014 C9.32410162 85.79837248 9.33124325 89.19805292 9.33683777 92.5978241 C9.34385017 94.66767406 9.35095079 96.73752374 9.3581543 98.80737305 C9.35762558 99.76061966 9.35709686 100.71386627 9.35655212 101.69599915 C9.3605603 102.55825104 9.36456848 103.42050293 9.36869812 104.30888367 C9.3699554 105.06232402 9.37121267 105.81576437 9.37250805 106.59203625 C9.314104 108.34424322 9.314104 108.34424322 10.5 109.3125 C12.40243762 109.40641296 14.30838459 109.42993658 16.21313477 109.42602539 C18.04492027 109.42591209 18.04492027 109.42591209 19.91371155 109.42579651 C21.25627686 109.42068911 22.59884175 109.41547311 23.94140625 109.41015625 C25.30761158 109.40829199 26.67381757 109.40686813 28.0400238 109.40586853 C31.64201695 109.40204394 35.24397 109.39221417 38.84594727 109.38116455 C42.51903745 109.37094916 46.19213409 109.36637064 49.86523438 109.36132812 C57.07684123 109.35059184 64.288415 109.33351614 71.5 109.3125 C71.5 108.6525 71.5 107.9925 71.5 107.3125 C72.139375 107.18875 72.77875 107.065 73.4375 106.9375 C74.118125 106.73125 74.79875 106.525 75.5 106.3125 C75.83 105.6525 76.16 104.9925 76.5 104.3125 C77.16 104.3125 77.82 104.3125 78.5 104.3125 C80.66449052 99.57767698 81.15651381 96.28204142 79.5 91.3125 C78.84 90.6525 78.18 89.9925 77.5 89.3125 C77.108125 88.714375 76.71625 88.11625 76.3125 87.5 C74.21459757 84.96804879 71.93677765 83.37657277 69.21875 81.55859375 C67.5 80.3125 67.5 80.3125 65.94921875 78.7578125 C64.42804545 77.118086 64.42804545 77.118086 61.8125 75.75 C61.049375 75.275625 60.28625 74.80125 59.5 74.3125 C59.5 73.6525 59.5 72.9925 59.5 72.3125 C56.84771188 71.23724806 54.21631546 70.21793849 51.5 69.3125 C51.5 68.6525 51.5 67.9925 51.5 67.3125 C49.52 66.8175 49.52 66.8175 47.5 66.3125 C47.5 65.6525 47.5 64.9925 47.5 64.3125 C46.2934375 64.126875 46.2934375 64.126875 45.0625 63.9375 C44.216875 63.73125 43.37125 63.525 42.5 63.3125 C42.17 62.6525 41.84 61.9925 41.5 61.3125 C40.8915625 61.02117187 40.283125 60.72984375 39.65625 60.4296875 C37.11980957 59.11551728 35.81870895 57.6282176 34 55.4375 C32.16316133 53.2520928 30.42183648 51.24103621 28.3125 49.3125 C22.82267932 43.25476684 21.21695907 36.05828797 21.26953125 28.109375 C21.58701676 24.25649998 22.72185387 21.72654057 24.5 18.3125 C24.995 16.8275 24.995 16.8275 25.5 15.3125 C30.96511628 10.3125 30.96511628 10.3125 33.5 10.3125 C33.5 9.6525 33.5 8.9925 33.5 8.3125 C46.45188963 0.56586152 59.82951209 -2.79663379 74.9453125 0.58984375 C86.24099374 3.78510526 95.8344224 9.38429758 102.5 19.3125 C104.64510942 23.93163562 105.79420171 27.69439057 104.875 32.75 C103.03858679 36.17240644 101.63207741 37.68356811 98.25 39.5625 C93.66188462 40.81380419 89.96126395 40.04313197 85.75 37.9375 C85.0075 37.40125 84.265 36.865 83.5 36.3125 C82.63375 35.69375 82.63375 35.69375 81.75 35.0625 C79.82379185 32.36580859 79.84741238 29.5550155 79.5 26.3125 C79.005 24.8275 79.005 24.8275 78.5 23.3125 C77.84 23.3125 77.18 23.3125 76.5 23.3125 C76.5 22.6525 76.5 21.9925 76.5 21.3125 C68.56552673 18.63042453 61.8319783 17.32869564 53.5 19.3125 C53.17 19.9725 52.84 20.6325 52.5 21.3125 C51.015 21.8075 51.015 21.8075 49.5 22.3125 C49.005 23.7975 49.005 23.7975 48.5 25.3125 C47.84 25.3125 47.18 25.3125 46.5 25.3125 C45.184159 30.0697713 45.28370292 32.59456872 47.625 37 C49.83690317 40.58752515 51.97509732 42.93524005 55.5 45.3125 C56.73205071 46.24620659 57.96091462 47.18412527 59.1875 48.125 C63.88344916 51.62943967 68.68504056 54.97439786 73.5 58.3125 C74.61733801 59.09223229 75.73451815 59.87219083 76.8515625 60.65234375 C78.00511466 61.45586366 79.15875951 62.25925052 80.3125 63.0625 C81.37082031 63.79984375 82.42914063 64.5371875 83.51953125 65.296875 C86.3866667 67.299139 86.3866667 67.299139 89.1015625 68.7578125 C97.11884664 73.95468398 102.74655971 83.38457157 105.05859375 92.51953125 C106.1899007 99.1790804 104.4939791 105.3245418 101.5 111.3125 C100.84 111.3125 100.18 111.3125 99.5 111.3125 C99.21125 111.910625 98.9225 112.50875 98.625 113.125 C96.07499974 118.08333385 93.06517418 119.92652935 88.25 122.375 C87.29480469 122.9019043 87.29480469 122.9019043 86.3203125 123.43945312 C74.97583062 129.23214706 61.51100725 128.61746244 49.06640625 128.578125 C47.53376708 128.57947686 46.00112833 128.58142169 44.4684906 128.58392334 C41.28599895 128.58684393 38.10362086 128.58267296 34.92114258 128.57324219 C30.85738759 128.56178087 26.79389495 128.56846846 22.73014927 128.58038712 C19.57732684 128.58763115 16.4245662 128.5853073 13.27174187 128.58013153 C11.77313136 128.57880559 10.2745151 128.58040538 8.77591133 128.58509064 C6.68322056 128.59020574 4.59095065 128.58237963 2.49829102 128.57128906 C1.31251968 128.56969788 0.12674835 128.56810669 -1.09495544 128.56646729 C-6.07389741 128.19510992 -9.95147393 127.56030931 -13.9021759 124.3768158 C-16.31711947 119.74542381 -16.08182267 115.43583141 -16.06518555 110.28344727 C-16.0770137 109.17069427 -16.08884186 108.05794128 -16.10102844 106.91146851 C-16.1339222 103.23374716 -16.13687234 99.55676502 -16.13671875 95.87890625 C-16.14703161 93.32209469 -16.15809445 90.76528605 -16.1698761 88.20848083 C-16.18931479 82.84942889 -16.19295122 77.49065061 -16.1862793 72.1315918 C-16.17903709 65.94465127 -16.21246283 59.75884989 -16.26533669 53.57215649 C-16.31443884 47.61072684 -16.3246118 41.64964686 -16.31989479 35.68800163 C-16.32276923 33.15582485 -16.33686409 30.62363509 -16.36237144 28.09158516 C-16.39429766 24.55044065 -16.381817 21.01209736 -16.3581543 17.47094727 C-16.37703705 16.42503922 -16.3959198 15.37913116 -16.41537476 14.30152893 C-16.30557735 7.39681923 -16.30557735 7.39681923 -14.02491188 4.3270092 C-9.62084367 0.35438748 -5.8967157 -1.26213949 0 0 Z " fill="#26C8B3" transform="translate(54.5,17.6875)"/>
<path d="M0 0 C3.62484999 -0.08681476 7.24943443 -0.14032721 10.875 -0.1875 C12.42380859 -0.22520508 12.42380859 -0.22520508 14.00390625 -0.26367188 C14.99003906 -0.27333984 15.97617188 -0.28300781 16.9921875 -0.29296875 C17.90339355 -0.3086792 18.81459961 -0.32438965 19.75341797 -0.34057617 C20.49479004 -0.22818604 21.23616211 -0.1157959 22 0 C24.20192224 3.30288336 24.23959968 4.27462727 24.1953125 8.10546875 C24.18886719 9.08837891 24.18242188 10.07128906 24.17578125 11.08398438 C24.15902344 12.10814453 24.14226562 13.13230469 24.125 14.1875 C24.11597656 15.22326172 24.10695313 16.25902344 24.09765625 17.32617188 C24.0740786 19.88434685 24.0411703 22.44205748 24 25 C22.0625 25.5625 22.0625 25.5625 20 26 C18.41596476 24.41596476 18.78025065 22.7228362 18.68359375 20.52734375 C18.64169922 19.62822266 18.59980469 18.72910156 18.55664062 17.80273438 C18.51732422 16.85720703 18.47800781 15.91167969 18.4375 14.9375 C18.39431641 13.98810547 18.35113281 13.03871094 18.30664062 12.06054688 C18.20020724 9.70718647 18.09818992 7.35371646 18 5 C16.68 5.33 15.36 5.66 14 6 C13.67 12.6 13.34 19.2 13 26 C11.68 26 10.36 26 9 26 C8.67 19.4 8.34 12.8 8 6 C6.68 5.67 5.36 5.34 4 5 C3.67 11.6 3.34 18.2 3 25 C1.68 25.33 0.36 25.66 -1 26 C-3.34527304 23.65472696 -2.18541859 17.8366726 -2.1875 14.6875 C-2.20586914 13.24213867 -2.20586914 13.24213867 -2.22460938 11.76757812 C-2.22654297 10.83751953 -2.22847656 9.90746094 -2.23046875 8.94921875 C-2.23457764 8.09674561 -2.23868652 7.24427246 -2.24291992 6.3659668 C-1.98180606 3.82279653 -1.27889646 2.19379688 0 0 Z " fill="#55504C" transform="translate(68,156)"/>
<path d="M0 0 C0.7528125 -0.0103125 1.505625 -0.020625 2.28125 -0.03125 C5.50562962 0.74078456 6.59098698 1.7831641 8.5 4.5 C8.92806075 7.47280809 9.10551118 9.97478876 9.0625 12.9375 C9.08634766 13.68837891 9.11019531 14.43925781 9.13476562 15.21289062 C9.12368928 19.41082446 8.83489024 21.06684517 6.18359375 24.49609375 C3.5 26.5 3.5 26.5 0 27.125 C-4.49643857 26.32206454 -5.72150038 25.09377606 -8.5 21.5 C-9.18818284 18.61963937 -9.15613594 15.88576662 -9.0625 12.9375 C-9.07345703 12.18275391 -9.08441406 11.42800781 -9.09570312 10.65039062 C-9.04923239 7.13410471 -8.78710102 4.90859143 -6.74609375 2.00390625 C-4.24757813 0.33098709 -2.98015336 -0.04082402 0 0 Z M-3.5 5.5 C-3.5 10.45 -3.5 15.4 -3.5 20.5 C-1.52 21.49 -1.52 21.49 0.5 22.5 C1.49 21.84 2.48 21.18 3.5 20.5 C3.72137393 17.87302936 3.78162025 15.49106036 3.6875 12.875 C3.67396484 12.16859375 3.66042969 11.4621875 3.64648438 10.734375 C3.6111104 8.98925872 3.55730221 7.24453392 3.5 5.5 C-0.08327753 4.49782936 -0.08327753 4.49782936 -3.5 5.5 Z " fill="#605B58" transform="translate(140.5,155.5)"/>
<path d="M0 0 C0.77085937 -0.04898438 1.54171875 -0.09796875 2.3359375 -0.1484375 C4.625 0.375 4.625 0.375 6.8984375 2.25390625 C9.383319 6.74580742 9.06018418 10.64835345 8.875 15.6875 C8.85695312 16.61884766 8.83890625 17.55019531 8.8203125 18.50976562 C8.77334888 20.79924197 8.70769475 23.08658184 8.625 25.375 C6.6875 25.9375 6.6875 25.9375 4.625 26.375 C3.07549732 24.82549732 3.40844807 23.27509406 3.30859375 21.12109375 C3.26669922 20.26708984 3.22480469 19.41308594 3.18164062 18.53320312 C3.12266602 17.18645508 3.12266602 17.18645508 3.0625 15.8125 C3.01931641 14.91080078 2.97613281 14.00910156 2.93164062 13.08007812 C2.82521858 10.84521515 2.72320012 8.61023692 2.625 6.375 C0.67896726 5.78429986 0.67896726 5.78429986 -1.375 5.375 C-2.92450268 6.92450268 -2.59155193 8.47490594 -2.69140625 10.62890625 C-2.73330078 11.48291016 -2.77519531 12.33691406 -2.81835938 13.21679688 C-2.87733398 14.56354492 -2.87733398 14.56354492 -2.9375 15.9375 C-2.98068359 16.83919922 -3.02386719 17.74089844 -3.06835938 18.66992188 C-3.17478142 20.90478485 -3.27679988 23.13976308 -3.375 25.375 C-4.695 25.705 -6.015 26.035 -7.375 26.375 C-9.12854414 22.86791173 -8.55964284 18.86288251 -8.5625 15 C-8.57474609 14.13632813 -8.58699219 13.27265625 -8.59960938 12.3828125 C-8.60154297 11.5475 -8.60347656 10.7121875 -8.60546875 9.8515625 C-8.61163208 8.7080835 -8.61163208 8.7080835 -8.61791992 7.54150391 C-8.34087619 5.07066359 -7.68586798 3.47918949 -6.375 1.375 C-4.08773777 0.23136888 -2.54647573 0.10998068 0 0 Z " fill="#6A6663" transform="translate(159.375,155.625)"/>
<path d="M0 0 C1.65 0 3.3 0 5 0 C4.67 6.6 4.34 13.2 4 20 C4.66 20 5.32 20 6 20 C6 20.66 6 21.32 6 22 C6.99 22 7.98 22 9 22 C9 21.34 9 20.68 9 20 C9.66 20 10.32 20 11 20 C11 13.73 11 7.46 11 1 C12.65 0.67 14.3 0.34 16 0 C16.14533755 3.582906 16.23407931 7.16505417 16.3125 10.75 C16.35439453 11.76578125 16.39628906 12.7815625 16.43945312 13.828125 C16.56307019 21.34404238 16.56307019 21.34404238 13.703125 24.67578125 C10.19174911 26.3959495 7.86525251 26.49194123 4 26 C0.8149643 24.23984869 0.16703028 23.50109084 -1 20 C-1.09188685 18.53085066 -1.13066715 17.05795597 -1.1328125 15.5859375 C-1.13410156 14.74289063 -1.13539062 13.89984375 -1.13671875 13.03125 C-1.13285156 12.1546875 -1.12898438 11.278125 -1.125 10.375 C-1.12886719 9.49070313 -1.13273437 8.60640625 -1.13671875 7.6953125 C-1.13542969 6.85484375 -1.13414063 6.014375 -1.1328125 5.1484375 C-1.13168457 4.37677246 -1.13055664 3.60510742 -1.12939453 2.81005859 C-1 1 -1 1 0 0 Z " fill="#5E5956" transform="translate(47,156)"/>
<path d="M0 0 C1.60332791 -0.08121924 3.20784026 -0.13929134 4.8125 -0.1875 C6.15248047 -0.23970703 6.15248047 -0.23970703 7.51953125 -0.29296875 C10 0 10 0 11.84375 1.34375 C13 3 13 3 12.6875 5.6875 C12.460625 6.450625 12.23375 7.21375 12 8 C11.01 8 10.02 8 9 8 C8.34 7.01 7.68 6.02 7 5 C6.01 5 5.02 5 4 5 C4.26676204 6.98491642 4.26676204 6.98491642 5 9 C5.99 9.33 6.98 9.66 8 10 C12.7804878 14.7804878 12.7804878 14.7804878 13.5625 19.125 C13 22 13 22 11.4375 24.375 C8.06489221 26.62340519 5.97487617 26.56783945 2 26 C-0.4375 24.25 -0.4375 24.25 -2 22 C-2 20.68 -2 19.36 -2 18 C-0.68 17.67 0.64 17.34 2 17 C2.33 18.32 2.66 19.64 3 21 C4.65 20.67 6.3 20.34 8 20 C6.89110508 16.67331524 5.308791 15.4644055 2.4375 13.6875 C-0.62280949 11.62179109 -0.93488075 11.218341 -2.0625 7.4375 C-2.00144377 4.07940747 -1.5762167 2.82482757 0 0 Z " fill="#615C59" transform="translate(96,156)"/>
<path d="M0 0 C1.65 0 3.3 0 5 0 C5 7.26 5 14.52 5 22 C7.64 22 10.28 22 13 22 C12.67 23.32 12.34 24.64 12 26 C10.18757948 26.02687279 8.37504767 26.04633715 6.5625 26.0625 C5.55316406 26.07410156 4.54382812 26.08570313 3.50390625 26.09765625 C1 26 1 26 0 25 C-0.08737645 23.14630389 -0.10698153 21.28932459 -0.09765625 19.43359375 C-0.09443359 18.30888672 -0.09121094 17.18417969 -0.08789062 16.02539062 C-0.07951172 14.84138672 -0.07113281 13.65738281 -0.0625 12.4375 C-0.05798828 11.24962891 -0.05347656 10.06175781 -0.04882812 8.83789062 C-0.03699675 5.89187774 -0.02051287 2.94596319 0 0 Z " fill="#676360" transform="translate(31,156)"/>
<path d="M0 0 C5.28 0 10.56 0 16 0 C16.33 0.99 16.66 1.98 17 3 C14.69 3.33 12.38 3.66 10 4 C10 11.26 10 18.52 10 26 C8.68 26 7.36 26 6 26 C6 18.74 6 11.48 6 4 C4.02 4 2.04 4 0 4 C0 2.68 0 1.36 0 0 Z " fill="#5C5753" transform="translate(113,156)"/>
<path d="M0 0 C3.3 0 6.6 0 10 0 C10 0.33 10 0.66 10 1 C8.906875 1.12375 7.81375 1.2475 6.6875 1.375 C2.92618198 1.75464801 2.92618198 1.75464801 0 4 C0 2.68 0 1.36 0 0 Z " fill="#7A7674" transform="translate(68,156)"/>
</svg>
