<svg width="17" height="16" viewBox="0 0 17 16" fill="none" xmlns="http://www.w3.org/2000/svg">
<path d="M8.5 0C12.9183 0 16.5 3.58172 16.5 8C16.5 12.4183 12.9183 16 8.5 16C7.22679 16 5.99591 15.7018 4.88669 15.1393L4.766 15.075L1.12109 15.9851C0.811269 16.0625 0.526224 15.8369 0.50131 15.5438L0.501141 15.4624L0.514933 15.3787L1.425 11.735L1.36169 11.6153C0.906602 10.7186 0.624331 9.74223 0.532747 8.72826L0.507376 8.34634L0.5 8C0.5 3.58172 4.08172 0 8.5 0ZM8.5 1C4.63401 1 1.5 4.13401 1.5 8C1.5 9.21704 1.81054 10.3878 2.39352 11.4249C2.44046 11.5084 2.4621 11.603 2.45692 11.6973L2.44274 11.7912L1.687 14.812L4.71104 14.0583C4.77294 14.0429 4.83662 14.0396 4.89873 14.0479L4.9903 14.0691L5.07701 14.1075C6.11362 14.6898 7.2837 15 8.5 15C12.366 15 15.5 11.866 15.5 8C15.5 4.13401 12.366 1 8.5 1ZM9 9C9.27614 9 9.5 9.22386 9.5 9.5C9.5 9.74546 9.32312 9.94961 9.08988 9.99194L9 10H6C5.72386 10 5.5 9.77614 5.5 9.5C5.5 9.25454 5.67688 9.05039 5.91012 9.00806L6 9H9ZM11 6C11.2761 6 11.5 6.22386 11.5 6.5C11.5 6.74546 11.3231 6.94961 11.0899 6.99194L11 7H6C5.72386 7 5.5 6.77614 5.5 6.5C5.5 6.25454 5.67688 6.05039 5.91012 6.00806L6 6H11Z" fill="#333333"/>
</svg>
