<?xml version="1.0" encoding="UTF-8"?><svg id="uuid-4bd0487f-6445-4258-9cc8-3a20df4e3d01" xmlns="http://www.w3.org/2000/svg" viewBox="0 0 41 36.89"><defs><style>.uuid-4bd6ee3d-dcee-4820-9be7-c06a08d760cb{stroke-miterlimit:10;}.uuid-4bd6ee3d-dcee-4820-9be7-c06a08d760cb,.uuid-3e4f8655-54cf-4038-988f-f153d0481f46{fill:#fff;stroke:#fff;}.uuid-3e4f8655-54cf-4038-988f-f153d0481f46{stroke-miterlimit:3.86;stroke-width:.03px;}</style></defs><path class="uuid-4bd6ee3d-dcee-4820-9be7-c06a08d760cb" d="M28.9,17.97l-.05-.09c-8.47-4.26-16-.4-16.73,0l-.07.11-.02.11c.53,9.06,7.65,13.27,8.41,13.7h.12c7.96-4.61,8.32-13.01,8.33-13.82ZM38.33,32.08v-.04c-.5-8.71-7.37-12.88-7.37-12.88l-.05-.04c-.39,3.61-2.19,10.63-10.17,14.88-11.03,5.59-20.23-.45-20.23-.45-.32-10.44,8.04-15.87,8.04-15.87-7.06,6.58-5.92,14.7-5.92,14.7,0,0,.2.09.3.15,8.2,3.97,15.43.37,15.43.37l.06-.03c-3.1-1.95-8.36-6.57-8.46-15.9C10.4,5.07,20.49.55,20.49.55c9.65,4.95,10.4,14.57,10.4,14.57-2.44-9.12-10.4-12.24-10.4-12.24,0,0-.18.12-.28.17-7.7,4.79-8.05,12.55-8.05,12.55,0,0,8.69-4.55,18.84,1.2,10.55,6.31,9.48,16.75,9.48,16.75-9.32,5.49-18.44,1.3-18.44,1.3,9.5,2.54,16.32-2.47,16.32-2.47,0,0-.01-.21-.01-.32Z"/><path class="uuid-3e4f8655-54cf-4038-988f-f153d0481f46" d="M28.9,17.97l-.05-.09c-8.47-4.26-16-.4-16.73,0l-.07.11-.02.11c.53,9.06,7.65,13.27,8.41,13.7h.12c7.96-4.61,8.32-13.01,8.33-13.82ZM38.33,32.08v-.04c-.5-8.71-7.37-12.88-7.37-12.88l-.05-.04c-.39,3.61-2.19,10.63-10.17,14.88-11.03,5.59-20.23-.45-20.23-.45-.32-10.44,8.04-15.87,8.04-15.87-7.06,6.58-5.92,14.7-5.92,14.7,0,0,.2.09.3.15,8.2,3.97,15.43.37,15.43.37l.06-.03c-3.1-1.95-8.36-6.57-8.46-15.9C10.4,5.07,20.49.55,20.49.55c9.65,4.95,10.4,14.57,10.4,14.57-2.44-9.12-10.4-12.24-10.4-12.24,0,0-.18.12-.28.17-7.7,4.79-8.05,12.55-8.05,12.55,0,0,8.69-4.55,18.84,1.2,10.55,6.31,9.48,16.75,9.48,16.75-9.32,5.49-18.44,1.3-18.44,1.3,9.5,2.54,16.32-2.47,16.32-2.47,0,0-.01-.21-.01-.32Z"/></svg>