<svg xmlns="http://www.w3.org/2000/svg" viewBox="0 0 194.51 52.77"><defs><style>.cls-1{fill:#fff;}.cls-2{fill:#47bfaf;}</style></defs><g id="Layer_2" data-name="Layer 2"><g id="Layer_1-2" data-name="Layer 1"><path class="cls-1" d="M83.92,28.83v-.09a2.23,2.23,0,0,1,.72-1.58L99.42,9.81H85.77a1.47,1.47,0,0,1-1.49-1.45,1.51,1.51,0,0,1,1.49-1.49h16.68a1.54,1.54,0,0,1,1.67,1.4v.09a2.23,2.23,0,0,1-.72,1.58L88.62,27.3h14.23a1.49,1.49,0,0,1,1.5,1.44,1.51,1.51,0,0,1-1.5,1.49H85.59A1.57,1.57,0,0,1,83.92,28.83Z"/><path class="cls-1" d="M108.82,36.92a1.58,1.58,0,0,1-1.08-1.49,1.5,1.5,0,0,1,1.49-1.49,2.63,2.63,0,0,1,.86.18,7.11,7.11,0,0,0,2.53.41c2.17,0,3.44-1.31,4.7-4.16l.18-.36-9.76-20.7a2.36,2.36,0,0,1-.23-1,1.73,1.73,0,0,1,1.77-1.72A1.84,1.84,0,0,1,111,8l8.13,18.35L126.4,8a1.75,1.75,0,0,1,1.68-1.31,1.72,1.72,0,0,1,1.71,1.72,2.94,2.94,0,0,1-.18.86L120.48,31c-2,4.84-4.29,6.6-7.81,6.6A11,11,0,0,1,108.82,36.92Z"/><path class="cls-2" d="M141.56,28,131.29,3.9A2.88,2.88,0,0,1,131,2.68,2.54,2.54,0,0,1,133.6.17,2.69,2.69,0,0,1,136.24,2l8.46,21.17,8.59-21.34A2.68,2.68,0,0,1,155.77.17a2.49,2.49,0,0,1,2.55,2.47,3.06,3.06,0,0,1-.25,1.09L147.76,28a3.07,3.07,0,0,1-3,2.1h-.29A3.05,3.05,0,0,1,141.56,28Z"/><path class="cls-2" d="M182.86,23.36v-12H182a2.26,2.26,0,0,1,0-4.51h.87V2.91a2.62,2.62,0,0,1,5.24,0v3.9h4.12a2.26,2.26,0,1,1,0,4.51H188.1V22.54c0,2,1,2.86,2.81,2.86a12.8,12.8,0,0,0,1.31-.13,2.2,2.2,0,0,1,2.2,2.16,2.24,2.24,0,0,1-1.38,2,10.45,10.45,0,0,1-3.6.61C185.59,30.08,182.86,28.39,182.86,23.36Z"/><path class="cls-1" d="M76.72,15.35a1.4,1.4,0,0,1-1.19,1.88H68.18a1.23,1.23,0,0,0,0,2.46H78.81a1.56,1.56,0,0,0,1.56-1.56c0-5.92-3.76-11.32-10.38-11.32-6.18,0-10.72,5.19-10.72,11.63v.08c0,6.92,5,11.63,11.16,11.63a11.38,11.38,0,0,0,8.43-3.37,1.42,1.42,0,0,0-1-2.51,1.51,1.51,0,0,0-1,.39,9.14,9.14,0,0,1-6.44,2.6A7.62,7.62,0,0,1,63,21.43h0v0h0a11.4,11.4,0,0,1-.1-5.46h0c.83-3.7,3.55-6.32,7-6.32a6.73,6.73,0,0,1,6.58,4.94l.08.24C76.62,15,76.68,15.16,76.72,15.35Z"/><path class="cls-2" d="M176.2,20.26a2.39,2.39,0,0,0,2.38-2.46c0-5.16-3.47-11-10.5-11-6.31,0-10.79,5.25-10.79,11.64v.09c0,6.9,4.94,11.6,11.34,11.6a11.25,11.25,0,0,0,7.94-3,2.23,2.23,0,0,0,.67-1.56,2,2,0,0,0-2-2.08,1.84,1.84,0,0,0-1.29.47,7.93,7.93,0,0,1-5.23,1.94,6.09,6.09,0,0,1-6.17-4.76l0-.12a1.55,1.55,0,0,1,0-.23l0-.13a9.46,9.46,0,0,1-.06-4.22h0C163,13.21,165.07,11,168,11a5.78,5.78,0,0,1,5.78,4.53c.15,1.21-1,1.35-1.35,1.36h-4.29a1.69,1.69,0,0,0,0,3.38h8Z"/><path class="cls-2" d="M35.6,9.2C34.94,3.42,31,0,24.75,0h0a10.74,10.74,0,0,0-7.64,3.16,11.73,11.73,0,0,0-3.39,8.37v3.11c0,4-3.29,3.69-3.29,3.69h-1a1.68,1.68,0,0,0,0,3.36h2.62c1.72,0,5-1.91,5-6.51V11.53a8.41,8.41,0,0,1,2.4-6,7.41,7.41,0,0,1,5.26-2.17h0c5,0,7.54,2.52,7.59,7.47l0,1.66H34c3.61,0,7.92,1.18,7.92,6.82a7.57,7.57,0,0,1-3.69,6.48,5.42,5.42,0,0,0,.07-.81,4.94,4.94,0,0,0-3.86-4.82,4.93,4.93,0,0,0-9.62,0A5,5,0,0,0,21,25a4.85,4.85,0,0,0,.42,1.93H10a6.61,6.61,0,0,1-6.61-6.61c0-3.79,2.57-6.55,6.13-6.55a1.69,1.69,0,0,0,0-3.37c-5.42,0-9.5,4.27-9.5,9.92a10,10,0,0,0,10,10H25a4.9,4.9,0,0,0,9.31,0h0a11,11,0,0,0,11-11C45.31,13.43,41.71,9.74,35.6,9.2ZM31.46,28.72a1.81,1.81,0,0,1-3.62,0V26.8H25.91a1.81,1.81,0,1,1,0-3.62h1.93V21.25a1.81,1.81,0,0,1,3.62,0v1.93h1.93a1.81,1.81,0,1,1,0,3.62H31.46Z"/><polygon class="cls-1" points="157.14 45.93 159.3 45.93 159.3 52.76 157.14 52.76 157.14 45.93 157.14 45.93 157.14 45.93 157.14 45.93"/><polygon class="cls-1" points="170.03 52.76 177.49 52.76 177.49 51.12 172.13 51.12 172.13 49.74 170.03 49.74 170.03 52.76 170.03 52.76 170.03 52.76 170.03 52.76"/><path class="cls-1" d="M165.64,51h-3.38V49.83h-2.1v2.93H166c2.09,0,3.34-.94,3.34-2.63v-.3h-2.1c0,.93-.7,1.18-1.58,1.18Z"/><path class="cls-1" d="M162.26,47.63h3.38c.87,0,1.55.25,1.58,1.17h2.1v-.24c0-1.69-1.25-2.63-3.34-2.63h-5.82V48.8h2.1V47.63Z"/><polygon class="cls-1" points="177.49 47.52 177.49 45.93 170.03 45.93 170.03 48.8 172.13 48.8 172.13 47.52 177.49 47.52 177.49 47.52"/><polygon class="cls-1" points="172.85 48.7 177.4 48.7 177.4 49.92 172.85 49.92 172.85 48.7 172.85 48.7"/><polygon class="cls-1" points="191.72 49.83 188 49.83 185.95 52.07 183.89 49.83 180.18 49.83 177.49 52.76 180.24 52.76 182.03 50.65 183.83 52.76 188.07 52.76 189.86 50.65 191.65 52.77 194.47 52.77 191.72 49.83 191.72 49.83"/><polygon class="cls-1" points="185.95 46.63 187.94 48.8 191.78 48.8 194.4 45.93 191.65 45.93 189.86 48.05 188.07 45.93 183.83 45.93 182.03 48.05 180.24 45.93 177.49 45.93 180.12 48.8 183.96 48.8 185.95 46.63 185.95 46.63"/><path class="cls-1" d="M107.64,47.76h1.7a1.42,1.42,0,0,1,1.59,1.44h0a1.49,1.49,0,0,1-1.68,1.46h-.7v1.25h-.91Zm1.64,2.1a.64.64,0,0,0,.72-.63v0c0-.41-.28-.63-.74-.63h-.71v1.28Z"/><path class="cls-1" d="M111.87,49.85h0a2.21,2.21,0,0,1,4.42,0h0a2.21,2.21,0,0,1-4.42,0Zm3.47,0h0a1.27,1.27,0,0,0-1.27-1.31,1.25,1.25,0,0,0-1.25,1.3h0a1.27,1.27,0,0,0,1.27,1.31A1.26,1.26,0,0,0,115.34,49.85Z"/><path class="cls-1" d="M117,47.76h1l.86,2.82.94-2.84h.78l.94,2.84.86-2.82h1L121.89,52h-.8l-.94-2.72L119.21,52h-.8Z"/><path class="cls-1" d="M124.43,47.76h3.14v.81h-2.23v.85h2v.81h-2v.88h2.26v.81h-3.17Z"/><path class="cls-1" d="M128.85,47.76h1.91a1.62,1.62,0,0,1,1.21.42,1.31,1.31,0,0,1,.36,1h0a1.29,1.29,0,0,1-.89,1.29l1,1.49h-1.07l-.89-1.33h-.72v1.33h-.92Zm1.85,2c.45,0,.7-.24.7-.59h0c0-.4-.27-.6-.72-.6h-.91v1.2Z"/><path class="cls-1" d="M133.6,47.76h3.14v.81h-2.23v.85h2v.81h-2v.88h2.26v.81H133.6Z"/><path class="cls-1" d="M138,47.76h1.62a2.07,2.07,0,0,1,2.21,2.07h0a2.08,2.08,0,0,1-2.21,2.08H138Zm.91.82v2.51h.71a1.19,1.19,0,0,0,1.26-1.24h0a1.2,1.2,0,0,0-1.26-1.26Z"/><path class="cls-1" d="M145.35,47.76h1.93a1.54,1.54,0,0,1,1.09.36,1,1,0,0,1,.29.71h0a1,1,0,0,1-.55.9,1,1,0,0,1,.78,1h0c0,.76-.62,1.14-1.56,1.14h-2Zm2.4,1.23c0-.28-.22-.43-.6-.43h-.91v.88h.85c.4,0,.66-.13.66-.44Zm-.45,1.21h-1.06v.92h1.09c.4,0,.65-.15.65-.46h0C148,50.37,147.77,50.2,147.3,50.2Z"/><path class="cls-1" d="M151.08,50.28l-1.6-2.52h1.07l1,1.67,1-1.67h1l-1.6,2.5v1.66h-.92Z"/></g></g></svg>

