<svg xmlns="http://www.w3.org/2000/svg" xmlns:xlink="http://www.w3.org/1999/xlink" width="138" height="70" viewBox="0 0 138 70">
    <defs>
        <path id="a" d="M137.383.681v29.17H0V.68z"/>
        <path id="c" d="M0 55.663h137.383V.413H.001z"/>
        <path id="e" d="M0 .464h137.383v19.562H0z"/>
        <path id="g" d="M77.503.095v10.034H.532V.095h76.971z"/>
        <path id="i" d="M82.564.24v11.627H.38V.24z"/>
    </defs>
    <g fill="none" fill-rule="evenodd">
        <g transform="translate(0 2.067)">
            <mask id="b" fill="#fff">
                <use xlink:href="#a"/>
            </mask>
            <path fill="#FEFEFE" d="M94.446.683c13.16-.089 28.578 2.985 42.938 6.963V22.24c-17.003-5.346-36.931-10.156-53.343-10.045-38.194.26-43.597 13.132-72.671 16.93-3.935.513-7.735.731-11.37.725V17.71c6.537.777 13.888.933 21.775-.096C50.85 13.814 56.253.944 94.445.683" mask="url(#b)"/>
        </g>
        <g transform="translate(0 13.874)">
            <mask id="d" fill="#fff">
                <use xlink:href="#c"/>
            </mask>
            <path fill="#ED7D10" d="M137.384 55.663V10.456C120.381 5.113 100.453.303 84.041.414c-38.194.26-43.596 13.132-72.671 16.93A86.561 86.561 0 0 1 0 18.068v37.594h137.384z" mask="url(#d)"/>
        </g>
        <g transform="translate(0 .38)">
            <mask id="f" fill="#fff">
                <use xlink:href="#e"/>
            </mask>
            <path fill="#ED7D10" d="M94.446 2.37c13.16-.089 28.578 2.985 42.938 6.963V.463H0v18.933c6.537.778 13.888.934 21.775-.096C50.85 15.501 56.253 2.63 94.445 2.37" mask="url(#f)"/>
        </g>
        <path fill="#ED7D10" d="M0 22.561v2.045c5.151.312 10.71.201 16.564-.563 7.064-.923 12.729-2.382 17.807-4.065-3.727 1.008-7.837 1.869-12.578 2.49-7.894 1.03-15.252.873-21.792.093M0 27.392v1.738c3.63.004 7.424-.211 11.353-.725 7.063-.923 12.728-2.382 17.807-4.065a94.47 94.47 0 0 1-12.579 2.488 87.137 87.137 0 0 1-16.58.564"/>
        <g transform="translate(59.88 5.44)">
            <mask id="h" fill="#fff">
                <use xlink:href="#g"/>
            </mask>
            <path fill="#ED7D10" d="M29.355 1.672c14.768-.1 32.381 3.784 48.15 8.457V7.054C63.15 3.08 47.737.007 34.583.097 19.096.202 9.001 2.38.532 5.188c7.431-2.01 16.388-3.43 28.823-3.516" mask="url(#h)"/>
        </g>
        <g transform="translate(54.82 9.657)">
            <mask id="j" fill="#fff">
                <use xlink:href="#i"/>
            </mask>
            <path fill="#ED7D10" d="M29.204 1.818c16.418-.112 36.354 4.702 53.36 10.05V8.694C66.802 4.023 49.195.142 34.433.242 18.945.348 8.85 2.527.38 5.334c7.432-2.01 16.39-3.431 28.824-3.516" mask="url(#j)"/>
        </g>
        <path fill="#006770" d="M20.01 43.42v-1.86c0-4.582-2.622-7.979-7.257-7.979-4.316 0-7.257 3.077-7.257 8.525 0 6.762 3.772 8.557 7.705 8.557 3.005 0 4.636-.93 6.33-2.628l-2.526-2.468c-1.055 1.058-1.95 1.57-3.772 1.57-2.334 0-3.645-1.57-3.645-3.717H20.01zm-4.092-2.852h-6.33c.032-.737.128-1.186.384-1.795.447-.994 1.375-1.73 2.78-1.73 1.408 0 2.335.736 2.782 1.73.257.609.352 1.058.384 1.795zm20.14 4.647c0-2.82-1.662-4.583-4.955-4.905l-2.622-.255c-1.47-.128-1.726-.834-1.726-1.442 0-.834.703-1.604 2.366-1.604 1.438 0 2.909.258 3.869 1.123l2.556-2.596c-1.598-1.507-3.772-1.955-6.362-1.955-3.388 0-6.425 1.859-6.425 5.32 0 3.077 1.854 4.39 4.86 4.68l2.62.256c1.312.128 1.758.705 1.758 1.538 0 1.25-1.501 1.73-2.94 1.73-1.28 0-3.07-.193-4.444-1.57l-2.717 2.724c2.11 2.116 4.475 2.404 7.098 2.404 3.931 0 7.064-1.763 7.064-5.448zm15.502 0c0-2.82-1.662-4.583-4.955-4.905l-2.623-.255c-1.47-.128-1.726-.834-1.726-1.442 0-.834.703-1.604 2.366-1.604 1.439 0 2.909.258 3.87 1.123l2.555-2.596c-1.597-1.507-3.772-1.955-6.362-1.955-3.387 0-6.424 1.859-6.424 5.32 0 3.077 1.853 4.39 4.86 4.68l2.62.256c1.311.128 1.759.705 1.759 1.538 0 1.25-1.503 1.73-2.941 1.73-1.28 0-3.07-.193-4.445-1.57l-2.717 2.724c2.111 2.116 4.475 2.404 7.098 2.404 3.932 0 7.065-1.763 7.065-5.448zm16.848-1.795v-1.86c0-4.582-2.622-7.979-7.258-7.979-4.315 0-7.257 3.077-7.257 8.525 0 6.762 3.773 8.557 7.705 8.557 3.005 0 4.636-.93 6.33-2.628l-2.526-2.468c-1.055 1.058-1.95 1.57-3.772 1.57-2.334 0-3.645-1.57-3.645-3.717h10.423zm-4.093-2.852h-6.33c.033-.737.128-1.186.384-1.795.447-.994 1.374-1.73 2.78-1.73 1.408 0 2.334.736 2.782 1.73.256.609.352 1.058.384 1.795zm21.452 9.903V39.798c0-1.826-.352-3.397-1.696-4.743-.926-.93-2.27-1.474-3.933-1.474-1.533 0-3.068.577-4.155 1.73v-1.538h-4.06v16.698h4.156V40.375c0-2.275 1.47-3.045 2.78-3.045 1.311 0 2.752.77 2.752 3.045v10.096h4.156zm11.635 0v-3.526H95.9c-.99 0-1.439-.545-1.439-1.506v-8.012h2.941v-3.173h-2.94v-4.936h-4.156v4.936h-1.758v3.173h1.758v8.27c0 2.37 1.438 4.774 4.827 4.774h2.27zm3.39-19.552h4.251v-3.396h-4.251v3.396zm.063 19.552h4.156V33.773h-4.156v16.698zm21.067 0V39.478c0-3.91-2.43-5.897-7.097-5.897-2.782 0-4.38.512-6.011 2.308l2.655 2.595c.862-.993 1.597-1.378 3.197-1.378 2.205 0 3.1.802 3.1 2.628v.834h-3.931c-3.869 0-5.692 2.179-5.692 4.839 0 1.474.48 2.82 1.375 3.75.992.993 2.367 1.474 4.252 1.474 1.918 0 2.974-.481 4.092-1.602v1.442h4.06zm-4.156-6.154c0 1.026-.16 1.699-.607 2.115-.734.705-1.47.802-2.622.802-1.63 0-2.397-.77-2.397-1.923 0-1.186.83-1.891 2.333-1.891h3.293v.897zm14.899 6.154v-3.526h-1.599c-1.056 0-1.471-.513-1.471-1.506V24.13h-4.157v21.566c0 2.37 1.44 4.775 4.86 4.775h2.367z"/>
        <path fill="#FEFEFE" d="M78.013 56.712c-.277-.614-.851-1.07-1.721-1.07-.87 0-1.446.456-1.722 1.07-.158.375-.217.652-.237 1.107h3.917c-.02-.455-.08-.732-.237-1.107zm-3.68 2.868c0 1.326.812 2.295 2.256 2.295 1.126 0 1.681-.316 2.333-.969l1.564 1.523c-1.05 1.048-2.058 1.621-3.919 1.621-2.432 0-4.766-1.106-4.766-5.282 0-3.362 1.82-5.262 4.49-5.262 2.868 0 4.49 2.098 4.49 4.927v1.147h-6.448zM89.053 63.933V57.7c0-1.404-.892-1.878-1.703-1.878-.81 0-1.721.474-1.721 1.878v6.233h-2.571V53.625h2.512v.95c.673-.712 1.623-1.068 2.573-1.068 1.028 0 1.858.336 2.433.91.83.83 1.048 1.8 1.048 2.927v6.589h-2.571zM99.993 56.712c-.278-.614-.85-1.07-1.722-1.07-.87 0-1.444.456-1.721 1.07-.158.375-.217.652-.236 1.107h3.916c-.02-.455-.079-.732-.237-1.107zm-3.68 2.868c0 1.326.812 2.295 2.256 2.295 1.127 0 1.682-.316 2.334-.969l1.563 1.523c-1.049 1.048-2.058 1.621-3.918 1.621-2.432 0-4.768-1.106-4.768-5.282 0-3.362 1.821-5.262 4.491-5.262 2.869 0 4.491 2.098 4.491 4.927v1.147h-6.448zM110.438 56.435c-.395-.396-.732-.614-1.364-.614-.791 0-1.662.595-1.662 1.9v6.212h-2.572V53.626h2.513v.99c.494-.594 1.484-1.109 2.59-1.109 1.01 0 1.722.257 2.434.97l-1.939 1.958zM117.304 55.822c-1.523 0-1.682 1.305-1.682 2.67s.159 2.69 1.682 2.69 1.701-1.325 1.701-2.69-.178-2.67-1.701-2.67m-.258 12.008c-1.583 0-2.67-.317-3.739-1.345l1.603-1.622c.573.554 1.147.79 2.018.79 1.542 0 2.077-1.087 2.077-2.135v-1.05c-.672.751-1.444 1.03-2.453 1.03s-1.88-.337-2.454-.912c-.969-.968-1.047-2.293-1.047-4.094 0-1.8.078-3.106 1.047-4.075.575-.574 1.464-.91 2.474-.91 1.088 0 1.8.296 2.511 1.089v-.97h2.493v9.93c0 2.474-1.76 4.274-4.53 4.274M128.482 65.594c-.218.574-.455 1.009-.772 1.326-.593.593-1.365.792-2.215.792h-1.01v-2.315h.594c.732 0 1.029-.178 1.285-.93l.436-1.267-3.522-9.574h2.711l2.136 6.37 2.058-6.37h2.709l-4.41 11.968z"/>
    </g>
</svg>
