<svg version="1.2" xmlns="http://www.w3.org/2000/svg" viewBox="0 0 1510 1507" width="1510" height="1507">
	<title>Vedanta-Notice of 56th AGM-1-pdf-svg (1)-svg-svg</title>
	<style>
		.s0 { fill: #6dbf48 } 
		.s1 { fill: #1165a9 } 
	</style>
	<g id="#6dbf48ff">
		<path id="Layer" class="s0" d="m690.2 2.2c9.2-1.8 19.2-2.7 28.2 0.3c5.9 5.6 12.5 11 16 18.5c12.4 22.6 31.1 41.8 53.8 54c33.4 18.4 71.5 26.5 109.2 28.8c57.4 3.1 114.2-7.7 171-14c16.6-1.1 33.4 0.7 49.6 4.8c30 5.6 55.5 23.9 78.8 42.7c8.7 7.1 20.1 13.2 23 24.9c2.3 9.5-5.4 18-13.7 21.2c-34.5 12.3-69 24.5-104.5 33.6c-16.6 3.8-33.2 7.2-49.8 11c-39.7 7.4-79.7 13-119.8 16.7c-19.3 0.1-38.5-2.1-57.5-4.5c-16-3.3-32.5-5.4-47.8-11.3c-28.7-10-56-25.3-77.3-47.2c-26.3-28-41.3-64.6-50.6-101.4c-3.9-17.2-9.4-34.1-12.8-51.4c-2.8-9.1 2.8-17.9 4.2-26.7z" />
		<path id="Layer" class="s0" d="m549.8 23.5c18.3-5 38.3-6.9 56.6-0.4c18.7 6.3 33.3 20.4 46.5 34.5c13.1 14.8 26.5 29.5 35.7 47.1c11.2 20.1 18.4 42.2 23.4 64.6c3.3 13.5 5 27.4 8.9 40.8c7.6 27.8 24.4 53 47.3 70.6c14.1 11.3 30.3 19.8 47.1 26.3c49.1 16.6 101.8 21.6 153.2 16c19.6-1.1 38.8-4.9 58.1-8.3c18.2-3.4 35.8-8.8 53.8-13.3c68.3-17.8 136.1-37.8 204.5-55.6c10.7-2.6 22.7-2.4 32.4 3.4c10 5.5 16.9 15 24.2 23.6c10.4 12.6 20.8 25.1 29.9 38.5c5.8 8.2 7.1 19.4 2.6 28.5c-4 9.1-13.3 14.4-22.3 17.5c-68.7 23.8-137.9 46.8-208.8 63.2c-44.3 10.5-89.4 16.8-134.3 24.6c-17.6 3.1-35.5 3-53.2 4.7c-27.3 3.4-54.9 1-82.1-2.4c-27.6-3.4-54.6-11.1-79.9-22.5c-19.8-9.4-38.8-21.4-53.4-38c-23.5-24.8-37.1-57.5-43.2-90.9c-3.1-18.5-7-37-13.8-54.6c-13.9-38-38.9-71.9-71-96.6c-14.8-12-30.7-22.5-46.9-32.5c-12-7.1-23.8-14.7-35-23.1c-5.2-3.6-11.2-6.2-15.7-10.8c-8.6-7.3-15.3-16.4-23.3-24.3c10.5-6.6 20.1-14.6 30.9-20.8c8.6-4.8 18.3-7.1 27.8-9.8z" />
		<path id="Layer" class="s0" d="m13.1 743.6c6.2-4.5 14-6.7 21.7-6.3c45.9 2.2 91.9 3.7 137.6 8.3c32.1 2.4 63.8 7.6 95.6 12.6c39.7 6.9 79.3 14.4 118.4 24.2c69.6 15.8 136.9 43.5 195.8 84.1c24.4 17.2 48.6 35.4 68.4 57.9c28.9 31.5 49.7 70.2 60.6 111.4c4.9 17.2 6.4 35.1 11.8 52.1c7.4 24.7 22.4 47.2 42.8 63c21.8 17 48.1 27.7 75 33.2c50.8 12.5 103.9 12.2 155.6 5.8c86-12 170.6-33.5 252.3-62.8c38.6-13.3 76.5-28.4 114.5-43.2c15.5-6 30.5-13.4 46.4-18.2c7.1-0.3 14.1 1.5 21.2 2.1c-0.8 8.6 2.4 18.3-3 25.8c-20.2 35.4-39.3 71.4-62.6 104.8c-19.6 26.2-49.3 42.8-79.6 53.4c-36.4 12.8-73.5 23.3-110.8 33c-51.8 13.8-104.2 24.8-157.4 31.7c-28.7 5.5-58 0.6-86.9 2.1c-49.6 1.1-100.8-4.7-145.4-27.6c-39.5-19.3-71-56.1-80.6-99.3c-6.3-30.1-12.9-60.5-25.2-88.8c-9.1-22.1-21.7-42.5-37-60.8c-17.4-20.5-39.8-35.9-61.5-51.4c-54.3-35.9-115.5-59.7-177.8-77.6c-35.4-10.5-71.4-18.5-107.7-25c-39.6-6.3-79.6-10.1-119.6-12.3c-44.2-3-88.6-4.8-132.8-7.7c-10-1-20.8-3.9-27-12.4c-8.6-11.6-8.4-26.7-10.2-40.5c-3.1-15.8-5.9-31.8-4.9-48c0.6-9.1 4.8-18.1 12.3-23.6z" />
		<path id="Layer" class="s0" d="m68.9 963.7c10.4-4.1 21.5-0.8 32.2-0.6c32.3 1.4 64.5 4.7 96.4 9.9c42.3 7.8 84 18.4 125.3 30c43.1 11.6 85.7 25.2 127.6 40.3c67.1 25.1 130.2 61.9 182.9 110.6c54.7 48.4 91.3 115.8 105 187.3c13.6 53.2 18.6 108 24.1 162.4c-39.2-66.3-85.2-128.6-138.5-184.3c-34.8-35.7-71.7-69.6-112.8-98.1c-56.7-40.3-117.8-74.8-182.4-100.8c-29.4-11.7-59.6-21.3-90.3-29.4c-2.6 2.5-5.3 4.9-8 7.3c42.8 38.6 89.3 72.6 134.5 108.2c29.3 22.7 58.2 46 87.1 69.3c20.4 16 39.4 33.5 59.3 49.9c34.5 30.2 66.7 63.4 93 101.1c16.4 22.5 29.6 47 41.9 71.9c-39-9.8-79.1-16-117.1-29.8c-48.4-16.7-95.7-36.9-140.5-61.8c-45-24.2-87-53.7-126.4-86.1c-20.8-17.3-40.9-35.3-59.7-54.8c-61.8-61.5-111.3-136.2-139.5-218.9c-6.4-17.1-11.8-34.6-13.3-52.8c-0.9-12.9 6.6-26.7 19.2-30.8z" />
		<path id="Layer" class="s0" d="m947 1390.7c62.1-31.1 129.9-50.9 199.1-57.7c18.3-1.5 36.7 0.5 54.8 3.2c11.3 2.7 18.2 12.8 25.9 20.6c-6.1 6.1-11.9 12.7-18.6 18.2c-53.8 33.3-111.2 60.5-171.1 80.7c-66.7 24-137.1 34.4-206.1 49.5c-8.8 2.3-18.1 1.1-27.1 1.4c37.1-49.9 88.3-87.5 143.1-115.9z" />
	</g>
	<g id="#1165a9ff">
		<path id="Layer" class="s1" d="m342.3 127.8c25-4.4 50.1 2.3 74.1 8.8c70.1 22.9 140.2 51.7 197.1 99.8c14.1 11.2 26.6 24.3 38.9 37.4c15.6 16.4 29.7 34.6 39.2 55.3c14.2 28.8 21.1 60.4 28.1 91.6c6.7 29.8 23.3 57.8 48 76.1c22.1 17.5 49.3 26.7 76.3 33.2c62.6 15.2 127.8 8.6 190.8-1.2c42.3-8.1 84.4-17.1 125.7-29.2c65.9-18 129.8-42.4 193.3-67.3c17.3-6.3 33.8-15.6 52.5-16.7c11.2-1.1 22.9 2.7 30.5 11.1c10.3 10.5 13.7 25.2 19.2 38.4c3.9 12 9.6 23.7 10.4 36.6c1.2 10.7-1.8 22.5-10.1 29.9c-8.6 6.2-18.6 10-28.7 12.8c-64.2 23.4-128.3 47.3-193.7 66.9c-66.2 20.9-133.5 38.8-202.3 48.1c-26.3 3.9-53 4.9-79.5 5.9c-38.3-0.2-76.5-4.9-113.8-13.7c-27.9-7.6-56.1-17.1-79.2-35c-25.1-20-43.8-47.5-54.8-77.5c-8.9-23.3-9.8-48.7-17.7-72.3c-10.4-33-29.2-63-53.1-87.9c-18.7-19.9-40.8-36-63.8-50.6c-55.3-34.4-116.8-58-179.8-73.6c-40-10.9-81-17.4-121.3-27.2c-7.7-2.1-15.8-5.2-21.4-11.2c-4.3-4.6-5.6-11.9-2.7-17.5c3.9-8.4 12.1-13.4 18.6-19.5c17.4-14.8 33.5-31.5 53.7-42.6c7.8-4.8 16.6-7.2 25.5-8.9z" />
		<path id="Layer" class="s1" d="m165 309c15.7-2.3 31.9-3.4 47.6-0.8c82.8 11.6 165.7 27.2 244 57c36 13.7 70.8 30.6 103.9 50.2c46.2 27.1 88.8 62 118.5 107.1c13.3 20.2 23.6 42.3 31 65.2c3.7 16.2 5.4 32.8 9.4 49c6.4 27.6 20.8 53.4 41.5 72.8c23.6 21.2 54.2 33.2 85.2 38.2c43.1 6.7 87 7.8 130.5 4.9c37.8-3.1 75.2-9.5 112.3-17.5c59.8-14.4 118.7-32.3 176.7-52.6c54.3-20.5 108.3-41.8 162.2-63.3c13.7-6.3 28.3-11.2 43.5-11.8c7.9-0.1 16.5 2.1 22.1 8.1c6.3 6 8.4 14.9 10.3 23.1c3.7 18.7 8 37.9 4.5 57c-2.3 14.1-10.1 27.1-21 36.3c-15.2 12.9-34.2 19.8-52.5 26.9c-92.3 36.4-186.2 68.9-282.3 93.9c-36.4 8.4-73 15.9-110.1 20.9c-60 8.5-121.3 12.7-181.6 4.3c-35.4-5.5-70.3-18-99-39.8c-35.7-26.8-60-68.2-66-112.4c-3.2-26.4-10.4-52.4-22.9-75.9c-15.3-28.5-36.6-53.9-62-74c-48.5-40.3-106.1-68.6-166-87.8c-36.9-12.6-75.1-20.4-113.2-28.9c-34.6-8-69.7-13.7-104.8-18.6c-30.8-3.6-61.6-6-92.5-7.6c-12.4-2.3-26.3-4-35.7-13.3c-8-7.7-10.8-20.6-5.5-30.5c10.6-21.6 23.2-42.4 38.3-61.1c8.3-10.4 20.6-16.8 33.6-19z" />
		<path id="Layer" class="s1" d="m75.2 518.8c33.7-1.1 67.3 2.3 100.8 5.3c82.3 8.1 163.7 24.5 242.8 48.3c57.6 18.2 113 43.6 163.5 76.8c44.1 28.2 85.3 64.3 109 111.8c9.5 18.7 15.4 38.9 20.6 59.2c3.4 13.1 4.6 26.7 8.2 39.8c7.5 28.1 24 54 47.2 71.8c25.4 20.3 56.9 31.9 88.9 36.7c69.2 13.2 140.1 3.2 208.6-9.8c22.2-5 44.7-8.8 66.6-14.9c56.2-14.1 111.6-31.6 165.7-52.4c56.2-20.4 111-44.5 166.3-67.5c8.7-4.6 19.3-6.7 28.7-3c8.6 4.8 11.3 15.1 12.6 24.2c1.7 8.4-0.5 16.9-1.9 25.2c-2.2 12.9-4.9 25.6-8.1 38.3c-2.7 10.2-4 21-9.2 30.4c-10.3 19-29.4 31.5-49.3 38.6c-33.5 11.9-66.9 24-100.5 35.4c-39.1 13.3-78 27.1-117.6 38.8c-37.9 10.5-75.5 22.2-113.7 31.5c-55.9 12.7-113.1 20.8-170.5 19.1c-34.1-1.2-68.8-1.9-101.8-11.4c-49.9-13.5-95.1-46.7-119.2-92.8c-9.8-18.9-15.6-39.6-18.5-60.6c-3.5-25.2-10.5-50.2-22.9-72.6c-14.3-26.8-34.9-49.9-58.2-69.3c-48.2-38.8-104.6-66.3-163.1-85.8c-26.4-9.4-53.7-16-80.7-23.2c-39.5-8.7-79-17.2-119-22.6c-63.3-8.1-127-12.7-190.8-11.2c-7.9 0.4-15.8-0.6-23.7-1.5c-8.6-1-17.2-5.8-21.1-13.8c-3.3-7.2-3.1-15.3-2.2-23c2.3-17.3 7.3-34.1 12.9-50.7c3.8-13 7.8-27.2 18.6-36.3c8.8-6.8 20.2-8.5 31-8.8z" />
	</g>
</svg>