<svg version="1.2" xmlns="http://www.w3.org/2000/svg" viewBox="0 0 1602 327" width="1602" height="327">
	<title>Vedanta-Notice of 56th AGM-1-pdf-svg</title>
	<defs>
		<clipPath clipPathUnits="userSpaceOnUse" id="cp1">
			<path d="m-2348.95-568.57h6300.9v8901.14h-6300.9z" />
		</clipPath>
	</defs>
	<style>
		.s0 { fill: #6dbf48 } 
		.s1 { fill: #1165a9 } 
	</style>
	<g id="Clip-Path: Page 1" clip-path="url(#cp1)">
		<g id="Page 1">
			<path id="Path 52" fill-rule="evenodd" class="s0" d="m577.2 254.9l1-1.5l2.2-1.1l8.4-2.6h0.6l1.5 0.5l0.6 2.1v11.6h6.3l2.1 0.6l0.6 2.1v7.4l-0.6 2.1l-2.1 0.5h-6.3v29.6l-0.6 2.1l-2.1 1.1h-8.4q-3.2 0-3.2-3.2v-29.6h-2.7q-2.6 0-2.6-2.6v-7.4q0-2.7 2.6-2.7h2.7zm31.7 10.1l1.1-2.1l2.1-0.6h6.4l1.5 1.6l0.6 1.1v1l1.6 3.2l4.2-5.3l2.6-1.6l3.2-1l3.7 0.5l5.3 2.1l3.2 2.1q2.6 1.6 1 4.3l-3.1 5.8l-2.2 1h-2.1l-3.1-2.6l-3.8-0.5l-2.6 0.5l-2.1 1l-1.6 1.6l-1.6 2.1v27l-0.5 2.1l-2.7 0.5h-7.9q-3.2 0-3.2-2.6zm93.7 42.3l-1.1 1l-1 0.6h-9l-1.1-0.6l-1.1-2.1l-1-2.6l-2.1 2.1l-2.7 2.1l-3.2 1.6l-3.1 0.5q-3.7 0-6.4-1q-3.1-0.6-5.8-2.1q-2.6-1.6-4.8-3.7q-2.6-2.7-4.2-5.3q-1.6-2.7-2.1-5.8q-1.1-2.7-1.1-6.4q0-5.3 2.2-9.5q1.5-4.2 5.2-7.4q3.2-3.7 7.5-5.3q4.2-2.1 9.5-2.1q2.1 0 4.2 1.1l3.2 1.5l3.2 2.7l2.1 2.6l1.6-4.2l0.5-1.6l0.5-1h0.5l1.1-0.6h5.8l0.6 0.6l2.1 1zm-36.5-21.7q0 2.2 1 4.3l2.1 3.7l3.2 2.6q2.1 0.5 4.8 0.5q2.1 0 4.2-0.5l3.7-2.6l2.7-3.7q0.5-2.1 0.5-4.3q0-2.6-0.5-4.7l-2.7-3.7l-3.7-2.7q-2.1-1-4.2-1q-2.7 0-4.8 1l-3.2 2.7l-2.1 3.7q-1 2.1-1 4.7zm49.2-23.2l1-0.5h6.4l1.6 0.5l0.5 0.5l1 2.1l1.1 4.8l1.6-2.7l2.6-2.6l3.7-2.1q2.7-1.1 5.3-1.1q4.3 0 8 1.6q3.1 1.6 5.8 4.2q2.1 3.2 3.7 6.9q1 3.7 1 7.9v23.8l-0.5 2.1l-2.1 1.1h-8.5l-2.1-0.5l-0.5-2.1v-24.4l-0.5-2.6l-2.2-2.6l-2.6-1.6l-3.2-0.6l-2.6 0.6l-2.7 1.6l-1.5 2.1l-1.1 3.1v24.4l-1.1 2.1h-1l-0.6 0.5h-8.4l-2.1-1.1l-1.1-2.1v-41.2zm62.4 31.7l2.2 1.6l2.1 1.1l2.1 0.5l1 0.5h1.6l2.1-0.5l1.6-1.1l1.1-1.6l-0.5-1.5l-1.1-1.1l-2.1-0.5l-2.7-1.1q-4.2-1-6.8-2.6q-3.2-1.6-4.8-3.7q-1.6-2.1-2.1-4.8q-1.1-2.1-1.1-4.7q0-3.2 1.6-5.9q1.1-2.1 3.2-4.2q2.1-1.6 5.3-2.6q3.2-1.1 7.4-1.1q2.1 0 4.2 0.5l3.7 1.1l3.7 2.1l3.2 3.2l1.1 1.6l-6.4 6.3h-2.6l-0.6-0.5l-3.1-2.1l-3.2-0.6l-2.7 0.6l-1 2.1l0.5 1.6l1.6 0.5l4.2 1.1q3.2 1 5.9 2.1q3.1 1.6 4.7 3.1q2.1 2.2 3.2 4.8q1.6 2.1 1 5.8q0.6 3.7-1 6.9q-1.6 2.6-4.2 4.7q-2.7 1.6-5.9 2.7q-3.7 1-7.4 1q-2.6 0-4.7 0q-2.7-0.5-4.8-1.5l-4.2-2.2l-3.2-3.7l-1.1-1v-2.1l1.1-0.6l4.8-4.7l1.5-0.5zm42.9-31.8q0-3.7 1.6-6.3q1.6-3.2 3.7-5.3q2.6-2.6 5.8-3.7q3.2-1 6.9-1.6h0.5l2.1 1.1l0.6 2.1v6.9l-0.6 2.1l-2.1 1h-0.5l-3.2 1.1l-0.5 1.1l-0.5 1.5v4.3h5.8l2.1 0.5l0.5 2.1v6.9l-0.5 2.1l-2.1 1.1h-5.8v26.4l-1.1 2.1l-1.6 0.5h-8.5l-2.1-0.5l-0.5-2.1v-26.4h-3.7l-2.1-1.1l-1.1-2.1v-6.9l1.1-2.1l2.1-0.5h3.7zm29.1 22.7q0-3.2 0.5-6.3q1.1-3.2 2.7-5.9q1.6-2.6 3.7-5.2q2.1-2.2 4.7-3.7q2.7-1.1 5.9-2.2q3.1-1 6.8-1q4.8 0 9 2.1q4.8 1.6 8 4.8q3.1 3.7 5.3 7.9q1.5 4.2 1.5 9.5q0 3.2-0.5 6.3q-1 3.2-2.6 5.9q-1.6 2.6-3.7 5.2q-2.2 2.2-4.8 3.7q-3.2 1.6-5.8 2.2q-3.2 1-6.4 1q-3.7 0-6.8-1q-3.2-0.6-5.9-2.2q-2.6-1.5-4.7-3.7q-2.1-2.6-3.7-5.2q-1.6-2.7-2.7-5.9q-0.5-3.1-0.5-6.3zm13.2 0q0 2.6 1.1 4.8l2.1 3.7l3.2 2.1q2.1 1 4.2 1q2.6 0 4.2-1l3.7-2.1l2.2-3.7q0.5-2.2 0.5-4.8q0-2.1-0.5-4.2l-2.2-4.3l-3.7-2.1q-1.6-1-4.2-1q-2.1 0-4.2 1l-3.2 2.1l-2.1 4.3q-1.1 2.1-1.1 4.2zm45-20.6l1.1-2.1l2.1-0.6h6.8l0.6 0.6l1 2.1v1l1.6 3.2l4.3-5.3l2.6-1.6l3.2-1l3.7 0.5l2.6 1.1l3.2 1l2.6 2.1q2.7 1.6 1.1 4.3l-3.2 5.8l-2.1 1h-2.1l-3.2-2.6l-3.7-0.5l-2.6 0.5l-2.1 1.1l-1.6 1.5l-1.6 2.2v26.9l-0.6 2.1l-2.1 0.6h-8.4q-3.2 0-3.2-2.7zm46.5-2.1l1.1-0.5h7.4l1.1 0.5l1 2.1l1.1 4.8l1-2.7l2.2-2.6l3.7-2.1q1.6-1.1 4.7-1.1q4.8 0 8.5 2.1q3.2 2.1 5.8 5.3l1.6-2.1l3.2-2.6l3.7-1.6q2.1-1.1 4.7-1.1q4.3 0 7.4 1.6q3.7 1.6 5.9 4.8q2.1 2.6 3.7 6.3q1 3.7 1 7.9v24.3l-0.5 2.2l-2.1 0.5h-8.5l-2.1-0.5l-0.5-2.2v-24.3l-0.6-2.6l-1.5-2.7l-2.2-1.5l-2.6-0.6l-2.7 0.6l-2.1 1.5l-1.6 2.2l-0.5 3.1v24.3l-1 2.2l-1.6 0.5h-8.5l-2.1-0.5l-1.1-2.2v-26.9l-1.6-2.7l-2.1-1.5l-2.6-0.6l-2.7 0.6l-2.1 1.5l-2.1 2.2l-0.5 3.1v24.3l-1.1 2.2l-1 0.5h-9l-2.7-0.5l-0.5-2.2v-41.2l0.5-1.6zm80.4-16.4l1.1-2.1l2.1-1h8.5l2.1 1l0.5 2.1v8l-0.5 1l-2.1 1.1h-8.5q-3.2 0-3.2-3.2zm0 19l1.1-2.1l2.1-1h9l1.1 1l1 0.6v42.2l-0.5 2.2l-2.1 1h-8.5q-3.2 0-3.2-3.2zm27-2.1l1.1-0.5h7.9l0.5 1.1l0.6 0.5l0.5 1l1.1 4.8l1.5-2.6l2.7-2.7l3.7-2.1q2.6-1.1 5.3-1.1q4.2 0 7.9 2.2q3.2 1.5 5.8 4.2q2.2 2.6 3.7 6.3q1.1 3.7 1.1 8v24.3l-0.5 2.1l-2.1 0.5h-8.5l-2.1-0.5l-0.6-2.1v-23.8l-0.5-3.2l-2.1-2.1l-2.6-2.1l-3.2-0.5l-2.7 0.5l-2.6 1.6l-1.6 2.6l-1.1 3.2v24.8l-1.5 1.6h-9.6l-2.1-0.5l-1-2.1v-41.3l0.5-1l1-1.1zm88.9 44.4l0.6-2.6v-3.7l-2.2 2.6l-2.6 2.1l-3.2 2.2l-3.7 0.5q-5.3 0-9.5-1.6q-4.2-1.6-7.4-4.8q-2.7-3.1-4.8-7.4q-1.6-4.2-1.6-8.9q0-5.3 1.6-9.6q2.1-4.7 4.8-7.9q3.2-3.2 7.4-4.7q4.2-2.2 9.5-2.2q2.1 0 3.7 0.6l3.7 2.1l2.7 2.6l2.1 2.7l1.6-4.8l0.5-1l1.1-1.1l1-0.5h6.9l1.6 1.6v38.5q0 5.9-1.6 10.6q-2.1 4.2-5.3 7.4q-3.2 3.2-7.9 4.8q-4.3 1.6-9.6 1.6q-1.5 0-4.2-0.6q-2.1 0-4.2-1q-2.7-0.6-4.8-1.6l-3.7-2.7l-0.5-0.5l-0.5-1v-1.1l0.5-1.6l3.7-4.7l1.6-1.1l4.2 2.1l2.7 1.1l2.6 0.5h2.1l3.2-0.5l3.7-1.6l2.6-2.1zm-21.1-21.7q0 2.6 0.5 4.8l2.6 3.7l3.2 2.1q2.1 1 4.3 1q2.6 0 4.7-1l3.2-2.1l2.6-3.7q1.1-1.6 1.1-4.3v-1l-1.1-4.3l-2.6-3.7l-3.2-2.1q-2.1-1-4.7-1q-2.2 0-4.3 1l-3.2 2.7l-2.6 3.7q-0.5 2.1-0.5 4.2zm112.1 18q-3.7 3.1-7.4 4.7q-4.2 1.6-8.4 1.6q-5.3 0-9.6-2.1q-4.7-1.6-7.9-4.8q-3.7-3.1-5.8-7.9q-1.6-4.2-1.6-9.5q0-3.2 0.5-6.3q1.1-3.2 2.1-5.9q1.6-2.6 3.7-4.7q2.2-2.1 4.8-3.7q2.7-1.6 5.8-2.7q2.7-0.5 6.4-0.5q2.6 0 5.8 0.5q2.6 1.1 5.3 2.7q2.6 1 4.7 3.2q2.2 2.1 3.7 4.7q1.1 2.1 2.2 5.3q1 2.6 1 5.3l-0.5 3.2l-0.5 2.1l-1.6 1q-1.1 0-3.2 0h-27q0.6 2.7 1.6 4.3l2.7 2.6l3.1 1.1l3.2 0.5l5.3-1.1l2.6-1l1.6-1.1l1.1-1h1.6l1.6 1l3.7 4.8l0.5 0.5v1.1zm-17.5-30.7l-2.6 0.5l-2.7 1.6l-2.1 2.1l-1.6 2.7h19.1l-2.1-2.7l-1.6-2.1l-3.2-1.6zm33.9-21.6l0.5-2.2l2.1-0.5h9.5l1.1 0.5l0.5 1.1v56l-0.5 2.1l-2.1 1.1h-8.5l-2.1-1.1l-0.5-2.1zm65 52.4q-3.1 3.1-7.4 4.7q-4.2 1.6-8.4 1.6q-5.3 0-9.6-1.6q-4.7-2.1-7.9-5.3q-3.7-3.1-5.3-7.4q-2.1-4.7-2.1-10q0-3.2 0.5-6.4q1.1-2.6 2.7-5.2q1-2.7 3.1-4.8q2.2-2.6 4.8-4.2q2.7-1.6 5.8-2.1q2.7-1.1 6.4-1.1q3.2 0 5.8 0.5q2.6 1.1 5.3 2.7q2.6 1.6 4.7 3.1q2.2 2.2 3.8 4.8q1.5 2.6 2.1 5.3q1 2.6 1 5.8v3.2l-0.5 1.6l-2.1 1q-1.1 0.5-3.2 0.5h-27q0.6 2.2 1.6 3.7l2.7 2.7l3.1 1.6h5.9l5.2-2.1l1.6-1.1l2.1-1.1l1.1 0.6l1.1 1l3.7 4.3l0.5 1v1.6zm-18-30.7l-5.3 2.2l-2.1 2.6l-1.6 2.1h19.1l-1.6-2.6l-2.1-2.1l-2.7-1.6zm34.4-9.5l1.1-0.6h7.4l1 0.6l1.1 2.1l1 4.7l1.1-2.6l2.1-2.7l3.7-2.1q1.6-1 4.8-1q4.7 0 7.9 2.1q3.7 2.1 6.4 5.3l1.5-2.1l3.2-2.7l3.7-1.6q2.1-1 4.8-1q4.2 0 7.4 1.6q3.7 1.5 5.8 4.7q2.1 2.7 3.7 6.4q1.1 3.7 1.1 7.9v24.3l-0.6 2.1l-2.1 0.5h-8.4l-2.2-0.5l-0.5-2.1v-24.3l-0.5-3.2l-1.6-2.1l-2.1-1.6l-2.7-0.5l-2.6 0.5l-2.1 1.6l-1.6 2.1l-0.5 3.2v24.3l-1.1 2.1l-1.6 0.5h-8.4l-2.7-0.5l-0.5-2.1v-27.5l-1.6-2.1l-2.1-1.6l-2.7-0.5l-2.6 0.5l-2.1 1.6l-2.1 2.1l-0.6 3.2v24.3l-1 2.1l-1.1 0.5h-9l-2.6-0.5l-0.6-2.1v-41.2l0.6-1.6zm120.1 40.2q-3.7 3.1-7.4 4.7q-4.3 1.6-8.5 1.6q-5.3 0-9.5-1.6q-4.8-2.1-8-5.3q-3.7-3.1-5.8-7.4q-1.6-4.7-1.6-10q0-3.2 0.6-6.4q1-2.6 2.1-5.2q1.6-2.7 3.7-4.8q2.1-2.6 4.7-4.2q2.7-1.6 5.3-2.1q3.2-1.1 6.9-1.1q2.6 0 5.8 0.5q2.7 1.1 5.3 2.7q2.7 1.6 4.8 3.1q2.1 2.2 3.7 4.8q1 2.6 2.1 5.3q1.1 2.6 1.1 5.8l-0.6 3.2l-0.5 1.6l-1.6 1q-1.1 0.5-3.7 0.5h-26.4q0.5 2.2 1.5 3.7l2.7 2.7l3.2 1.6h5.8l5.3-2.1l1.6-1.1l2.1-1.1l0.5 0.6l1.6 1l3.7 4.3l0.5 1v0.5zm-17.4-30.6l-5.3 2.1l-2.1 2.6l-1.6 2.2h19l-2.1-2.7l-2.1-2.1l-2.7-1.6zm35-9.5l1-0.5h7.4l1.1 0.5l1 2.1l1.1 4.8l1.6-2.7l2.6-2.6l3.7-2.1q2.1-1.1 5.3-1.1q4.2 0 7.4 1.6q3.7 1.6 5.8 4.8q2.7 2.6 3.7 6.3q1.6 3.7 1.6 7.9v24.3l-0.5 2.2l-2.1 0.5h-8.5l-2.1-0.5l-0.5-2.2v-23.7l-1.1-3.2l-1.6-2.7l-2.6-1.5l-3.2-0.6l-2.6 0.6l-2.7 1.5l-2.1 2.7l-0.5 3.2v23.7l-1.1 2.2l-1 0.5h-9l-2.7-0.5l-0.5-2.2v-41.2l0.5-1.6zm58.2-7.9l0.5-2.1l2.2-1.1l8.4-2.6h0.6l2.1 0.5l0.5 2.1v11.7h5.8l2.1 0.5l0.6 2.1v7.4l-0.6 2.1l-2.1 0.5h-5.8v29.6l-1.1 2.7l-2.1 0.5h-8.4q-2.7 0-2.7-3.2v-29.6h-2.6q-3.2 0-3.2-2.6v-7.4q0-2.6 3.2-2.6h2.6zm38.6 39.6l2.2 1.6l2.1 1l2.1 0.6l1 0.5h1.6l2.1-0.5l1.6-1.1l1.1-1.6l-0.5-1.6l-1.1-1l-2.1-1.1l-2.7-0.5q-4.2-1.1-6.8-2.6q-3.2-2.2-4.8-3.7q-1.6-2.2-2.1-4.8q-1.1-2.1-1.1-4.8q0-3.1 1.6-5.8q1.1-2.1 3.2-4.2q2.6-1.6 5.3-2.6q3.2-1.1 7.4-1.1q2.1 0 4.2 0.5l3.7 1.1l3.7 2.1l3.2 3.2l1.1 1.6l-3.7 3.7l-2.7 2.1l-1 0.5h-1.6l-0.6-1.1l-3.1-1.5l-3.2-0.6l-2.7 0.6l-1 2.1l0.5 1l1.6 1.1l4.2 1q3.2 1.1 5.9 2.2q3.1 1.5 4.7 3.1q2.1 2.1 3.2 4.3q1.6 2.6 1 6.3q0.6 3.7-1 6.3q-1.6 3.2-4.2 5.3q-2.7 1.6-5.9 2.7q-3.7 1-7.4 1q-2.6 0-4.7-0.5q-2.7 0-4.8-1.1l-4.2-2.1l-3.2-3.7l-1.1-1v-2.1l5.9-5.9l1.6-0.5z" />
			<path id="Path 53" fill-rule="evenodd" class="s1" d="m713.7 101.1v-43.8c0-8.5 1.6-10.1 10-10.1q9.6 0 19.1 0c6.9 0 9.5 2.7 9.5 9.5q0 53.4 0 106.8q0 21.1 0 42.3c0 6.9-1.6 8.4-8.5 8.4c-6.8 0-13.2 0-19.5 0c-3.2 0-5.3-1-6.4-4.2c-1-3.2-2.6-6.9-4.8-10.6l-4.2 3.7c-10.6 10.6-22.2 15.9-37.5 12.7c-19.1-3.1-33.4-12.7-43.4-29c-9.5-16.4-11.7-34.4-7.4-52.9c4.2-21.7 16.4-37 37-45.5c14.3-5.8 29.1-8.4 43.4 1.1c3.2 2.1 5.8 5.3 9 7.9c1 1.1 1.6 1.6 3.7 3.7zm-58.7 49.2c0 19.5 12.7 31.7 29.6 31.7c18 0 31.2-12.7 31.7-31.2c0.6-19-14.3-32.8-31.7-32.8c-16.9 0-29.6 13.3-29.6 32.3zm214.2-46.5c2.1-5.3 3.2-10.1 5.3-14.8c1.1-1.6 3.2-3.7 4.8-3.7c5.8-0.6 12.1-0.6 18 0c5.2 0.5 7.4 3.1 7.4 9.5q0 18 0 35.9q0 36.5 0 73.5c0 7.9-2.2 10-10.1 10c-5.8 0-11.6-0.5-17.4 0c-4.8 0.6-7.5-2.1-8.5-6.3c-1.1-2.6-2.1-5.3-3.7-8.5c-2.7 2.7-5.3 4.8-7.4 6.9c-9.5 8.5-20.7 12.2-33.9 9.5c-14.8-2.6-27.5-8.4-37.5-19c-15.4-16.4-21.2-35.4-17.5-57.6q4.2-27.5 27-43.9c8.4-5.8 18-9.5 28-11.1c18.5-3.2 32.3 3.2 42.9 17.5zm-35.5 13.7c-15.8 0-29.6 13.7-29.6 32.2c0.5 19.6 11.6 32.3 29.6 32.3c18 0 31.8-13.2 32.3-31.7c0-18-14.8-32.8-32.3-32.8zm121.7-12.7c1.1-1.6 2.1-2.6 2.7-3.7c9.5-12.7 21.6-18 37.5-17.4c24.9 1 42.9 21.6 46 43.3q1.1 7.4 1.6 14.8q0 32.3 0 64c0 6.8-1.6 8.4-8.4 8.4h-22.3c-6.3 0-7.4-1-7.4-6.8q0-32.3 0-64.5c0-11.7-9-22.2-21.7-23.8c-8.9-1.1-21.1 8.4-23.2 18.5c-0.6 1.6 0 3.2 0 4.7v62.4c0 7.4-2.1 9.5-10.1 9.5q-10.6 0-21.7 0c-5.3 0-7.4-2.1-7.4-7.4q-0.5-57.1 0-113.6c0-4.8 2.7-7.4 7.4-7.4c5.3 0 10.6 0 15.4 0c3.7-0.5 6.3 1.6 7.4 4.7c1.6 4.3 2.6 9 4.2 14.3zm-535.4 52.9q2.1-6.9 4.8-14.3q7.9-25.9 16.4-52.3c1-3.7 3.7-5.8 7.9-5.3q13.5 0 27 0c6.3-0.5 6.9 3.7 5.3 7.9q-7.4 18-14.8 36q-15.4 36.4-30.2 72.4c-6.3 14.2-4.7 11.6-16.9 12.1c-12.7 0-12.7 0-17.5-11.6q-21.7-53.4-43.4-106.8c-2.6-5.3-2.1-11.1 6.4-10c6.9 0.5 14.3 0 21.2 0c10.5-0.5 10 1.6 12.7 9.5c6.8 20.6 13.2 41.2 20.1 61.8zm685.6 10.1q0 18.5 0 37c0 7.9-1.6 9.5-9 9.5q-10.6 0-20.6 0c-8 0-9.6-1.6-9.6-9.5q0-16.9 0-33.3q0-20.6 0-41.2c0-3.7-0.5-5.3-4.7-5.3c-8.5 0.5-10.6-1.6-10.6-10.6q0-7.9 0-15.9c0-6.8 2.1-8.9 9-8.9c6.3-0.6 6.3-0.6 6.3-6.4q0-7.9 0-15.8c0-4.3 1.6-6.9 5.3-8.5c8-2.6 15.9-5.8 23.8-8.5c7.5-2.1 10.1 0 10.1 8q0 13.2 0 26.4c0 3.7 1.1 4.8 4.2 4.8q5.8-0.6 11.7 0c5.8 0 8.4 2.6 8.4 7.9q0.6 10 0 20.1c0 5.3-2.6 7.4-8.4 7.9c-3.7 0-7.4 0-11.1-0.5c-3.7 0-4.8 1-4.8 4.7q0 19.1 0 38.1zm-1083.5-61.3c16.9 1 33.9 3.1 50.8 7.4c15.9 3.7 31.7 9.5 45.5 18.5c12.7 7.9 23.3 17.9 27 32.7c1 3.2 1.6 6.4 2.1 9.6c3.2 14.8 15.3 21.6 27 23.7c18.5 3.7 36 0 53.4-3.7c25.4-5.8 49.2-15.8 73-25.9c1.6-1 4.8-1 5.8 0c1.6 1.1 2.2 4.3 2.2 6.4c-0.6 4.2-1.6 9-2.7 13.2c-1 6.3-5.8 10-11.6 12.2c-19.1 6.8-38.1 13.7-58.2 19c-15.9 4.7-32.8 7.4-49.8 6.3c-11.6-0.5-23.2-2.6-32.8-11.6c-6.3-5.8-10-13.2-11.1-21.7c-1.5-13.2-8.4-23.2-19-31.2c-14.8-11.1-32.3-16.9-50.3-21.1c-20.6-4.8-41.8-6.9-62.4-6.3c-6.9 0-9-2.7-7.9-9q1-5.3 2.6-9.5c2.1-7.4 4.2-9 11.7-9zm19.5-43.4c28.1 3.7 55.1 9.5 79.4 25.9c11.6 8 20.6 18 24.9 31.7c1 4.8 1.5 10.6 3.7 15.4c5.2 12.1 16.4 16.9 28.5 17.9c27 3.2 52.4-4.2 77.8-12.6c12.2-4.3 24.9-9.6 37-14.3c3.7-1.6 10.6-4.2 13.8-0.5c1.6 1.5 2.1 5.8 2.6 8.4c1.6 9.5-1 14.8-10.6 19c-20.1 8-40.7 15.4-61.3 20.7c-15.9 3.7-31.2 6.3-47.1 6.3c-12.2 0-24.3-1.6-34.4-9.5c-7.9-6.4-12.2-14.8-13.2-24.3c-1.6-11.1-6.9-19.6-14.8-27c-14.8-13.2-33.4-20.1-52.4-24.3c-15.4-3.7-30.7-6.3-46.6-6.9c-1.6 0-3.7-0.5-5.3-1c-3.7-1.1-5.8-4.8-4.2-8c2.1-4.2 4.8-8.9 7.9-12.6c3.7-4.3 9-4.3 14.3-4.3z" />
			<path id="Path 54" class="s0" d="m193.1 270.3c-12.2 0.5-23.8-0.6-34.4-6.9c-7.4-4.8-12.7-11.6-14.3-20.6c-2.6-13.2-6.8-25.4-18-34.4c-9.5-7.9-21.1-13.7-33.3-17.9c-16.9-5.9-34.4-9.6-52.9-10.6c-9-0.5-18-1.1-27.5-1.6c-8.5 0-10.6-2.1-11.1-10.6c-0.5-2.6-1.1-5.3-1.1-7.9c-0.5-5.3 2.1-8.5 6.9-8.5c12.7 0.6 24.9 1.1 37.6 2.7q19 2.6 38.1 7.4c16.4 4.2 31.7 11.6 44.9 22.7c11.1 9.5 17.5 21.2 19.6 35.4c2.6 13.8 12.7 20.6 24.9 23.3c16.9 4.2 33.8 1.6 50.8-2.1c19.5-4.3 38-11.1 56.6-18.5c3.1-1.1 6.3-2.7 9.5-3.7l4.2 0.5v4.2c-4.2 7.4-8.4 15.4-13.2 22.2c-5.3 7.4-13.8 10.6-22.2 13.2c-17 5.3-34.4 9.6-51.9 11.7c-4.2 0.5-9 0-13.2 0zm-145.5-45q3.7 3.2 7.4 6.4c15.9 12.7 32.3 24.8 47.6 38c12.2 10.1 22.8 21.7 30.2 37.6c-6.9-1.6-12.7-2.7-18.5-4.3c-20.1-6.3-38.6-15.3-55-28c-21.2-16.4-38.1-35.9-46.6-61.8q-1.6-4.2-2.1-8.5c-0.5-4.2 2.1-7.9 7.4-7.4c9 0.6 18.5 1.1 27.5 3.2c14.3 3.2 28 6.9 41.8 11.6c16.4 5.3 31.7 13.8 44.4 25.9c10.6 10.1 17.5 23.3 20.1 37.6c2.7 10.5 3.7 21.6 4.8 32.7c-12.2-20.6-27-38.6-45.5-53.4c-18.5-14.2-39.2-25.3-61.9-31.1z" />
			<path id="Path 55" class="s1" d="m192 136.5c-10-0.5-20.6-2.1-30.1-6.3c-10.6-4.8-17.5-15.9-19.1-27c-2.1-14.2-10-24.8-21.1-32.7c-14.3-10.1-30.7-15.9-47.6-19.6c-6.4-1.6-12.7-2.6-19.1-4.2c-5.8-1.6-6.3-5.3-2.1-8.5c6.4-5.3 11.6-12.1 20.6-12.1c5.3 0 11.1 1.6 17 3.7c16.9 5.8 32.8 13.7 44.9 28c7.4 7.9 10.1 17.4 12.2 27.5c2.6 12.7 11.1 19.5 22.8 22.7c14.2 4.2 28 2.6 42.3 0.5c24.8-4.2 48.1-12.7 71.4-22.2c6.3-2.1 10.6-1 13.2 5.3c0.6 2.1 1.6 3.7 2.1 5.8c1.6 3.7 2.7 8.5-0.5 11.7c-1.6 1-3.7 2.1-5.8 2.6q-14.3 5.3-28 10c-22.8 7.4-48.2 15.4-73.1 14.8z" />
			<path id="Path 56" class="s0" d="m192.6 92.7c-12.2 0-23.8-1.6-34.4-8c-9.5-6.3-13.8-15.3-15.4-25.9c-2.1-12.6-8.4-22.7-18.5-30.1c-5.3-4.2-11.1-6.9-15.8-10.6c-3.2-1.5-5.3-4.7-7.5-6.8c2.7-1.6 4.8-3.7 7.5-4.8c14.2-5.3 20.1-1.6 29.1 9.5c6.3 7.4 8.4 16.4 10 25.4c2.6 11.6 10.6 18.5 21.2 22.2c14.8 4.8 30.1 3.7 44.9 0.5c16.4-4.2 32.8-9 48.7-13.2c4.8-1.6 8.5-0.5 11.6 3.7q3.7 4.2 7.5 9.5c2.1 3.2 1 7.4-3.2 9c-12.2 4.2-24.4 8.5-37.1 11.6c-11.6 3.2-23.2 4.8-35.4 6.9c-4.2 0.5-8.5 0.5-13.2 1.1zm-1.6-42.3c-12.2-0.5-23.8-2.1-33.9-10.1c-8.4-6.8-12.1-16.9-14.3-26.9c-1-3.2-1.5-5.8-2.1-8.5l1.1-4.2c1.6-0.5 4.2-0.5 5.8 0l2.6 2.6c5.9 11.7 16.4 15.4 27.6 17.5c13.7 2.1 26.9-0.5 40.7-2.1c4.8-0.6 10.6 0.5 15.3 2.1c5.3 2.1 9.6 5.8 13.8 9c4.2 3.1 3.7 6.8-1.1 8.4c-9 3.2-18 6.4-27.5 8c-9 2.1-18.5 3.1-28 4.2zm-25.9 258.5c8.4-11.1 19-18.5 30.6-24.4q18.6-8.9 38.7-11.1c4.2-0.5 8.4 0 12.1 0.6c2.2 0.5 3.7 2.6 5.3 4.2l-3.7 3.7c-18 11.1-37 18.5-57.6 22.7q-10.6 2.1-21.2 4.3c-1.6 0-3.2 0-4.2 0z" />
			<path id="Path 57" fill-rule="evenodd" class="s1" d="m1271.3 104.3q0 50.2 0 99.9c0 7.9-1.6 10-9.5 10c-6.4 0-12.7 0-18.5 0c-3.8 0-5.9-1.5-6.9-4.2c-1.1-3.2-2.1-6.3-3.7-10c-1.6 1-3.2 2.1-4.3 3.1c-5.8 5.3-11.6 10.1-19.5 12.7c-11.1 3.2-22.3 0.6-32.8-3.7c-17.5-6.8-29.7-19.5-36.5-37q-6.4-15.8-4.3-33.3c1.6-12.1 5.8-22.7 13.3-32.2c11.6-15.3 26.9-23.8 46-25.9c15.9-1.6 28 4.2 38.1 16.4c1 1 2.1 2.6 3.7 4.2c1.6-5.3 2.6-9.5 4.7-13.7c1.1-2.2 3.7-5.3 5.3-5.3c6.4-0.6 12.7 0 19.1 0c4.2 0.5 5.8 3.1 5.8 7.4q0.5 5.8 0 11.6zm-38.6 46c0-17.5-14.3-32.3-31.2-32.3c-17-0.5-30.7 13.3-30.2 32.3c0 19 11.6 31.2 29.1 31.7c16.9 0.5 31.7-12.7 32.3-31.7zm-712.1 12.1h-4.3c-0.5 8 6.4 17 15.4 20.1c13.7 4.3 26.4 1.6 38.1-6.8c4.7-3.7 7.4-3.7 11.6 0.5q5.3 5.8 10.1 11.6c3.1 3.7 2.6 7.4-0.6 10.6c-10.5 9.5-22.7 15.8-37.5 17.4q-38.1 3.7-61.9-25.9c-12.7-15.8-15.9-33.8-12.2-53.4c4.8-24.3 18.5-41.7 42.3-49.6c18.6-6.4 36-4.3 52.4 5.8c21.7 13.7 31.8 33.3 30.7 58.6c-0.5 7.4-3.2 10.1-11.1 10.6c-8.5 0.5-16.4 0.5-24.9 0.5q-23.8 0-48.1 0zm-3.7-29.6h50.2c-2.6-8.9-13.2-17.4-22.2-17.9c-12.2-0.6-23.3 6.3-28 17.9z" />
		</g>
	</g>
</svg>