<?xml version="1.0" encoding="UTF-8"?>
<svg version="1.1" xmlns="http://www.w3.org/2000/svg" width="2352" height="2314">
<path d="M0 0 C76.51684352 -0.20574262 153.03372042 -0.39652698 229.55076599 -0.50811768 C231.25037571 -0.5106027 231.25037571 -0.5106027 232.98432098 -0.51313793 C257.611013 -0.54905559 282.23770795 -0.58229738 306.86440727 -0.61278395 C318.94191344 -0.62775156 331.01941881 -0.64331027 343.09692383 -0.65917969 C344.29875958 -0.6607488 345.50059533 -0.6623179 346.73885035 -0.66393456 C385.6706559 -0.71504058 424.602252 -0.80515359 463.53393074 -0.91556665 C503.55235727 -1.02885525 543.57066796 -1.10264787 583.58925214 -1.12697988 C589.24587702 -1.13043757 594.90250151 -1.13434521 600.5591259 -1.13852692 C601.67239446 -1.13933599 602.78566302 -1.14014507 603.93266699 -1.14097866 C621.82944045 -1.15514109 639.72585496 -1.21074818 657.62248224 -1.28198441 C675.62916834 -1.35276952 693.63549978 -1.37958144 711.64232004 -1.36201653 C722.3314473 -1.35291228 733.01927313 -1.37701364 743.70816455 -1.44957052 C750.86251345 -1.49480164 758.01601707 -1.49580413 765.17042592 -1.46198176 C769.23855583 -1.44398245 773.30423789 -1.44412718 777.37209792 -1.49859819 C795.91153617 -1.73225285 810.55123652 -0.049895 826.49911737 10.36955056 C830.0670594 12.69566895 833.73249441 14.85061832 837.39220396 17.02832337 C871.84965265 37.79754305 905.03411734 64.09891718 931 95 C932.34720371 96.55852978 933.6944525 98.1170207 935.04223633 99.67504883 C995.88748335 170.2133238 1044.21690934 250.91222985 1076 341 C1076.36544922 342.03710114 1076.36544922 342.03710114 1076.73828125 343.09515381 C1096.69682538 399.95171928 1108.26114267 459.88933125 1112 520 C1112.09796875 519.02289062 1112.1959375 518.04578125 1112.296875 517.0390625 C1112.72860827 512.7980361 1113.18170671 508.55945415 1113.640625 504.32128906 C1113.89286235 501.99014986 1114.14264879 499.65874477 1114.390625 497.32714844 C1123.95528979 408.25620757 1149.60458205 324.14265509 1285.10888672 105.39331055 C1286.97737368 103.20528914 1288.83346381 101.00777264 1290.67919922 98.80053711 C1297.39423351 90.81147242 1304.43072314 83.253917 1311.83666992 75.90258789 C1313.57254731 74.17751523 1315.2973509 72.44188009 1317.02148438 70.70507812 C1323.70553616 64.01265257 1330.55823785 57.85112211 1338 52 C1339.25486658 50.97542094 1340.50774594 49.94839874 1341.7578125 48.91796875 C1361.29467288 33.01084539 1382.36229684 19.05723695 1404.65048106 7.29954527 C1406.24593307 6.41708287 1407.80970017 5.47530961 1409.33977755 4.48381063 C1416.94777559 -0.22662622 1423.13185991 -0.84817597 1431.95674419 -0.73828697 C1433.34585554 -0.74273318 1434.73496047 -0.7498136 1436.12404677 -0.75926596 C1439.93000138 -0.77758693 1443.73498633 -0.7587104 1447.54086828 -0.73359716 C1451.68535806 -0.71291549 1455.82975368 -0.72723115 1459.97426301 -0.7370621 C1467.23402453 -0.74948488 1474.49349057 -0.73967595 1481.7532177 -0.71523285 C1492.54806316 -0.6789883 1503.34272274 -0.67722118 1514.13761796 -0.68248478 C1532.29718183 -0.69036455 1550.45661463 -0.67033362 1568.61614037 -0.63438034 C1586.59560991 -0.59887481 1604.57502485 -0.57578399 1622.55452919 -0.56926346 C1623.67255491 -0.56885102 1624.79058062 -0.56843858 1625.9424859 -0.56801365 C1631.62040355 -0.56598364 1637.29832125 -0.56417534 1642.976239 -0.56245239 C1683.19000704 -0.54985086 1723.40370377 -0.50942933 1763.61743164 -0.45263672 C1802.68383403 -0.39752813 1841.75021691 -0.35502743 1880.81665039 -0.32958984 C1882.02090672 -0.32880069 1883.22516306 -0.32801153 1884.46591201 -0.32719846 C1896.55957978 -0.31928732 1908.65324771 -0.31163244 1920.74691577 -0.3041653 C1945.38298008 -0.28894814 1970.01904313 -0.27202062 1994.65510559 -0.25405884 C1996.35418465 -0.25282323 1996.35418465 -0.25282323 1998.08758853 -0.25156266 C2073.72508867 -0.19636126 2149.36254927 -0.10129036 2225 0 C2224.04037743 1.13036154 2223.07922887 2.25942771 2222.11743164 3.38793945 C2221.58235489 4.01682571 2221.04727814 4.64571198 2220.49598694 5.2936554 C2218.91888353 7.09252264 2217.27943553 8.66181326 2215.4375 10.1875 C2211.79215388 13.29125184 2208.25984104 16.49521361 2204.75 19.75 C2203.62370413 20.79297546 2202.497402 21.83594416 2201.37109375 22.87890625 C2200.81019043 23.39855957 2200.24928711 23.91821289 2199.67138672 24.45361328 C2192.68364164 30.9187575 2185.64755401 37.3291182 2178.5625 43.6875 C2175.17872672 46.74114905 2171.82203756 49.82396927 2168.4675293 52.90966797 C2165.27421118 55.84367983 2162.05196841 58.74212423 2158.8125 61.625 C2154.77339122 65.24404147 2150.94776781 69.03023543 2147.140625 72.890625 C2145.19472788 74.80811486 2143.20194034 76.60200215 2141.125 78.375 C2133.77944804 84.69422733 2127.02678243 91.67195361 2120.7421875 99.0390625 C2118.7456211 101.28631885 2116.63987054 103.38894927 2114.5 105.5 C2111.10731601 108.85256779 2107.90899316 112.29475682 2104.8046875 115.9140625 C2102.78348724 118.25025501 2100.70621161 120.52964851 2098.625 122.8125 C2094.79963675 127.05576008 2091.1490591 131.40859497 2087.55859375 135.8515625 C2085.67737591 138.17811454 2083.76870248 140.47966809 2081.84765625 142.7734375 C2073.47896992 152.78952189 2065.52612671 163.06276112 2057.78759766 173.57275391 C2056.6448407 175.12441871 2055.49898018 176.67380571 2054.34912109 178.22021484 C2031.96465609 208.33010887 2012.22948683 240.69253757 1995 274 C1994.69749329 274.58309937 1994.39498657 275.16619873 1994.08331299 275.76696777 C1957.68027933 345.98589676 1932.93420144 422.42774184 1920.75 521.4375 C1920.66682526 522.24408051 1920.58365051 523.05066101 1920.49795532 523.88168335 C1918.39653259 544.51851558 1917.79499258 564.94720954 1917.8125 585.6875 C1917.81310425 587.0049118 1917.8137085 588.32232361 1917.81433105 589.67965698 C1917.83251648 608.53762868 1918.04237517 627.22967601 1920 646 C1920.12890625 647.29309082 1920.2578125 648.58618164 1920.390625 649.91845703 C1923.69211635 682.66714874 1929.12707782 715.03853647 1937 747 C1937.29600098 748.20720703 1937.59200195 749.41441406 1937.89697266 750.65820312 C1953.44252917 813.24355543 1978.17372192 873.70310422 2010.53027344 929.46630859 C2011.8548621 931.74979384 2013.16741041 934.03967704 2014.4765625 936.33203125 C2025.31246825 955.17247449 2037.19556217 973.44115441 2050 991 C2050.81500977 992.12365967 2050.81500977 992.12365967 2051.64648438 993.27001953 C2062.76842263 1008.58646301 2074.15188549 1023.69805753 2086.4921875 1038.05859375 C2088.85893001 1040.8345394 2091.15382031 1043.65563193 2093.4375 1046.5 C2097.810486 1051.87790918 2102.48609203 1056.93369053 2107.21484375 1061.99609375 C2109.42787414 1064.36894178 2111.57602859 1066.78580018 2113.6875 1069.25 C2116.88781493 1072.95644746 2120.34761596 1076.36305829 2123.83203125 1079.80078125 C2125.71041808 1081.70624393 2127.46001943 1083.64672321 2129.1875 1085.6875 C2136.49683746 1094.19228985 2144.65634706 1102.18558751 2153.2109375 1109.4296875 C2155.2331628 1111.20465381 2157.11214627 1113.08299023 2159 1115 C2162.1711603 1118.21434731 2165.45582753 1121.21750963 2168.87890625 1124.16015625 C2171.22491058 1126.19508819 2173.5173645 1128.28290967 2175.8125 1130.375 C2180.10473618 1134.24911881 2184.52778674 1137.92017548 2189.0234375 1141.5546875 C2192.35739076 1144.29360448 2195.61552191 1147.11091434 2198.875 1149.9375 C2204.50276111 1154.80997676 2210.29796645 1159.3850123 2216.2578125 1163.84375 C2218.70112369 1165.76498615 2220.86210641 1167.7495857 2223 1170 C2218.59167265 1174.51384582 2214.10629794 1178.84590669 2209.32421875 1182.9609375 C2206.37589638 1185.54753292 2203.50083846 1188.20835124 2200.625 1190.875 C2196.7740135 1194.44434143 2192.91122447 1197.99646017 2189 1201.5 C2185.13337433 1204.96489833 2181.30986214 1208.47304568 2177.5 1212 C2173.66844896 1215.54670217 2169.82370547 1219.07551949 2165.9375 1222.5625 C2157.61351397 1230.03654905 2149.3491148 1237.49204506 2141.546875 1245.515625 C2139.4721104 1247.53947513 2137.36662088 1249.42134491 2135.16796875 1251.3046875 C2131.00840811 1254.91307476 2127.27919876 1258.81828779 2123.5625 1262.875 C2119.44360689 1267.32454756 2115.3217293 1271.74498693 2111 1276 C2107.77488372 1279.18299722 2104.75418228 1282.47525061 2101.8046875 1285.9140625 C2099.78348724 1288.25025501 2097.70621161 1290.52964851 2095.625 1292.8125 C2091.72636603 1297.13260791 2088.02496142 1301.58071381 2084.3671875 1306.10546875 C2082.31633665 1308.61319232 2080.22632437 1311.08039433 2078.11376953 1313.53613281 C2071.67165055 1321.04155894 2065.65916808 1328.83755574 2059.71240234 1336.73876953 C2058.02856976 1338.96227358 2056.32365973 1341.16796922 2054.61328125 1343.37109375 C2038.35077487 1364.47654552 2023.41587748 1386.97848231 2010 1410 C2009.55108398 1410.76473633 2009.10216797 1411.52947266 2008.63964844 1412.31738281 C1977.52371627 1465.4675636 1953.28052286 1521.5885464 1937 1581 C1936.50741699 1582.79050781 1936.50741699 1582.79050781 1936.00488281 1584.6171875 C1927.98476472 1614.18351626 1922.50586916 1644.5792811 1919 1675 C1918.85046875 1676.20930176 1918.7009375 1677.41860352 1918.546875 1678.66455078 C1913.25998168 1722.73149022 1913.40012399 1769.97793806 1919 1814 C1919.17881327 1815.44871784 1919.35752125 1816.89744868 1919.53613281 1818.34619141 C1929.24082183 1895.9768091 1952.64625988 1970.2816351 2029.3125 2110.1875 C2029.99990768 2111.21911758 2029.99990768 2111.21911758 2030.70120239 2112.27157593 C2038.93234822 2124.59658563 2047.37568142 2136.76711167 2056.4375 2148.5 C2057.2562561 2149.56408081 2057.2562561 2149.56408081 2058.09155273 2150.6496582 C2059.7246937 2152.76878248 2061.36204156 2154.88459839 2063 2157 C2063.72171387 2157.93658447 2063.72171387 2157.93658447 2064.45800781 2158.89208984 C2070.00601624 2166.08661654 2075.71520463 2173.10115433 2081.66699219 2179.96606445 C2084.62538773 2183.37970824 2087.4971037 2186.84122866 2090.3125 2190.375 C2095.23050108 2196.43547683 2100.58963242 2202.05923107 2105.9609375 2207.71484375 C2109.05217427 2210.97069564 2112.07450261 2214.28317965 2115.08984375 2217.609375 C2120.9919692 2224.08628931 2127.14718185 2230.2991509 2133.35327148 2236.48364258 C2135.19958246 2238.32454708 2137.04042273 2240.17080272 2138.88085938 2242.01757812 C2144.21203991 2247.35176032 2149.5330906 2252.63411863 2155.2800293 2257.52514648 C2158.21582647 2260.04255609 2161.00000545 2262.72173391 2163.8125 2265.375 C2168.85431643 2270.09747432 2174.02364567 2274.5665215 2179.41796875 2278.88671875 C2182.04421768 2281.03619026 2184.55633453 2283.27460088 2187.0625 2285.5625 C2191.87480569 2289.93663657 2196.8810019 2293.99226899 2202 2298 C2203.200791 2298.94627185 2204.40129396 2299.89290929 2205.6015625 2300.83984375 C2211.92051961 2305.88620221 2211.92051961 2305.88620221 2218.4140625 2310.69921875 C2219.19910156 2311.34310547 2219.19910156 2311.34310547 2220 2312 C2220 2312.66 2220 2313.32 2220 2314 C2143.47970625 2314.22282627 2066.95937338 2314.4295178 1990.43884277 2314.55046082 C1989.30621297 2314.55225556 1988.17358316 2314.5540503 1987.00663123 2314.55589943 C1962.39119739 2314.59480774 1937.77576011 2314.63082004 1913.16031769 2314.66384928 C1901.08881129 2314.68006458 1889.01730583 2314.69691979 1876.94580078 2314.71411133 C1875.74454456 2314.7158112 1874.54328834 2314.71751106 1873.30563041 2314.71926244 C1834.37337896 2314.77465441 1795.44137288 2314.87229708 1756.50927006 2314.99186387 C1716.49955607 2315.11451692 1676.48997785 2315.19451751 1636.48007903 2315.22089487 C1630.82823614 2315.22464085 1625.17639371 2315.22887413 1619.52455139 2315.23340416 C1618.41219402 2315.23428066 1617.29983665 2315.23515716 1616.15377149 2315.23606022 C1598.25186754 2315.25141924 1580.35038358 2315.31170449 1562.44865087 2315.38881644 C1544.44879429 2315.46539136 1526.44935383 2315.49457381 1508.44934011 2315.47551791 C1497.75643194 2315.46563433 1487.06504742 2315.49194922 1476.37241456 2315.57036806 C1469.22449153 2315.61920564 1462.07756332 2315.62056816 1454.92957094 2315.58381358 C1450.85924006 2315.56422913 1446.79178437 2315.56482333 1442.72176498 2315.62348137 C1413.90757326 2316.01498955 1413.90757326 2316.01498955 1403.53110233 2305.95139631 C1402.48073091 2304.84050262 1401.44761526 2303.71293936 1400.43572778 2302.5668815 C1398.27111103 2300.20452703 1395.84115973 2298.33863006 1393.3125 2296.375 C1384.45751144 2289.11550487 1375.72529028 2281.73626136 1367.25 2274.03515625 C1365.25010625 2272.22622457 1363.22730568 2270.45108199 1361.1875 2268.6875 C1349.53498033 2258.49402796 1338.52570379 2247.68437966 1327.59570312 2236.72607422 C1325.11181551 2234.23678685 1322.62257317 2231.75294298 1320.1328125 2229.26953125 C1318.52832482 2227.66438331 1316.92414708 2226.0589255 1315.3203125 2224.453125 C1314.58789337 2223.7227301 1313.85547424 2222.99233521 1313.1008606 2222.23980713 C1309.07972083 2218.2005152 1305.22471576 2214.07074062 1301.50958252 2209.74769592 C1299.27929943 2207.16562001 1296.95053813 2204.68413628 1294.625 2202.1875 C1290.33248792 2197.54095872 1286.26661969 2192.7590076 1282.30078125 2187.828125 C1280.26153274 2185.32147657 1278.17552962 2182.86343019 1276.06616211 2180.41577148 C1270.36927156 2173.79075285 1265.09090225 2166.912816 1259.89453125 2159.890625 C1257.35895869 2156.46530458 1254.7529859 2153.10487562 1252.125 2149.75 C1222.28039322 2111.23342735 1196.8634612 2068.02197741 1176 2024 C1175.50999512 2022.96633301 1175.01999023 2021.93266602 1174.51513672 2020.86767578 C1143.78122456 1955.42138283 1125.0435526 1886.54883502 1114.61474609 1815.18115234 C1113.77589137 1809.44906109 1112.89074785 1803.72424366 1112 1798 C1111.81993408 1799.46747681 1111.81993408 1799.46747681 1111.63623047 1800.96459961 C1100.46215805 1891.41247711 1074.71934289 1977.61495181 1020 2078 C1019.54399414 2078.7940625 1019.08798828 2079.588125 1018.61816406 2080.40625 C1002.24569691 2108.89265868 983.22966377 2136.13308916 963 2162 C962.1194081 2163.13902648 961.23921007 2164.27835756 960.359375 2165.41796875 C955.18803391 2172.08925881 949.86188317 2178.59016082 944.33154297 2184.96728516 C941.39228474 2188.35859085 938.54246928 2191.79802345 935.75 2195.3125 C930.58417417 2201.68055438 924.91227059 2207.56346591 919.2578125 2213.49609375 C916.5272263 2216.36348613 913.84166188 2219.26619625 911.18180847 2222.1993103 C905.13448158 2228.85966204 898.87398862 2235.28045511 892.5012207 2241.62915039 C890.79976222 2243.32519726 889.10378737 2245.02659821 887.40820312 2246.72851562 C882.32431281 2251.81550596 877.2295815 2256.81894174 871.75512695 2261.48999023 C868.81086428 2264.02306363 866.01226794 2266.71044765 863.1875 2269.375 C858.24251138 2274.00272311 853.18772762 2278.39827818 847.8984375 2282.6328125 C844.42468153 2285.46986926 841.0597329 2288.41875756 837.6875 2291.375 C832.72205041 2295.71208022 827.68697706 2299.92988321 822.5 2304 C821.94916748 2304.43231934 821.39833496 2304.86463867 820.83081055 2305.31005859 C819.79201246 2306.11712117 818.7447282 2306.91343481 817.68747056 2307.69615938 C816.10391341 2308.91971029 814.61596249 2310.26423571 813.13841051 2311.6138913 C807.82361953 2315.35649064 801.82813825 2314.67984057 795.56668186 2314.61523914 C794.18564652 2314.61893979 792.80461563 2314.62483535 791.42359784 2314.63272163 C787.62151728 2314.64806047 783.82010561 2314.63219804 780.0180749 2314.61133096 C775.88462792 2314.59415635 771.75124864 2314.60601458 767.61778826 2314.61421841 C760.37123417 2314.62458935 753.12488528 2314.61636466 745.87835503 2314.59602737 C735.10304842 2314.56587056 724.32787137 2314.56434663 713.55253025 2314.56873732 C695.42737154 2314.57530952 677.30230391 2314.55858956 659.17717171 2314.52865028 C641.22789116 2314.4990774 623.27864853 2314.47982303 605.3293438 2314.47438622 C603.65605183 2314.47387067 603.65605183 2314.47387067 601.94895598 2314.47334471 C596.28388257 2314.47165307 590.61880912 2314.47014614 584.95373564 2314.46871033 C544.81540405 2314.45820489 504.67712203 2314.42450868 464.53881836 2314.37719727 C425.54207625 2314.33128443 386.5453477 2314.2958618 347.54858398 2314.2746582 C346.34678966 2314.27400057 345.14499533 2314.27334294 343.906783 2314.27266538 C331.8380035 2314.26607285 319.76922389 2314.25969377 307.7004442 2314.25347109 C283.11437723 2314.24078961 258.52831116 2314.22668335 233.94224548 2314.2117157 C232.81178793 2314.21102925 231.68133038 2314.2103428 230.51661653 2314.20963555 C155.01105708 2314.16362283 79.50552511 2314.08439573 4 2314 C4 2313.34 4 2312.68 4 2312 C5.79963689 2310.48078598 7.60494917 2309.07959247 9.5 2307.6875 C10.70065726 2306.78446152 11.89980887 2305.87941862 13.09765625 2304.97265625 C13.73461426 2304.49070801 14.37157227 2304.00875977 15.02783203 2303.51220703 C25.42088808 2295.54308235 35.39556878 2287.03450987 45.29541016 2278.46630859 C46.98326433 2277.01439622 48.68268958 2275.57740905 50.38671875 2274.14453125 C61.35851379 2264.89315633 71.92499723 2255.16867358 82.0078125 2244.953125 C84.58420907 2242.35625083 87.21940472 2239.90377879 90 2237.52734375 C94.3090414 2233.81479319 98.14852636 2229.74119846 102 2225.5625 C106.64404974 2220.55109867 111.33080509 2215.61380258 116.20166016 2210.82128906 C118.6173948 2208.37472641 120.85368608 2205.79411984 123.09375 2203.1875 C125.30945648 2200.64488601 127.59098592 2198.16889802 129.875 2195.6875 C133.96757435 2191.19986568 137.85270834 2186.59069772 141.6640625 2181.86328125 C143.71727862 2179.34654644 145.8145599 2176.875546 147.93481445 2174.4152832 C154.09898586 2167.2439585 159.77098297 2159.76850099 165.38574219 2152.16308594 C167.00819579 2149.98901774 168.65941326 2147.84011854 170.3203125 2145.6953125 C188.28246073 2122.37664885 204.30054675 2097.48380804 219 2072 C219.85634033 2070.52635986 219.85634033 2070.52635986 220.72998047 2069.02294922 C260.70272587 2000.0016171 288.82728594 1923.70961327 308 1788 C308.08757568 1786.74477539 308.17515137 1785.48955078 308.26538086 1784.19628906 C309.11383793 1771.21798255 309.20044023 1758.25241792 309.1875 1745.25 C309.18689575 1744.12449738 309.1862915 1742.99899475 309.18566895 1741.83938599 C309.15993805 1724.14014073 308.76947384 1706.62261312 307 1689 C306.87109375 1687.68999023 306.7421875 1686.37998047 306.609375 1685.03027344 C299.23319882 1611.49084608 279.3626791 1539.93895223 248 1473 C247.49098145 1471.90961426 246.98196289 1470.81922852 246.45751953 1469.69580078 C239.08207431 1453.96510667 231.28115734 1438.60457562 222.50976562 1423.59326172 C221.06684237 1421.11481236 219.64671304 1418.62488352 218.234375 1416.12890625 C198.66676878 1381.67096797 175.56800895 1349.45297261 150.48828125 1318.8203125 C149.18590621 1317.22738135 147.88933968 1315.6297048 146.59375 1314.03125 C137.78367386 1303.17825765 128.69279125 1292.60418514 119.15209961 1282.38769531 C116.74403321 1279.8061042 114.36002335 1277.20369851 111.9821167 1274.5942688 C105.09218733 1267.05811839 97.94803069 1259.79418156 90.71679688 1252.58642578 C88.73449756 1250.6095399 86.75767367 1248.62728961 84.78125 1246.64453125 C76.49075157 1238.34542674 76.49075157 1238.34542674 67.76269531 1230.51318359 C63.70567837 1227.03044246 59.88089385 1223.28170608 56 1219.60546875 C52.06230854 1215.8908106 48.05634843 1212.28112793 43.96875 1208.73242188 C40.74394732 1205.89472349 37.62553778 1202.94604983 34.5 1200 C30.09835718 1195.87029 25.68050638 1191.78501649 21.1015625 1187.8515625 C17.52309477 1184.6987861 14.04731948 1181.43267457 10.56591797 1178.17333984 C7.81606294 1175.61330224 5.06723922 1173.17386857 2 1171 C3.53677022 1166.80529387 6.60834435 1164.70480022 10.0625 1162.125 C11.33733001 1161.14764701 12.61070342 1160.1683919 13.8828125 1159.1875 C14.55473633 1158.67058594 15.22666016 1158.15367188 15.91894531 1157.62109375 C31.65500352 1145.36306624 46.69886217 1132.20098264 61.26879883 1118.58764648 C62.48954442 1117.46812757 63.72530559 1116.36487482 64.97143555 1115.27368164 C73.24430481 1107.99713779 80.97325859 1100.17754026 88.75073242 1092.37963867 C91.18881632 1089.93618078 93.63221789 1087.49813193 96.07617188 1085.06054688 C97.64875833 1083.48729979 99.22103464 1081.91374263 100.79296875 1080.33984375 C101.51292526 1079.62191147 102.23288177 1078.90397919 102.97465515 1078.16429138 C106.97614134 1074.14447031 110.80877372 1070.03066853 114.50779724 1065.73031616 C116.57586001 1063.332249 118.72638073 1061.01336227 120.875 1058.6875 C124.94417391 1054.22611655 128.79977816 1049.64055282 132.58984375 1044.94140625 C134.8172815 1042.22299357 137.09284528 1039.55878217 139.39501953 1036.90405273 C145.07765662 1030.34986209 150.4940071 1023.65679261 155.70507812 1016.72021484 C157.06148111 1014.91832656 158.42862023 1013.12493299 159.796875 1011.33203125 C167.830469 1000.7632787 175.47897055 989.9382079 183 979 C183.44553223 978.35240723 183.89106445 977.70481445 184.35009766 977.03759766 C238.68073129 897.68429407 277.00336464 807.13431841 306 628 C306.10803955 626.51330811 306.10803955 626.51330811 306.21826172 624.99658203 C311.60357476 546.58813826 301.00997212 465.87469383 219 254 C218.39623535 252.92862793 217.7924707 251.85725586 217.17041016 250.75341797 C208.8216283 236.00327039 199.98159049 221.65499957 190.5625 207.5625 C190.10804504 206.88238861 189.65359009 206.20227722 189.18536377 205.5015564 C180.54929403 192.61084584 171.61648943 179.95047638 162.1875 167.625 C161.5066333 166.73361328 160.8257666 165.84222656 160.12426758 164.92382812 C153.90680981 156.81857815 147.53022223 148.85497913 141 141 C140.51160645 140.41250977 140.02321289 139.82501953 139.52001953 139.21972656 C134.15120322 132.78147523 128.67335427 126.455001 123.03515625 120.25 C121.22622457 118.25010625 119.45108199 116.22730568 117.6875 114.1875 C108.02942296 103.14034712 97.82305509 92.66230291 87.43505859 82.3046875 C85.23547928 80.11051498 83.04135993 77.91098277 80.84765625 75.7109375 C79.4248 74.28874144 78.00163391 72.86685529 76.578125 71.4453125 C75.61377533 70.47792648 75.61377533 70.47792648 74.62994385 69.49099731 C70.82864994 65.70898775 66.91897768 62.10742388 62.85284424 58.61129761 C59.65359067 55.82911575 56.58481796 52.9076684 53.5 50 C49.09024435 45.86267839 44.66125621 41.77360318 40.078125 37.828125 C36.63253872 34.79704534 33.2831191 31.66173548 29.91748047 28.54248047 C26.63444709 25.50214317 23.33306497 22.48564451 20 19.5 C15.98340597 15.89299286 11.98240478 12.26968983 8 8.625 C7.43539063 8.11259766 6.87078125 7.60019531 6.2890625 7.07226562 C3.83538569 4.81907217 1.85771791 2.78657687 0 0 Z M1112 591 C1111.90501221 592.21018799 1111.81002441 593.42037598 1111.7121582 594.66723633 C1104.87812339 680.87358141 1086.50973903 762.74891827 1015.61425781 910.31835938 C1014.06396765 912.89373553 1012.53968813 915.48259523 1011.0234375 918.078125 C989.24263731 955.19117307 963.30231602 989.72003547 935.36816406 1022.39355469 C933.97483444 1024.02954842 932.59220031 1025.67412368 931.2109375 1027.3203125 C925.88154821 1033.64440366 920.40221553 1039.80096841 914.73046875 1045.8203125 C914.04150513 1046.5516037 913.3525415 1047.2828949 912.6427002 1048.03634644 C905.31939565 1055.77234015 897.82145973 1063.33005746 890.27880859 1070.8515625 C887.96983764 1073.15509127 885.66637223 1075.46403136 883.36328125 1077.7734375 C881.86750859 1079.26855047 880.37142636 1080.76335381 878.875 1082.2578125 C878.20090088 1082.93393585 877.52680176 1083.6100592 876.83227539 1084.30667114 C872.93580503 1088.18420134 868.93496789 1091.88430322 864.76802063 1095.47009277 C862.18073909 1097.70892453 859.69111674 1100.04295979 857.1875 1102.375 C852.56566169 1106.64519259 847.80576052 1110.68225373 842.90234375 1114.62890625 C839.61037678 1117.31830591 836.39980081 1120.09153868 833.1875 1122.875 C825.04945572 1129.90618008 816.62924432 1136.58068411 808 1143 C809.59775575 1147.20409482 812.72972123 1149.76819164 816 1152.6875 C816.58450928 1153.21786865 817.16901855 1153.7482373 817.77124023 1154.29467773 C819.50891689 1155.86905409 821.25352511 1157.43539622 823 1159 C823.87785156 1159.79148437 824.75570312 1160.58296875 825.66015625 1161.3984375 C827.26251011 1162.8418587 828.8666811 1164.28326523 830.47265625 1165.72265625 C833.849234 1168.7652294 837.19480481 1171.84118744 840.54150391 1174.91650391 C843.65651092 1177.77616612 846.78860242 1180.61523037 849.9375 1183.4375 C854.38937261 1187.43203738 858.78509137 1191.4844489 863.17236328 1195.54956055 C866.52314154 1198.65024377 869.90367649 1201.71295294 873.3125 1204.75 C877.0387506 1208.08496419 880.57893535 1211.55429687 884.0859375 1215.1171875 C885.9141646 1216.91556599 887.79833695 1218.58747222 889.75 1220.25 C897.49191998 1226.92301584 904.67261691 1234.29409724 911.29296875 1242.07421875 C913.27599795 1244.31136611 915.37193386 1246.40054652 917.5 1248.5 C920.89268399 1251.85256779 924.09100684 1255.29475682 927.1953125 1258.9140625 C929.21651276 1261.25025501 931.29378839 1263.52964851 933.375 1265.8125 C937.19597138 1270.05088843 940.84247331 1274.39879103 944.4296875 1278.8359375 C946.35180461 1281.2128481 948.29965269 1283.56675943 950.2578125 1285.9140625 C957.6123334 1294.74317406 964.71767987 1303.70152624 971.51123047 1312.96972656 C972.50171812 1314.32048014 973.49552569 1315.66880569 974.49267578 1317.01464844 C1001.07792883 1352.90259262 1023.89500715 1391.1466573 1044 1431 C1044.72268066 1432.42916748 1044.72268066 1432.42916748 1045.45996094 1433.88720703 C1058.72666695 1460.32175432 1069.5102321 1488.01070694 1079 1516 C1079.34192383 1516.99596191 1079.68384766 1517.99192383 1080.03613281 1519.01806641 C1096.75323384 1568.00552067 1106.01239538 1618.70643564 1112 1670 C1112.33 1670 1112.66 1670 1113 1670 C1113.08975098 1669.15856445 1113.17950195 1668.31712891 1113.27197266 1667.45019531 C1122.31568697 1583.90564642 1144.62341057 1503.65810636 1210 1377 C1210.80751709 1375.65566895 1210.80751709 1375.65566895 1211.63134766 1374.28417969 C1219.92798177 1360.51443933 1228.81230892 1347.18912981 1238 1334 C1238.45439453 1333.34483398 1238.90878906 1332.68966797 1239.37695312 1332.01464844 C1256.62571549 1307.20759322 1275.70176534 1283.57258853 1296.0078125 1261.20703125 C1297.76193381 1259.26373999 1299.47972694 1257.29640552 1301.1875 1255.3125 C1311.14447588 1243.94904546 1321.70728383 1233.19030895 1332.375 1222.5 C1332.9385318 1221.93388 1333.5020636 1221.36776001 1334.08267212 1220.78448486 C1339.63416722 1215.21290162 1345.18583165 1209.68997666 1351.17138672 1204.57910156 C1354.5040594 1201.7011674 1357.67689028 1198.6505992 1360.875 1195.625 C1366.03328333 1190.76633345 1371.22443982 1185.95684446 1376.51171875 1181.23828125 C1379.53377825 1178.51985096 1382.51762413 1175.76181016 1385.5 1173 C1389.30977927 1169.47295837 1393.13337642 1165.96489645 1397 1162.5 C1398.17175781 1161.44232422 1398.17175781 1161.44232422 1399.3671875 1160.36328125 C1400.80357781 1159.0739398 1402.24231245 1157.78712019 1403.69238281 1156.51318359 C1405.51203877 1154.91425513 1407.31885893 1153.30166512 1409.125 1151.6875 C1409.70636719 1151.18347656 1410.28773438 1150.67945313 1410.88671875 1150.16015625 C1412.71592846 1148.55653576 1412.71592846 1148.55653576 1415 1146 C1415.43742607 1142.14700635 1415.43742607 1142.14700635 1413.59814453 1140.38769531 C1412.62530518 1139.61570801 1412.62530518 1139.61570801 1411.6328125 1138.828125 C1410.91714111 1138.25046387 1410.20146973 1137.67280273 1409.46411133 1137.07763672 C1408.69220459 1136.4745166 1407.92029785 1135.87139648 1407.125 1135.25 C1406.34213623 1134.6223877 1405.55927246 1133.99477539 1404.75268555 1133.34814453 C1402.5106651 1131.55387824 1400.25744121 1129.77480124 1398 1128 C1396.26983632 1126.62625476 1394.54043874 1125.2515428 1392.8125 1123.875 C1392.05324219 1123.27042969 1391.29398438 1122.66585937 1390.51171875 1122.04296875 C1381.71347757 1114.88670104 1373.22000851 1107.38747189 1364.9140625 1099.66796875 C1362.67729646 1097.6200985 1360.42083363 1095.61423314 1358.1328125 1093.625 C1347.13467745 1084.03372377 1336.70600877 1073.7994301 1326.375 1063.5 C1325.54645508 1062.67604736 1324.71791016 1061.85209473 1323.86425781 1061.00317383 C1319.6332426 1056.76141345 1315.56402819 1052.44492531 1311.65771484 1047.90283203 C1308.90606266 1044.74430816 1306.00607889 1041.72747083 1303.125 1038.6875 C1298.29019802 1033.54630279 1293.67260007 1028.3137549 1289.265625 1022.796875 C1286.62063728 1019.53168326 1283.87688155 1016.36247952 1281.125 1013.1875 C1275.18643251 1006.29674135 1269.52475579 999.22576202 1264 992 C1263.43410156 991.26007813 1262.86820313 990.52015625 1262.28515625 989.7578125 C1235.43158084 954.53054154 1211.35748894 917.35441054 1191 878 C1190.69749329 877.41690063 1190.39498657 876.83380127 1190.08331299 876.23303223 C1156.18446914 810.84451182 1133.13982207 740.84124984 1115.75 627.625 C1115.66682526 626.82268951 1115.58365051 626.02037903 1115.49795532 625.1937561 C1114.33255167 613.80877152 1113.54748383 602.43085018 1113 591 C1112.67 591 1112.34 591 1112 591 Z " fill="#FFFFFF" transform="translate(0,0)"/>
<path d="M0 0 C2 1 2 1 2 1 Z " fill="#FFFFFF" transform="translate(2225,1169)"/>
<path d="" fill="#FFFFFF" transform="translate(0,0)"/>
</svg>
