<svg width="134" height="128" viewBox="0 0 134 128" fill="none" xmlns="http://www.w3.org/2000/svg">
<circle cx="64" cy="64" r="64" fill="white"/>
<path d="M43.134 61.9393C43.134 61.9393 40.782 57.8737 36.414 57.8737C32.046 57.8737 31.4524 61.76 32.6396 66.6656C33.67 70.9552 37.4444 75.3568 40.0428 75.3568C42.6412 75.3568 45.1052 72.68 45.1052 72.68L43.134 61.9393Z" fill="white"/>
<path d="M43.134 61.9393C43.134 61.9393 40.782 57.8737 36.414 57.8737C32.046 57.8737 31.4524 61.76 32.6396 66.6656C33.67 70.9552 37.4444 75.3568 40.0428 75.3568C42.6412 75.3568 45.1052 72.68 45.1052 72.68L43.134 61.9393Z" stroke="#131623" stroke-width="2" stroke-miterlimit="10"/>
<path d="M86.0303 61.9393C86.0303 61.9393 88.3823 57.8737 92.7503 57.8737C97.1183 57.8737 97.7119 61.76 96.5359 66.6656C95.4943 70.9552 91.7311 75.3568 89.1215 75.3568C86.5119 75.3568 84.0703 72.68 84.0703 72.68L86.0303 61.9393Z" fill="white"/>
<path d="M86.0303 61.9393C86.0303 61.9393 88.3823 57.8737 92.7503 57.8737C97.1183 57.8737 97.7119 61.76 96.5359 66.6656C95.4943 70.9552 91.7311 75.3568 89.1215 75.3568C86.5119 75.3568 84.0703 72.68 84.0703 72.68L86.0303 61.9393Z" stroke="#131623" stroke-width="2" stroke-miterlimit="10"/>
<path d="M76.2298 90.9697V82.2897H52.8778V90.9697C52.6874 95.2481 49.8202 101.453 42.7418 105.53C45.5887 108.435 48.9867 110.744 52.7369 112.319C56.4871 113.895 60.514 114.707 64.5819 114.707C68.6497 114.707 72.6766 113.895 76.4268 112.319C80.1769 110.744 83.575 108.435 86.4219 105.53C79.3435 101.442 76.4762 95.2369 76.2858 90.9697" fill="white"/>
<path d="M86.3658 105.541C79.2874 101.453 76.4202 95.2481 76.2298 90.9809V82.3009H52.8778V90.9809C52.6874 95.2593 49.8202 101.464 42.7418 105.541" stroke="#131623" stroke-width="2" stroke-miterlimit="10"/>
<path d="M91.4401 52.6993C91.4401 71.0897 81.9985 94.52 64.5601 94.52C46.8305 94.52 37.6801 71.0897 37.6801 52.6993C37.6801 34.3089 51.1201 25.08 64.5601 25.08C78.0001 25.08 91.4401 34.3089 91.4401 52.6993Z" fill="white"/>
<path d="M73.4752 41.0626C73.4752 41.0626 74.7464 46.5981 80.8092 55.0396C83.1475 58.0951 87.5832 59.9567 90.891 61.48C90.891 61.48 100.074 25.64 65.1309 25.64C30.1883 25.64 38.8108 61.48 38.8108 61.48C38.8108 61.48 48.9713 60.7965 60.9258 52.1704C70.5823 45.2142 73.5078 41.0996 73.5078 41.0996" fill="#0079C8"/>
<path d="M89.771 60.92C86.397 59.3722 83.3952 56.9471 81.0101 53.8423C74.8259 45.2647 73.5292 39.64 73.5292 39.64C73.5292 39.64 70.5618 43.8586 60.7287 50.9269C48.5349 59.692 41.611 60.92 41.611 60.92" stroke="#131623" stroke-width="2" stroke-linecap="round" stroke-linejoin="round"/>
<path d="M54.1883 27.0065C57.4972 25.7308 61.0133 25.0775 64.5596 25.08C77.9996 25.08 91.4396 34.3089 91.4396 52.6993C91.4396 71.0897 81.998 94.52 64.5596 94.52C46.83 94.52 37.6796 71.0897 37.6796 52.6993C37.5151 46.6517 39.2889 40.71 42.7419 35.7424" stroke="#131623" stroke-width="2" stroke-linecap="round" stroke-linejoin="round"/>
<mask id="path-12-inside-1_1_4952" fill="white">
<path d="M67.0126 77.72C66.2946 77.8132 65.6244 78.1307 65.0974 78.6272C64.9413 78.7605 64.7427 78.8338 64.5374 78.8338C64.3321 78.8338 64.1335 78.7605 63.9774 78.6272C63.4504 78.1307 62.7802 77.8132 62.0622 77.72C61.2334 77.72 59.1614 79.0641 58.1198 79.7809C58.0359 79.835 57.9647 79.9065 57.911 79.9906C57.8573 80.0747 57.8223 80.1694 57.8085 80.2683C57.7946 80.3671 57.8023 80.4678 57.8309 80.5634C57.8595 80.6591 57.9084 80.7474 57.9742 80.8224C58.971 81.9424 61.4574 84.44 64.5262 84.44C67.595 84.44 70.1262 81.9872 71.067 80.8224C71.1317 80.7473 71.1798 80.6594 71.2083 80.5645C71.2367 80.4696 71.2449 80.3699 71.2322 80.2717C71.2195 80.1734 71.1863 80.0789 71.1347 79.9943C71.0831 79.9097 71.0142 79.8371 70.9326 79.7809C69.8798 79.0641 67.819 77.72 66.979 77.72"/>
</mask>
<path d="M67.0126 77.72C66.2946 77.8132 65.6244 78.1307 65.0974 78.6272C64.9413 78.7605 64.7427 78.8338 64.5374 78.8338C64.3321 78.8338 64.1335 78.7605 63.9774 78.6272C63.4504 78.1307 62.7802 77.8132 62.0622 77.72C61.2334 77.72 59.1614 79.0641 58.1198 79.7809C58.0359 79.835 57.9647 79.9065 57.911 79.9906C57.8573 80.0747 57.8223 80.1694 57.8085 80.2683C57.7946 80.3671 57.8023 80.4678 57.8309 80.5634C57.8595 80.6591 57.9084 80.7474 57.9742 80.8224C58.971 81.9424 61.4574 84.44 64.5262 84.44C67.595 84.44 70.1262 81.9872 71.067 80.8224C71.1317 80.7473 71.1798 80.6594 71.2083 80.5645C71.2367 80.4696 71.2449 80.3699 71.2322 80.2717C71.2195 80.1734 71.1863 80.0789 71.1347 79.9943C71.0831 79.9097 71.0142 79.8371 70.9326 79.7809C69.8798 79.0641 67.819 77.72 66.979 77.72" fill="#131623"/>
<path d="M65.0974 78.6272L65.7468 79.3877L65.7654 79.3718L65.7832 79.3551L65.0974 78.6272ZM63.9774 78.6272L63.2917 79.3551L63.3095 79.3718L63.3281 79.3877L63.9774 78.6272ZM62.0622 77.72L62.191 76.7283L62.1269 76.72H62.0622V77.72ZM58.1198 79.7809L58.6618 80.6213L58.6744 80.6132L58.6867 80.6047L58.1198 79.7809ZM57.9742 80.8224L57.2226 81.482L57.2272 81.4872L57.9742 80.8224ZM71.067 80.8224L70.3093 80.1698L70.299 80.1818L70.2891 80.1941L71.067 80.8224ZM70.9326 79.7809L71.4998 78.9573L71.4954 78.9543L70.9326 79.7809ZM66.8839 76.7283C65.957 76.8486 65.0918 77.2585 64.4117 77.8994L65.7832 79.3551C66.1569 79.0029 66.6323 78.7777 67.1414 78.7116L66.8839 76.7283ZM64.4481 77.8667C64.4729 77.8455 64.5046 77.8338 64.5374 77.8338V79.8338C64.9809 79.8338 65.4097 79.6756 65.7468 79.3877L64.4481 77.8667ZM64.5374 77.8338C64.5703 77.8338 64.6019 77.8455 64.6268 77.8667L63.3281 79.3877C63.6652 79.6756 64.094 79.8338 64.5374 79.8338V77.8338ZM64.6632 77.8994C63.983 77.2586 63.1179 76.8486 62.191 76.7283L61.9335 78.7116C62.4426 78.7777 62.9179 79.0029 63.2917 79.3551L64.6632 77.8994ZM62.0622 76.72C61.6427 76.72 61.2009 76.8744 60.8562 77.019C60.4786 77.1775 60.0714 77.3888 59.6782 77.6114C58.8895 78.0579 58.0838 78.5918 57.5529 78.9571L58.6867 80.6047C59.1975 80.2532 59.9485 79.7566 60.6635 79.3518C61.022 79.1489 61.3534 78.9793 61.6299 78.8633C61.9394 78.7335 62.0674 78.72 62.0622 78.72V76.72ZM57.5779 78.9405C57.3732 79.0724 57.1994 79.247 57.0683 79.4523L58.7537 80.5289C58.73 80.566 58.6987 80.5975 58.6618 80.6213L57.5779 78.9405ZM57.0683 79.4523C56.9372 79.6574 56.8518 79.8885 56.8181 80.1298L58.7988 80.4067C58.7927 80.4504 58.7773 80.492 58.7537 80.5289L57.0683 79.4523ZM56.8181 80.1298C56.7844 80.3709 56.803 80.6165 56.8728 80.8501L58.7889 80.2768C58.8016 80.3191 58.8049 80.3634 58.7988 80.4067L56.8181 80.1298ZM56.8728 80.8501C56.9427 81.0836 57.0621 81.2991 57.2226 81.482L58.7258 80.1628C58.7547 80.1956 58.7763 80.2345 58.7889 80.2768L56.8728 80.8501ZM57.2272 81.4872C57.751 82.0757 58.685 83.0487 59.9128 83.8794C61.1363 84.7072 62.7201 85.44 64.5262 85.44V83.44C63.2635 83.44 62.0697 82.924 61.0336 82.2229C60.0018 81.5248 59.1943 80.6891 58.7212 80.1576L57.2272 81.4872ZM64.5262 85.44C66.3264 85.44 67.9194 84.723 69.1507 83.8991C70.385 83.0732 71.3251 82.0944 71.845 81.4507L70.2891 80.1941C69.8682 80.7152 69.0723 81.5452 68.0385 82.2369C67.0018 82.9305 65.7948 83.44 64.5262 83.44V85.44ZM71.8247 81.475C71.9811 81.2934 72.0974 81.081 72.1661 80.8518L70.2504 80.2773C70.2622 80.2379 70.2822 80.2013 70.3093 80.1698L71.8247 81.475ZM72.1661 80.8518C72.2349 80.6224 72.2546 80.3812 72.224 80.1437L70.2404 80.3997C70.2351 80.3587 70.2385 80.3169 70.2504 80.2773L72.1661 80.8518ZM72.224 80.1437C72.1934 79.9067 72.1133 79.6781 71.9883 79.4733L70.2811 80.5153C70.2593 80.4796 70.2456 80.4402 70.2404 80.3997L72.224 80.1437ZM71.9883 79.4733C71.8632 79.2685 71.6966 79.0928 71.4998 78.9573L70.3654 80.6044C70.3318 80.5813 70.3029 80.551 70.2811 80.5153L71.9883 79.4733ZM71.4954 78.9543C70.9627 78.5915 70.1571 78.0577 69.3687 77.6114C68.9754 77.3888 68.568 77.1773 68.1892 77.0187C67.8422 76.8735 67.4001 76.72 66.979 76.72V78.72C66.9778 78.72 67.1084 78.7345 67.4169 78.8636C67.6937 78.9795 68.0248 79.1488 68.3834 79.3518C69.0986 79.7568 69.8498 80.2534 70.3698 80.6075L71.4954 78.9543Z" fill="#131623" mask="url(#path-12-inside-1_1_4952)"/>
<path d="M71.134 62.2416C71.8508 63.5072 73.7772 64.4816 76.0508 64.4816C78.3244 64.4816 80.2509 63.5632 80.9677 62.2416" stroke="#131623" stroke-width="2" stroke-linecap="round" stroke-linejoin="round"/>
<path d="M57.9967 62.2416C57.2799 63.5072 55.3647 64.4816 53.0799 64.4816C50.7951 64.4816 48.8911 63.5632 48.1631 62.2416" stroke="#131623" stroke-width="2" stroke-linecap="round" stroke-linejoin="round"/>
</svg>
