<svg width="144" height="38" viewBox="0 0 144 38" fill="none" xmlns="http://www.w3.org/2000/svg">
<path d="M52.9979 3.89652H64.9426C67.9915 3.89652 70.3231 4.72766 71.6234 6.24694C72.1433 6.84312 72.5246 7.5464 72.74 8.3065C72.9555 9.06661 72.9998 9.86477 72.8699 10.6439V10.7244C72.7125 12.017 72.2148 13.2451 71.4273 14.2842C70.6399 15.3232 69.5906 16.1362 68.3861 16.6406C71.3723 17.6952 73.3272 19.4826 72.8699 23.0842V23.1646C72.287 27.9012 68.0543 30.4393 62.1089 30.4393H49.7247L52.9979 3.89652ZM63.1581 19.0268H55.733L54.8362 26.3104H62.6021C65.7945 26.3104 67.8929 25.0593 68.1888 22.6642V22.5927C68.4758 20.3495 66.8527 19.0268 63.1581 19.0268ZM68.0902 11.4036C68.3502 9.32126 66.8347 8.04327 63.8306 8.04327H57.096L56.1993 15.1035H62.5931C65.5972 15.1035 67.7584 13.9238 68.0543 11.5287L68.0902 11.4036ZM75.9995 23.1646L77.5688 10.4205H82.1781L80.7702 21.7973C80.3936 24.9073 81.7387 26.65 84.4738 26.65C87.2089 26.65 89.2266 24.8627 89.6122 21.7168L91.0021 10.4205H95.6473L93.1812 30.4393H88.5361L88.9217 27.3293C88.1678 28.4142 87.1652 29.3045 85.9971 29.9262C84.829 30.5479 83.5291 30.8831 82.205 30.904C77.6764 30.8594 75.4256 27.8208 75.9995 23.1646ZM100.059 10.4205H104.66L104.256 13.754C105.103 12.6104 106.202 11.6768 107.47 11.0258C108.738 10.3748 110.139 10.0239 111.565 10.0005C116.281 10.0005 120.433 13.7183 119.635 20.3942V20.4657C118.819 27.1058 113.789 30.8594 109.027 30.8594C107.733 30.9007 106.452 30.5897 105.323 29.9598C104.193 29.3299 103.257 28.405 102.615 27.2846L101.485 36.4628H96.8489L100.059 10.4205ZM114.918 20.4657V20.3942C115.394 16.5245 113.125 13.9864 109.959 13.9864C108.262 14.0733 106.653 14.7703 105.431 15.9484C104.21 17.1266 103.458 18.7059 103.314 20.3942V20.4657C102.839 24.2996 105.26 26.8735 108.381 26.8735C111.502 26.8735 114.434 24.4158 114.918 20.4657ZM121.994 20.4657V20.3942C122.81 13.754 127.805 10.0005 132.602 10.0005C133.896 9.95818 135.177 10.2688 136.307 10.8987C137.437 11.5287 138.373 12.4542 139.014 13.5753L139.4 10.4652H144L141.534 30.484H136.934L137.337 27.1505C136.491 28.2941 135.391 29.2277 134.123 29.8787C132.856 30.5297 131.454 30.8806 130.029 30.904C125.321 30.8594 121.178 27.1058 121.958 20.4657H121.994ZM138.243 20.4657V20.3942C138.718 16.5245 136.297 13.9864 133.212 13.9864C130.127 13.9864 127.123 16.4083 126.639 20.3942V20.4657C126.164 24.3354 128.513 26.8735 131.634 26.8735C134.755 26.8735 137.768 24.2996 138.243 20.4657ZM34.8208 27.2756H38.1298V38H0V27.2756H10.5189C11.7536 27.3061 12.9777 27.0412 14.0885 26.5032C15.1994 25.9652 16.1648 25.1697 16.9037 24.1834L18.8317 27.8029C18.9276 27.9829 19.0762 28.1295 19.2579 28.223C19.4395 28.3166 19.6455 28.3527 19.8483 28.3264C20.051 28.3002 20.2409 28.2129 20.3926 28.0763C20.5442 27.9396 20.6504 27.76 20.697 27.5616L24.7413 9.92897L26.6424 31.3777C26.6599 31.6317 26.7612 31.8727 26.9305 32.0633C27.0999 32.2539 27.3277 32.3832 27.5786 32.4312C27.8294 32.4791 28.0892 32.443 28.3172 32.3284C28.5453 32.2138 28.7289 32.0272 28.8395 31.7977L31.9063 25.4614C32.1951 25.9877 32.6148 26.431 33.1253 26.7487C33.6357 27.0665 34.2196 27.2479 34.8208 27.2756ZM0 0V25.2648H10.5189C11.6265 25.266 12.7134 24.9652 13.6618 24.395C14.6102 23.8247 15.384 23.0067 15.8994 22.0296C16.0264 21.7944 16.2003 21.5876 16.4105 21.4219C16.5279 21.3459 16.6597 21.2949 16.7979 21.2722C16.936 21.2495 17.0773 21.2555 17.2129 21.2899C17.3486 21.3244 17.4756 21.3864 17.586 21.4722C17.6964 21.558 17.7877 21.6656 17.8543 21.7883L19.3608 24.5499L23.8356 5.46049C23.903 5.16525 24.0735 4.90346 24.3165 4.72179C24.5596 4.54011 24.8595 4.45034 25.1628 4.46849C25.4624 4.48647 25.7456 4.61085 25.9612 4.81907C26.1767 5.0273 26.3102 5.30558 26.3375 5.60348L28.409 28.4017L31.0006 22.8876C31.0734 22.7504 31.1767 22.6315 31.3026 22.5401C31.4284 22.4488 31.5736 22.3872 31.727 22.3603C31.8871 22.332 32.0516 22.3416 32.2073 22.3881C32.3631 22.4347 32.5057 22.517 32.6237 22.6284C32.8276 22.8506 32.9942 23.1041 33.117 23.3791C33.4487 24.0315 34.0765 25.2291 34.8566 25.2291H38.1656V0H0Z" fill="#0079C8"/>
</svg>
