<svg width="152" height="152" viewBox="0 0 152 152" fill="none" xmlns="http://www.w3.org/2000/svg">
<path d="M75.9998 12.6641C110.978 12.6641 139.333 41.0194 139.333 75.9974C139.333 110.975 110.978 139.331 75.9998 139.331C65.7507 139.331 55.8461 136.89 46.9479 132.288L22.7178 139.048C18.5066 140.224 14.1395 137.763 12.9636 133.552C12.5744 132.159 12.5746 130.685 12.9638 129.293L19.7257 105.081C15.1135 96.1752 12.6665 86.2591 12.6665 75.9974C12.6665 41.0194 41.0218 12.6641 75.9998 12.6641Z" fill="#0078D7" fill-opacity="0.1"/>
<g clip-path="url(#clip0_5455_23856)">
<path d="M111.826 78.5251L75.663 114.683L40 79.0204L76.0204 43C76.0204 43 111.489 78.1677 111.826 78.5251Z" fill="#6EFFFC"/>
<path d="M75.5915 78.806L40.0102 43L40 79.0204L75.663 114.683L75.5915 78.806Z" fill="#119DFF"/>
<path d="M75.663 114.683L75.5915 78.8051L74.5345 77.7379L74.5396 77.7276L73.4774 76.6706L58 61.0859L40 79.0196L46.24 85.2596L75.663 114.683Z" fill="#1A345C"/>
</g>
<defs>
<clipPath id="clip0_5455_23856">
<rect width="72" height="72" fill="white" transform="translate(40 43)"/>
</clipPath>
</defs>
</svg>
