<svg width="140" height="27" viewBox="0 0 140 27" fill="none" xmlns="http://www.w3.org/2000/svg">
<g clip-path="url(#clip0_1_3)">
<path d="M36.4134 3.51329H38.9271C38.9271 3.51329 45.6718 17.4316 46.2115 18.579C47.9951 15.3624 53.5594 3.51329 53.5594 3.51329H56.2002L58.9362 25.0844H53.7846C53.7846 25.0844 52.9563 13.611 52.5262 10.5823L45.5449 25.0844H44.2404L37.4639 10.9984C36.8925 14.7237 36.0757 25.0844 36.0757 25.0844H33.106L36.4134 3.51329Z" fill="#1B3760"/>
<path d="M73.225 23.9949C71.7754 24.9671 70.0632 25.4714 68.3187 25.4399C63.6751 25.4399 60.7804 22.414 60.7804 17.5068C60.7804 12.666 63.5163 9.64014 67.8743 9.64014C72.1052 9.64014 74.492 12.1573 74.492 16.5762C74.492 16.7351 74.4603 17.1542 74.4285 17.6253C74.5266 17.5993 65.3605 17.5299 65.3605 17.5299C65.3923 19.2495 65.5539 20.2378 65.9983 21.1309C66.6505 22.5604 68.0857 23.4679 69.655 23.4429C71.0545 23.439 72.4031 22.9172 73.4415 21.9776C73.4415 21.9776 73.2856 23.833 73.225 23.9949ZM70.2033 16.0618C70.2033 12.7151 69.2798 10.9349 67.9753 10.9349C66.4168 10.9349 65.5279 12.7498 65.4327 16.0618H70.2033Z" fill="#1B3760"/>
<path d="M91.6092 1.40936V25.0844H87.0608C87.0608 25.0844 87.2513 23.3504 87.2513 22.3765C86.2007 24.6047 84.9626 25.4341 82.7346 25.4341C78.9163 25.4341 76.6594 22.5672 76.6594 17.7553C76.6594 12.8192 79.1415 9.63436 82.9251 9.63436C84.9309 9.63436 86.2671 10.3973 87.156 12.0562C87.156 8.20091 86.8674 1.41514 86.8674 1.41514L91.6092 1.40936ZM81.3349 17.7495C81.3349 21.4777 82.2901 23.5151 84.0708 23.5151C85.1531 23.5151 86.0738 22.7204 86.4894 21.4921C86.9116 20.0543 87.1254 18.5633 87.1243 17.0646C87.1243 13.5619 86.1373 11.6486 84.3248 11.6486C82.4171 11.6343 81.3349 13.8336 81.3349 17.7495Z" fill="#1B3760"/>
<path d="M100.596 4.7849C100.596 6.14799 99.4929 7.25298 98.1317 7.25298C96.7705 7.25298 95.667 6.14799 95.667 4.7849C95.667 3.90314 96.1368 3.08837 96.8994 2.64749C97.6619 2.20661 98.6015 2.20661 99.3641 2.64749C100.127 3.08837 100.596 3.90314 100.596 4.7849ZM100.469 9.98694V25.0844H95.7305V9.97827C96.5135 10.1091 97.3061 10.1739 98.1 10.1719C98.8938 10.1752 99.6866 10.1104 100.469 9.97827V9.98694Z" fill="#1B3760"/>
<path d="M115.636 14.215C115.347 12.2412 114.172 11.062 112.423 11.062C109.941 11.062 108.446 13.4174 108.446 17.2727C108.446 19.3448 108.894 20.9054 109.751 21.9227C110.622 22.8666 111.85 23.3986 113.133 23.388C114.422 23.4128 115.664 22.9059 116.568 21.9863L116.346 24.122C114.888 25.0054 113.212 25.4583 111.509 25.4283C106.77 25.4283 103.748 22.4025 103.748 17.6542C103.748 12.718 106.96 9.62858 112.118 9.62858C114.216 9.62858 115.904 10.0736 117.336 10.9667L115.636 14.215Z" fill="#1B3760"/>
<path d="M119.771 11.825C121.679 10.2326 123.396 9.62858 125.847 9.62858C128.297 9.62858 130.014 10.3915 130.808 11.7614C131.445 12.877 131.509 13.3856 131.509 17.5588V19.6945C131.509 21.8591 131.572 22.5296 131.731 22.9747C131.989 23.464 132.495 23.7709 133.047 23.7723C133.218 23.7612 133.387 23.7399 133.555 23.7088C133.555 23.7088 131.647 25.2376 130.565 25.2376C128.943 25.2376 128.054 24.5989 127.448 23.0383C126.037 24.7954 124.966 25.4283 123.235 25.4283C120.562 25.4283 118.813 23.8041 118.813 21.3505C118.813 20.0442 119.289 18.9287 120.213 18.1975C120.882 17.6195 121.581 17.3305 123.139 16.8912C125.621 16.2207 125.737 16.1889 126.314 15.8392C126.8 15.5118 127.088 14.9605 127.079 14.374C127.079 12.7816 125.838 11.6025 124.193 11.6025C122.603 11.6025 121.33 12.5273 120.629 14.2468L119.771 11.825ZM127.341 16.7958C126.452 17.0924 125.59 17.4657 124.764 17.9114C123.653 18.5154 123.269 19.2812 123.269 20.8737C123.269 22.4661 123.875 23.2926 125.018 23.2926C125.832 23.2825 126.575 22.831 126.961 22.1135C127.215 21.6684 127.31 20.9575 127.31 19.6309C127.31 19.4084 127.341 16.7958 127.341 16.7958Z" fill="#1B3760"/>
<path d="M136.043 23.5932C136.025 22.968 136.388 22.3947 136.96 22.144C137.532 21.8932 138.199 22.0152 138.646 22.4523C139.093 22.8894 139.23 23.5542 138.992 24.1327C138.755 24.7112 138.191 25.0877 137.567 25.0844C137.162 25.1074 136.766 24.9588 136.477 24.6752C136.187 24.3915 136.029 23.9988 136.043 23.5932ZM138.854 23.5932C138.876 23.1207 138.637 22.6742 138.232 22.4313C137.827 22.1884 137.321 22.1884 136.916 22.4313C136.511 22.6742 136.272 23.1207 136.294 23.5932C136.326 24.2774 136.89 24.8154 137.574 24.8154C138.258 24.8154 138.821 24.2774 138.854 23.5932ZM137.018 22.7955H137.619C138.02 22.7955 138.216 22.9429 138.216 23.2521C138.23 23.4643 138.075 23.6499 137.864 23.6741L138.271 24.3706H137.982L137.61 23.7145H137.295V24.3706H137.027L137.018 22.7955ZM137.596 23.5151C137.864 23.5151 137.956 23.4313 137.956 23.2492C137.956 23.0672 137.861 22.9978 137.599 22.9978H137.31V23.5151H137.596Z" fill="#1B3760"/>
<path d="M18.5112 26.7924L13.7809 22.8909L9.05067 26.7924C8.79205 27.0063 8.43336 27.0513 8.13002 26.908L7.50952 26.619C1.83859 23.7168 -1.10777 17.3014 0.382735 11.1012C1.87324 4.90098 7.41232 0.531067 13.7809 0.531067C20.1495 0.531067 25.6886 4.90098 27.1791 11.1012C28.6696 17.3014 25.7233 23.7168 20.0523 26.619L19.4318 26.908C19.1285 27.0513 18.7698 27.0063 18.5112 26.7924ZM15.5847 21.3939L19.2587 24.4139C23.8667 21.9029 26.1867 16.5815 24.8929 11.4904C23.5991 6.39923 19.0213 2.83556 13.7751 2.83556C8.52895 2.83556 3.95116 6.39923 2.65739 11.4904C1.36362 16.5815 3.68356 21.9029 8.29164 24.4139L11.9656 21.3939L7.08816 17.3738C5.94617 16.4438 5.28155 15.0494 5.27764 13.5754C5.27372 12.1013 5.93093 10.7034 7.06795 9.7673L7.20937 9.64881C8.97942 8.1672 11.5549 8.1672 13.3249 9.64881L13.7809 10.0419L14.2369 9.64881C16.0078 8.16954 18.5816 8.16954 20.3525 9.64881L20.491 9.7673C21.632 10.697 22.2944 12.0917 22.2944 13.5648C22.2944 15.0378 21.632 16.4326 20.491 17.3623L20.4708 17.3796L15.5847 21.3939ZM10.2657 10.8482C9.70127 10.8405 9.15231 11.033 8.71589 11.3915L8.57736 11.5129C7.94994 12.006 7.58352 12.7603 7.58352 13.559C7.58352 14.3577 7.94994 15.1121 8.57736 15.6051L13.7723 19.8968L18.9931 15.5994C19.6184 15.1062 19.9833 14.3531 19.9833 13.5561C19.9833 12.7591 19.6184 12.0061 18.9931 11.5129L18.8546 11.3915C17.9475 10.6656 16.6592 10.6656 15.7521 11.3915L14.3466 12.5995C14.0216 12.8804 13.5402 12.8804 13.2153 12.5995L11.8328 11.3915C11.3917 11.0293 10.836 10.8367 10.2657 10.8482Z" fill="#1CA08E"/>
</g>
<defs>
<clipPath id="clip0_1_3">
<rect width="140" height="27" fill="white"/>
</clipPath>
</defs>
</svg>
