<svg width="56" height="56" viewBox="0 0 56 56" fill="none" xmlns="http://www.w3.org/2000/svg">
<path d="M20.72 35.84C21.0894 36.1046 21.5156 36.279 21.9644 36.3495C22.4133 36.4199 22.8724 36.3843 23.3051 36.2455C23.7377 36.1067 24.1319 35.8686 24.4561 35.5502C24.7803 35.2319 25.0254 34.8421 25.172 34.412L26.432 30.576C26.7508 29.614 27.2885 28.739 28.0027 28.02C28.7169 27.3009 29.5882 26.7573 30.548 26.432L34.468 25.172C35.0606 24.9731 35.5735 24.5887 35.9308 24.0757C36.288 23.5628 36.4708 22.9485 36.4519 22.3236C36.4331 21.6988 36.2137 21.0966 35.8261 20.6061C35.4386 20.1156 34.9035 19.7629 34.3 19.6L30.464 18.34C29.502 18.0212 28.627 17.4835 27.908 16.7693C27.1889 16.0551 26.6453 15.1838 26.32 14.224L25.06 10.36C24.8872 9.86351 24.5819 9.4237 24.1773 9.08812C23.7726 8.75255 23.2839 8.53396 22.764 8.456C22.082 8.34791 21.3839 8.48566 20.7941 8.84467C20.2043 9.20368 19.7612 9.76058 19.544 10.416L18.256 14.336C17.9348 15.2736 17.405 16.1262 16.7066 16.8294C16.0082 17.5327 15.1594 18.0683 14.224 18.396L10.36 19.6C9.78537 19.8011 9.28823 20.1773 8.93848 20.6756C8.58872 21.1739 8.40394 21.7693 8.41012 22.3781C8.4163 22.9869 8.61313 23.5784 8.97293 24.0695C9.33273 24.5606 9.83741 24.9266 10.416 25.116L14.252 26.376C15.2181 26.6957 16.096 27.2369 16.8155 27.9565C17.5351 28.676 18.0763 29.5539 18.396 30.52L19.684 34.44C19.88 35 20.244 35.476 20.748 35.84H20.72ZM37.912 47.18C38.1974 47.3814 38.5259 47.5133 38.8713 47.5651C39.2168 47.6169 39.5695 47.5872 39.9014 47.4784C40.2333 47.3695 40.5352 47.1846 40.7829 46.9383C41.0306 46.6921 41.2173 46.3913 41.328 46.06L42.028 43.932C42.1786 43.4902 42.4286 43.0888 42.7587 42.7587C43.0888 42.4286 43.4902 42.1786 43.932 42.028L46.088 41.328C46.5343 41.1749 46.9209 40.8848 47.1926 40.499C47.4643 40.1132 47.6072 39.6515 47.601 39.1797C47.5948 38.7079 47.4398 38.2501 47.158 37.8716C46.8763 37.4932 46.4822 37.2133 46.032 37.072L43.876 36.372C43.4331 36.2233 43.0307 35.974 42.7004 35.6436C42.37 35.3133 42.1207 34.9109 41.972 34.468L41.272 32.312C41.1218 31.8648 40.8342 31.4764 40.4503 31.2023C40.0663 30.9281 39.6056 30.7822 39.1339 30.7853C38.6621 30.7884 38.2034 30.9404 37.8231 31.2196C37.4428 31.4987 37.1603 31.8909 37.016 32.34L36.344 34.468C36.1944 34.9059 35.9481 35.3045 35.6233 35.6341C35.2985 35.9637 34.9036 36.2159 34.468 36.372L32.312 37.072C31.8638 37.2193 31.4736 37.5043 31.197 37.8864C30.9204 38.2686 30.7714 38.7283 30.7714 39.2C30.7714 39.6717 30.9204 40.1314 31.197 40.5136C31.4736 40.8957 31.8638 41.1807 32.312 41.328L34.468 42.028C34.9098 42.1786 35.3112 42.4286 35.6413 42.7587C35.9714 43.0888 36.2214 43.4902 36.372 43.932L37.072 46.088C37.24 46.536 37.52 46.928 37.912 47.208V47.18Z" fill="#C81766"/>
</svg>
