<?xml version="1.0" encoding="UTF-8"?>
<!DOCTYPE svg PUBLIC "-//W3C//DTD SVG 1.1//EN" "http://www.w3.org/Graphics/SVG/1.1/DTD/svg11.dtd">
<svg xmlns="http://www.w3.org/2000/svg" version="1.1" width="1756px" height="839px" style="shape-rendering:geometricPrecision; text-rendering:geometricPrecision; image-rendering:optimizeQuality; fill-rule:evenodd; clip-rule:evenodd" xmlns:xlink="http://www.w3.org/1999/xlink">
<g><path style="opacity:0.954" fill="#fefffe" d="M 788.5,101.5 C 793.5,101.5 798.5,101.5 803.5,101.5C 803.5,135.5 803.5,169.5 803.5,203.5C 798.833,203.5 794.167,203.5 789.5,203.5C 789.813,200.753 789.48,198.086 788.5,195.5C 779.358,204.706 768.358,207.872 755.5,205C 737.27,198.726 728.27,185.892 728.5,166.5C 729.948,138.552 744.614,125.719 772.5,128C 778.682,129.517 783.849,132.683 788,137.5C 788.5,125.505 788.667,113.505 788.5,101.5 Z M 764.5,142.5 C 782.549,144.392 790.383,154.392 788,172.5C 781.473,189.566 769.973,194.066 753.5,186C 740.167,173 740.167,160 753.5,147C 757.053,144.879 760.72,143.379 764.5,142.5 Z"/></g>
<g><path style="opacity:0.957" fill="#fefffe" d="M 857.5,101.5 C 862.5,101.5 867.5,101.5 872.5,101.5C 872.333,113.838 872.5,126.171 873,138.5C 881.584,128.634 892.418,125.134 905.5,128C 923.472,134.411 932.806,147.244 933.5,166.5C 933.303,186.086 923.97,198.919 905.5,205C 892.784,207.869 881.95,204.702 873,195.5C 872.503,198.146 872.336,200.813 872.5,203.5C 867.5,203.5 862.5,203.5 857.5,203.5C 857.5,169.5 857.5,135.5 857.5,101.5 Z M 893.5,142.5 C 912.637,145.482 920.137,156.482 916,175.5C 910.175,187.662 900.675,192.162 887.5,189C 872.671,180.225 869.171,168.059 877,152.5C 881.457,147.162 886.957,143.829 893.5,142.5 Z"/></g>
<g><path style="opacity:0.968" fill="#fefffe" d="M 264.5,104.5 C 278.171,104.333 291.837,104.5 305.5,105C 326.935,111.367 335.435,125.533 331,147.5C 325.872,159.816 316.705,166.983 303.5,169C 295.841,169.5 288.174,169.666 280.5,169.5C 280.5,180.833 280.5,192.167 280.5,203.5C 275.167,203.5 269.833,203.5 264.5,203.5C 264.5,170.5 264.5,137.5 264.5,104.5 Z M 280.5,120.5 C 287.508,120.334 294.508,120.5 301.5,121C 315.77,125.693 319.27,134.527 312,147.5C 309.749,149.377 307.249,150.877 304.5,152C 296.571,153.363 288.571,153.863 280.5,153.5C 280.5,142.5 280.5,131.5 280.5,120.5 Z"/></g>
<g><path style="opacity:0.966" fill="#fefffe" d="M 639.5,126.5 C 641.833,126.5 644.167,126.5 646.5,126.5C 645.46,132.116 644.793,137.783 644.5,143.5C 628.942,143.221 620.442,150.887 619,166.5C 618.5,178.829 618.333,191.162 618.5,203.5C 613.5,203.5 608.5,203.5 603.5,203.5C 603.5,178.833 603.5,154.167 603.5,129.5C 608.214,129.173 612.88,129.507 617.5,130.5C 618.23,133.109 618.73,135.776 619,138.5C 624.793,132.502 631.626,128.502 639.5,126.5 Z"/></g>
<g><path style="opacity:0.94" fill="#fefffe" d="M 369.5,127.5 C 393.99,124.857 409.823,135.19 417,158.5C 419.759,182.06 409.926,197.56 387.5,205C 371.383,208.072 357.883,203.572 347,191.5C 336.575,176.252 335.909,160.585 345,144.5C 351.256,135.965 359.423,130.298 369.5,127.5 Z M 376.5,142.5 C 396.279,145.1 404.113,156.1 400,175.5C 390.974,190.798 378.808,193.965 363.5,185C 353.42,175.374 351.92,164.541 359,152.5C 363.669,146.921 369.502,143.588 376.5,142.5 Z"/></g>
<g><path style="opacity:0.95" fill="#fefffe" d="M 548.5,127.5 C 579.03,126.862 592.697,141.695 589.5,172C 571.167,172.333 552.833,172.667 534.5,173C 541.349,189.589 553.016,194.255 569.5,187C 571.609,185.859 573.442,184.359 575,182.5C 578.035,185.87 581.368,188.87 585,191.5C 585.667,192.5 585.667,193.5 585,194.5C 574.366,204.286 561.866,207.786 547.5,205C 533.414,201.247 524.248,192.414 520,178.5C 515.727,161.509 519.894,147.009 532.5,135C 537.542,131.643 542.876,129.143 548.5,127.5 Z M 551.5,142.5 C 564.394,141.279 572.394,146.946 575.5,159.5C 561.833,160.833 548.167,160.833 534.5,159.5C 537.218,150.782 542.884,145.115 551.5,142.5 Z"/></g>
<g><path style="opacity:0.946" fill="#fefffe" d="M 677.5,127.5 C 700.686,124.867 714.853,134.867 720,157.5C 720.588,162.528 720.422,167.528 719.5,172.5C 701.167,172.5 682.833,172.5 664.5,172.5C 668.21,185.532 676.877,191.365 690.5,190C 695.967,188.684 700.8,186.184 705,182.5C 708.5,186 712,189.5 715.5,193C 704.741,203.945 691.741,207.945 676.5,205C 657.996,198.976 648.329,186.143 647.5,166.5C 648.6,146.426 658.6,133.426 677.5,127.5 Z M 681.5,142.5 C 694.484,141.826 702.15,147.826 704.5,160.5C 691.167,160.5 677.833,160.5 664.5,160.5C 666.767,151.235 672.434,145.235 681.5,142.5 Z"/></g>
<g><path style="opacity:0.93" fill="#fefffe" d="M 418.5,129.5 C 424.206,129.171 429.872,129.505 435.5,130.5C 440.173,144.187 444.84,157.854 449.5,171.5C 455.404,157.361 461.571,143.361 468,129.5C 474.429,143.361 480.596,157.361 486.5,171.5C 491.293,157.953 495.793,144.286 500,130.5C 505.779,129.193 511.612,129.193 517.5,130.5C 508.303,155.424 499.303,180.424 490.5,205.5C 489.349,206.731 488.183,206.731 487,205.5C 480.941,191.049 474.608,176.716 468,162.5C 461.517,176.803 455.017,191.136 448.5,205.5C 447.5,206.833 446.5,206.833 445.5,205.5C 436.486,180.146 427.486,154.812 418.5,129.5 Z"/></g>
<g><path style="opacity:0.932" fill="#fefffe" d="M 934.5,129.5 C 940.206,129.171 945.872,129.505 951.5,130.5C 958.098,147.127 964.598,163.794 971,180.5C 978.069,163.792 985.236,147.126 992.5,130.5C 998.167,129.167 1003.83,129.167 1009.5,130.5C 994.926,164.059 980.26,197.559 965.5,231C 960.136,231.829 954.802,231.663 949.5,230.5C 954.23,219.971 958.564,209.304 962.5,198.5C 953.166,175.499 943.833,152.499 934.5,129.5 Z"/></g>
<g><path style="opacity:0.973" fill="#fefffe" d="M 204.5,155.5 C 219.5,155.5 234.5,155.5 249.5,155.5C 249.5,162.167 249.5,168.833 249.5,175.5C 240.833,175.5 232.167,175.5 223.5,175.5C 223.5,215.5 223.5,255.5 223.5,295.5C 217.167,295.5 210.833,295.5 204.5,295.5C 204.5,248.833 204.5,202.167 204.5,155.5 Z"/></g>
<g><path style="opacity:0.947" fill="#fefffe" d="M 1026.5,155.5 C 1204.5,155.5 1382.5,155.5 1560.5,155.5C 1560.5,202.167 1560.5,248.833 1560.5,295.5C 1554.17,295.5 1547.83,295.5 1541.5,295.5C 1541.5,255.5 1541.5,215.5 1541.5,175.5C 1369.83,175.5 1198.17,175.5 1026.5,175.5C 1026.5,168.833 1026.5,162.167 1026.5,155.5 Z"/></g>
<g><path style="opacity:0.986" fill="#fefffe" d="M 1116.5,341.5 C 1131.17,341.5 1145.83,341.5 1160.5,341.5C 1160.5,396.833 1160.5,452.167 1160.5,507.5C 1145.83,507.5 1131.17,507.5 1116.5,507.5C 1116.5,452.167 1116.5,396.833 1116.5,341.5 Z"/></g>
<g><path style="opacity:0.981" fill="#fefffe" d="M 1401.5,341.5 C 1416.83,341.5 1432.17,341.5 1447.5,341.5C 1447.5,352.167 1447.5,362.833 1447.5,373.5C 1432.17,373.5 1416.83,373.5 1401.5,373.5C 1401.5,362.833 1401.5,352.167 1401.5,341.5 Z"/></g>
<g><path style="opacity:0.92" fill="#fefffe" d="M 598.5,345.5 C 614.718,342.589 628.218,347.256 639,359.5C 650.664,382.007 645.831,400.173 624.5,414C 618.954,416.94 613.287,419.606 607.5,422C 620.318,435.985 633.652,449.485 647.5,462.5C 655.286,451.267 661.786,439.267 667,426.5C 671.623,425.872 675.79,427.205 679.5,430.5C 673.1,444.975 665.433,458.642 656.5,471.5C 665.119,481.62 674.285,491.287 684,500.5C 684.667,501.5 684.667,502.5 684,503.5C 681.075,505.714 678.241,508.047 675.5,510.5C 665.817,501.651 656.651,492.318 648,482.5C 625.685,508.87 598.518,515.704 566.5,503C 548.977,491.45 542.144,475.283 546,454.5C 551.263,439.568 561.096,428.735 575.5,422C 578.833,420.667 582.167,419.333 585.5,418C 569.909,404.23 565.076,387.396 571,367.5C 576.77,355.894 585.937,348.56 598.5,345.5 Z M 600.5,356.5 C 622.463,354.699 632.963,364.699 632,386.5C 629.803,393.703 625.636,399.537 619.5,404C 613.228,407.969 606.561,411.136 599.5,413.5C 591.918,406.413 586.084,398.08 582,388.5C 579.583,372.773 585.75,362.107 600.5,356.5 Z M 591.5,426.5 C 592.239,426.369 592.906,426.536 593.5,427C 609.196,442.362 624.529,458.029 639.5,474C 627.884,488.473 612.884,496.64 594.5,498.5C 567.751,496.266 555.918,481.932 559,455.5C 562.594,446.567 568.427,439.4 576.5,434C 581.592,431.454 586.592,428.954 591.5,426.5 Z"/></g>
<g><path style="opacity:0.924" fill="#fefffe" d="M 82.5,347.5 C 105.86,347.112 129.194,347.612 152.5,349C 187.022,355.196 209.189,375.03 219,408.5C 225.903,446.838 213.07,476.338 180.5,497C 169.183,502.772 157.183,506.105 144.5,507C 123.836,507.5 103.169,507.667 82.5,507.5C 82.5,454.167 82.5,400.833 82.5,347.5 Z M 95.5,359.5 C 111.503,359.333 127.503,359.5 143.5,360C 183.216,365.213 204.549,387.713 207.5,427.5C 206.36,459.622 190.693,481.122 160.5,492C 155.239,493.385 149.906,494.385 144.5,495C 128.17,495.5 111.837,495.667 95.5,495.5C 95.5,450.167 95.5,404.833 95.5,359.5 Z"/></g>
<g><path style="opacity:0.973" fill="#fefffe" d="M 752.5,347.5 C 766.5,347.5 780.5,347.5 794.5,347.5C 815.168,400.663 836.334,453.663 858,506.5C 858.5,465.501 858.667,424.501 858.5,383.5C 873.5,383.5 888.5,383.5 903.5,383.5C 903.334,388.511 903.501,393.511 904,398.5C 919.215,381.072 937.715,376.572 959.5,385C 972.844,392.498 980.011,403.998 981,419.5C 981.5,448.831 981.667,478.165 981.5,507.5C 966.833,507.5 952.167,507.5 937.5,507.5C 937.931,482.466 937.431,457.466 936,432.5C 930.414,419.942 921.581,417.109 909.5,424C 906.769,426.626 904.936,429.793 904,433.5C 903.5,458.164 903.333,482.831 903.5,507.5C 871.833,508.067 840.167,508.233 808.5,508C 796.475,475.593 784.642,443.093 773,410.5C 760.685,442.608 748.851,474.941 737.5,507.5C 721.18,508.499 704.847,508.833 688.5,508.5C 709.44,454.681 730.773,401.015 752.5,347.5 Z"/></g>
<g><path style="opacity:0.969" fill="#fefffe" d="M 1322.5,352.5 C 1337.5,352.5 1352.5,352.5 1367.5,352.5C 1367.5,362.833 1367.5,373.167 1367.5,383.5C 1376.83,383.5 1386.17,383.5 1395.5,383.5C 1395.5,395.5 1395.5,407.5 1395.5,419.5C 1386.17,419.5 1376.83,419.5 1367.5,419.5C 1367.33,434.837 1367.5,450.17 1368,465.5C 1370.01,469.995 1373.51,472.328 1378.5,472.5C 1384.28,471.572 1389.95,470.238 1395.5,468.5C 1395.82,480.081 1395.49,491.581 1394.5,503C 1379.75,509.601 1364.42,511.267 1348.5,508C 1334.78,504.284 1326.62,495.45 1324,481.5C 1322.63,460.861 1322.13,440.195 1322.5,419.5C 1317.83,419.5 1313.17,419.5 1308.5,419.5C 1308.5,407.5 1308.5,395.5 1308.5,383.5C 1313.17,383.5 1317.83,383.5 1322.5,383.5C 1322.5,373.167 1322.5,362.833 1322.5,352.5 Z"/></g>
<g><path style="opacity:0.915" fill="#fefffe" d="M 369.5,353.5 C 373.5,353.5 377.5,353.5 381.5,353.5C 381.5,365.833 381.5,378.167 381.5,390.5C 395.167,390.5 408.833,390.5 422.5,390.5C 422.5,394.5 422.5,398.5 422.5,402.5C 408.833,402.5 395.167,402.5 381.5,402.5C 381.053,429.871 381.553,457.204 383,484.5C 385.263,491.097 389.763,495.264 396.5,497C 405.086,498.387 413.253,497.22 421,493.5C 421.796,497.755 421.629,501.921 420.5,506C 408.012,510.931 395.679,510.598 383.5,505C 375.302,499.777 370.802,492.277 370,482.5C 369.5,455.835 369.333,429.169 369.5,402.5C 364.167,402.5 358.833,402.5 353.5,402.5C 353.5,398.5 353.5,394.5 353.5,390.5C 358.833,390.5 364.167,390.5 369.5,390.5C 369.5,378.167 369.5,365.833 369.5,353.5 Z"/></g>
<g><path style="opacity:0.972" fill="#fefffe" d="M 1508.5,381.5 C 1535.7,377.604 1557.03,386.771 1572.5,409C 1562.92,417.077 1552.92,424.577 1542.5,431.5C 1532.93,418.275 1520.93,415.442 1506.5,423C 1497.94,431.021 1494.77,440.855 1497,452.5C 1501.18,468.183 1511.35,474.683 1527.5,472C 1530.45,471.194 1533.11,469.861 1535.5,468C 1538.05,465.115 1540.88,462.615 1544,460.5C 1553.32,467.152 1562.66,473.819 1572,480.5C 1572.42,482.788 1571.75,484.788 1570,486.5C 1549.98,508.847 1525.48,515.68 1496.5,507C 1465.03,493.57 1450.86,469.737 1454,435.5C 1460.12,405.213 1478.29,387.213 1508.5,381.5 Z"/></g>
<g><path style="opacity:0.97" fill="#fefffe" d="M 1617.5,381.5 C 1634.76,380.132 1651.43,382.632 1667.5,389C 1672.04,390.763 1676.04,393.263 1679.5,396.5C 1674.83,405.855 1669.66,414.855 1664,423.5C 1654.72,418.445 1644.89,414.945 1634.5,413C 1630.83,412.333 1627.17,412.333 1623.5,413C 1616.83,417.055 1617.16,420.721 1624.5,424C 1639.36,427.954 1653.7,433.287 1667.5,440C 1680.54,450.124 1685.04,463.291 1681,479.5C 1676.51,495.006 1666.35,504.506 1650.5,508C 1625.94,512.574 1602.61,508.907 1580.5,497C 1577.81,495.302 1575.48,493.302 1573.5,491C 1578.62,481.931 1584.12,473.098 1590,464.5C 1604.14,474.879 1619.97,479.379 1637.5,478C 1644.25,473.804 1643.92,470.137 1636.5,467C 1622.74,463.524 1609.4,458.857 1596.5,453C 1581.45,443.528 1575.95,430.028 1580,412.5C 1582.65,401.697 1588.82,393.53 1598.5,388C 1604.71,385.098 1611.04,382.932 1617.5,381.5 Z"/></g>
<g><path style="opacity:0.977" fill="#fefffe" d="M 1027.5,382.5 C 1038.84,382.333 1050.17,382.5 1061.5,383C 1086.04,385.873 1100.54,399.373 1105,423.5C 1105.5,451.498 1105.67,479.498 1105.5,507.5C 1091.17,507.5 1076.83,507.5 1062.5,507.5C 1062.67,503.486 1062.5,499.486 1062,495.5C 1047.6,509.309 1030.76,513.476 1011.5,508C 993.625,502.423 984.958,490.256 985.5,471.5C 984.992,455.337 991.992,443.837 1006.5,437C 1024.77,431.191 1043.1,431.024 1061.5,436.5C 1062.39,426.147 1057.73,419.647 1047.5,417C 1033.16,415.113 1019.33,416.946 1006,422.5C 1005.23,422.355 1004.56,422.022 1004,421.5C 1000.69,411.583 998.022,401.583 996,391.5C 1006.23,387.154 1016.73,384.154 1027.5,382.5 Z M 1039.5,454.5 C 1047.28,454.132 1054.95,454.798 1062.5,456.5C 1064.43,472.068 1057.6,480.735 1042,482.5C 1028.59,480.262 1024.59,472.929 1030,460.5C 1032.84,457.837 1036.01,455.837 1039.5,454.5 Z"/></g>
<g><path style="opacity:0.972" fill="#fefffe" d="M 1162.5,384.5 C 1177.99,383.504 1193.66,383.17 1209.5,383.5C 1216.63,407.71 1224.46,431.71 1233,455.5C 1240.4,431.797 1247.9,408.131 1255.5,384.5C 1270.49,383.501 1285.49,383.167 1300.5,383.5C 1286.31,422.913 1271.81,462.247 1257,501.5C 1252.75,515.181 1245.58,527.015 1235.5,537C 1220.93,544.827 1205.6,546.494 1189.5,542C 1181.97,540.16 1174.97,537.16 1168.5,533C 1172.93,522.636 1177.77,512.469 1183,502.5C 1188.6,506.311 1194.77,508.644 1201.5,509.5C 1205.52,509.163 1208.52,507.33 1210.5,504C 1194.57,464.027 1178.57,424.194 1162.5,384.5 Z"/></g>
<g><path style="opacity:0.979" fill="#fefffe" d="M 1402.5,383.5 C 1417.17,383.5 1431.83,383.5 1446.5,383.5C 1446.5,424.833 1446.5,466.167 1446.5,507.5C 1431.83,507.5 1417.17,507.5 1402.5,507.5C 1402.5,466.167 1402.5,424.833 1402.5,383.5 Z"/></g>
<g><path style="opacity:0.923" fill="#fefffe" d="M 275.5,389.5 C 284.173,389.334 292.84,389.5 301.5,390C 322.713,394.212 334.546,407.045 337,428.5C 337.5,454.831 337.667,481.165 337.5,507.5C 333.5,507.5 329.5,507.5 325.5,507.5C 325.666,501.491 325.499,495.491 325,489.5C 313.987,503.462 299.487,510.462 281.5,510.5C 266.242,510.143 253.409,504.476 243,493.5C 233.019,476.294 234.852,460.461 248.5,446C 263.424,436.48 279.757,432.813 297.5,435C 306.692,435.421 315.692,436.921 324.5,439.5C 326.86,417.684 317.193,404.851 295.5,401C 285.296,399.93 275.296,400.93 265.5,404C 260.503,405.942 255.503,407.776 250.5,409.5C 249.798,406.422 248.798,403.422 247.5,400.5C 247.833,399.833 248.167,399.167 248.5,398.5C 257.285,394.461 266.285,391.461 275.5,389.5 Z M 280.5,445.5 C 295.695,445.519 310.695,447.186 325.5,450.5C 328.62,474.534 318.62,490.034 295.5,497C 279.593,501.224 265.759,497.724 254,486.5C 246.452,473.11 248.619,461.61 260.5,452C 267,448.888 273.667,446.721 280.5,445.5 Z"/></g>
<g><path style="opacity:0.933" fill="#fefffe" d="M 471.5,389.5 C 483.293,388.902 494.96,389.735 506.5,392C 521.471,397.306 530.304,407.806 533,423.5C 533.5,451.498 533.667,479.498 533.5,507.5C 529.833,507.5 526.167,507.5 522.5,507.5C 522.666,501.491 522.499,495.491 522,489.5C 506.008,507.718 486.174,513.885 462.5,508C 438.033,499.901 429.2,483.401 436,458.5C 442.952,445.571 453.785,438.071 468.5,436C 486.408,433.591 504.075,434.758 521.5,439.5C 523.812,417.645 514.145,404.812 492.5,401C 477.129,399.367 462.629,402.201 449,409.5C 446.519,406.59 444.686,403.257 443.5,399.5C 452.416,394.752 461.749,391.419 471.5,389.5 Z M 477.5,445.5 C 492.695,445.519 507.695,447.186 522.5,450.5C 525.119,477.432 513.119,493.266 486.5,498C 472.018,500.395 459.851,496.229 450,485.5C 442.328,467.179 447.828,454.679 466.5,448C 470.312,447.205 473.979,446.371 477.5,445.5 Z"/></g>
<g><path style="opacity:0.945" fill="#fefffe" d="M 204.5,574.5 C 210.833,574.5 217.167,574.5 223.5,574.5C 223.5,615.5 223.5,656.5 223.5,697.5C 662.833,697.5 1102.17,697.5 1541.5,697.5C 1541.5,656.5 1541.5,615.5 1541.5,574.5C 1547.83,574.5 1554.17,574.5 1560.5,574.5C 1560.5,622.167 1560.5,669.833 1560.5,717.5C 1108.5,717.5 656.5,717.5 204.5,717.5C 204.5,669.833 204.5,622.167 204.5,574.5 Z"/></g>
</svg>
