<svg id="Layer_1" preserveaspectratio="xMinYMid meet" role="graphics-document" style="enable-background:new 0 0 340 58.63;" title="SSOE-1805-Reg" version="1.1" viewBox="0 0 340 58.63" x="0px" xml:space="preserve" xmlns="http://www.w3.org/2000/svg" xmlns:xlink="http://www.w3.org/1999/xlink" y="0px"> <style type="text/css"> .Arched_x0020_Green{fill:url(#SVGID_1_);stroke:#FFFFFF;stroke-width:0.25;stroke-miterlimit:1;} .st0{fill-rule:evenodd;clip-rule:evenodd;fill:#B3292E;} </style> <linearGradient gradientUnits="userSpaceOnUse" id="SVGID_1_" x1="-236.3274" x2="-235.6203" y1="335.3151" y2="334.608"> <stop offset="0" style="stop-color:#1DAB4B"></stop> <stop offset="0.9831" style="stop-color:#1C361D"></stop> </linearGradient> <g> <path class="st0" d="M13.43,0.41C6.01,0.41,0,6.41,0,13.84c0,7.42,6.01,13.43,13.43,13.43c7.42,0,13.43-6.01,13.43-13.43 C26.86,6.41,20.85,0.41,13.43,0.41z M13.43,23.19C8.26,23.19,4.08,19,4.07,13.84c0.01-5.17,4.19-9.35,9.36-9.36 c5.17,0.01,9.35,4.19,9.36,9.36C22.78,19,18.6,23.19,13.43,23.19z M44.63,31.32c-7.42,0-13.43,6.01-13.44,13.43 c0,7.42,6.01,13.43,13.44,13.43c7.42,0,13.43-6.01,13.43-13.43C58.07,37.34,52.05,31.32,44.63,31.32z M44.63,54.12 c-5.17-0.01-9.35-4.19-9.36-9.36c0.01-5.17,4.19-9.35,9.36-9.36c5.17,0.01,9.35,4.19,9.36,9.36C53.98,49.92,49.8,54.11,44.63,54.12 z M13.43,31.32C6.01,31.32,0,37.34,0,44.76c0,7.42,6.01,13.43,13.43,13.43c7.42,0,13.43-6.01,13.43-13.43 C26.86,37.34,20.85,31.32,13.43,31.32z M13.43,54.12c-5.17-0.01-9.35-4.19-9.36-9.36c0.01-5.17,4.19-9.35,9.36-9.36 c5.17,0.01,9.35,4.19,9.36,9.36C22.78,49.92,18.6,54.11,13.43,54.12z M44.63,0.41c-7.42,0-13.43,6.01-13.43,13.43 c0,7.42,6.02,13.43,13.43,13.43c7.42,0,13.43-6.01,13.43-13.43C58.07,6.41,52.05,0.41,44.63,0.41z M44.63,23.19 c-5.16-0.01-9.35-4.19-9.36-9.35c0.01-5.17,4.19-9.35,9.36-9.36c5.17,0.01,9.35,4.19,9.36,9.36C53.98,19,49.8,23.19,44.63,23.19z M291.7,0c-19.43,0-30.69,14.6-30.69,29.31c0,14.72,11.26,29.32,30.69,29.32c10-0.12,19.2-5.18,25.87-13.56l-10.12-5.63 c-4.14,5.52-9.65,8.62-16.09,8.62c-8.39,0-16.32-6.09-17.01-14.6h46.21v-2.18C320.56,9.54,303.32,0,291.7,0z M274.35,23.56 c1.95-8.28,8.16-12.99,15.75-12.99c7.59,0,13.91,4.48,16.44,12.99H274.35z M88,23.22c0.92-7.12,5.52-12.64,15.52-12.64 c7.36,0,11.03,3.8,14.03,6.9l8.51-7.82C122.26,5.4,115.13,0,103.75,0C86.16,0,75.36,13.22,75.36,28.05c0,2.65,0.34,4.02,0.69,5.75 h41.27c-0.69,9.31-7.7,13.57-15.29,13.57c-7.7,0-13.22-3.91-15.86-6.67l-9.31,7.93c5.17,5.29,14.25,10,24.6,10 c18.62,0,28.51-13.56,28.51-27.13c0-4.6-0.34-6.33-0.92-8.28H88z M224.8,0c-19.43,0-30.7,14.6-30.7,29.31 c0,14.72,11.27,29.32,30.7,29.32c19.43,0,30.69-14.6,30.69-29.32C255.49,14.6,244.23,0,224.8,0z M224.8,47.37 c-10.46,0-18.05-8.05-18.05-18.05c0-10,7.59-18.05,18.05-18.05c10.46,0,18.05,8.05,18.05,18.05 C242.85,39.32,235.26,47.37,224.8,47.37z M147.43,23.22c0.92-7.12,5.52-12.64,15.52-12.64c7.35,0,11.03,3.8,14.02,6.9l8.51-7.82 C181.69,5.4,174.57,0,163.19,0c-17.59,0-28.4,13.22-28.4,28.05c0,2.65,0.35,4.02,0.69,5.75h41.27c-0.69,9.31-7.7,13.57-15.29,13.57 c-7.7,0-13.22-3.91-15.87-6.67l-9.31,7.93c5.17,5.29,14.25,10,24.6,10c18.63,0,28.51-13.56,28.51-27.13c0-4.6-0.34-6.33-0.92-8.28 H147.43z"></path> <path class="st0" d="M332.36,0.17c4.25,0,7.64,3.29,7.64,7.5c0,4.21-3.38,7.54-7.68,7.54c-4.3,0-7.73-3.34-7.73-7.54 c0-4.21,3.43-7.5,7.73-7.5H332.36z M332.27,1.68c-3.24,0-5.76,2.7-5.76,5.99c0,3.34,2.52,5.99,5.86,5.99 c3.24,0.05,5.72-2.66,5.72-5.95c0-3.34-2.47-6.04-5.76-6.04H332.27z M331.12,11.56h-1.73v-7.5c0.68-0.09,1.65-0.23,2.88-0.23 c1.42,0,2.05,0.23,2.56,0.59c0.45,0.32,0.77,0.87,0.77,1.6c0,0.91-0.68,1.51-1.55,1.79V7.9c0.73,0.23,1.1,0.82,1.32,1.83 c0.23,1.14,0.41,1.56,0.55,1.83h-1.83c-0.23-0.27-0.37-0.91-0.59-1.83c-0.14-0.77-0.6-1.15-1.56-1.15h-0.83V11.56z M331.17,7.35 h0.82c0.97,0,1.74-0.32,1.74-1.1c0-0.68-0.5-1.14-1.59-1.14c-0.46,0-0.78,0.04-0.97,0.09V7.35z"></path> </g> </svg>